<?xml version="1.0" encoding="UTF-8"?>
<svg xmlns="http://www.w3.org/2000/svg" xmlns:xlink="http://www.w3.org/1999/xlink" version="1.2" >
<font id="Navigo Bold">
<font-face  font-family="Navigo" units-per-em="1000" ascent="750" descent="-250" font-style="normal" font-weight="700" font-stretch="normal" cap-height="750" x-height="505" underline-position="-50" underline-thickness="50" />
<missing-glyph  horiz-adv-x="607" d="M78 -250 L529 -250 L529 750 L78 750 L78 -250 Z M179 -149 L179 649 L428 649 L428 -149 L179 -149 Z " />
<glyph glyph-name="NULL" d="" />
<glyph glyph-name="CR" unicode="&#xd;" horiz-adv-x="250" d="" />
<glyph glyph-name="space" unicode="&#x20;" horiz-adv-x="232" d="" />
<glyph glyph-name="exclam" unicode="&#x21;" horiz-adv-x="312" d="M83 241 L229 241 L239 750 L73 750 L83 241 Z M76 0 L237 0 L237 161 L76 161 L76 0 Z " />
<glyph glyph-name="quotedbl" unicode="&#x22;" horiz-adv-x="467" d="M71 459 L186 459 L206 750 L50 750 L71 459 Z M281 459 L396 459 L417 750 L261 750 L281 459 Z " />
<glyph glyph-name="numbersign" unicode="&#x23;" horiz-adv-x="688" d="M341 0 L484 0 L509 170 L616 170 L616 295 L528 295 L548 435 L646 435 L646 560 L567 560 L595 750 L452 750 L424 560 L328 560 L356 750 L213 750 L185 560 L69 560 L69 435 L166 435 L146 295 L39 295 L39 170 L127 170 L102 0 L245 0 L270 170 L366 170 L341 0 Z M385 295 L289 295 L309 435 L405 435 L385 295 Z " />
<glyph glyph-name="dollar" unicode="&#x24;" horiz-adv-x="627" d="M594 218 C594 343 511 412 374 441 L373 441 L380 617 C414 602 429 574 438 540 L569 540 L569 616 C552 691 485 743 385 759 L390 876 L285 876 L280 764 C135 753 41 671 41 537 C41 416 116 349 254 321 L263 319 L255 129 C209 142 182 171 168 212 L38 212 L38 137 C64 66 133 6 249 -11 L244 -143 L349 -143 L354 -13 C498 0 594 87 594 218 L594 218 Z M197 546 C197 587 223 617 275 626 L269 466 C214 484 197 511 197 546 L197 546 Z M438 209 C438 164 411 135 360 125 L367 296 C419 276 438 249 438 209 L438 209 Z " />
<glyph glyph-name="percent" unicode="&#x25;" horiz-adv-x="1079" d="M246 333 C376 333 462 427 462 549 C462 672 375 765 246 765 C115 765 30 673 30 549 C30 428 114 333 246 333 L246 333 Z M217 -26 L373 -26 L855 762 L699 762 L217 -26 Z M246 457 C194 457 171 499 171 549 C171 600 194 641 246 641 C297 641 320 601 320 549 C320 499 298 457 246 457 L246 457 Z M832 -15 C963 -15 1048 79 1048 201 C1048 324 962 417 832 417 C702 417 616 325 616 201 C616 80 700 -15 832 -15 L832 -15 Z M832 109 C780 109 758 151 758 201 C758 251 781 293 832 293 C883 293 906 252 906 201 C906 151 884 109 832 109 L832 109 Z " />
<glyph glyph-name="ampersand" unicode="&#x26;" horiz-adv-x="755" d="M577 0 L728 0 L728 70 L636 160 C678 221 706 294 718 374 L559 374 C554 336 543 299 526 266 L426 366 C502 409 565 482 565 573 C565 673 495 765 346 765 C215 765 122 684 122 565 C122 504 141 452 181 402 C146 388 37 336 37 204 C37 77 132 -16 302 -16 C386 -16 462 9 525 53 L577 0 Z M277 562 C277 606 305 633 347 633 C383 633 411 603 411 562 C411 523 386 483 335 453 C296 493 277 525 277 562 L277 562 Z M311 121 C240 121 202 161 202 222 C202 280 251 309 268 317 L425 157 C396 134 354 121 311 121 L311 121 Z " />
<glyph glyph-name="quotesingle" unicode="&#x27;" horiz-adv-x="256" d="M71 459 L186 459 L206 750 L50 750 L71 459 Z " />
<glyph glyph-name="parenleft" unicode="&#x28;" horiz-adv-x="384" d="M358 -230 L358 -104 C241 -65 194 106 194 268 C194 430 241 601 358 640 L358 766 C152 716 38 532 38 268 C38 4 152 -180 358 -230 L358 -230 Z " />
<glyph glyph-name="parenright" unicode="&#x29;" horiz-adv-x="384" d="M26 -230 C233 -180 346 4 346 268 C346 532 233 716 26 766 L26 640 C143 601 191 430 191 268 C191 106 143 -65 26 -104 L26 -230 Z " />
<glyph glyph-name="asterisk" unicode="&#x2a;" horiz-adv-x="523" d="M187 316 L261 443 L335 316 L443 396 L346 504 L489 535 L449 663 L311 604 L327 750 L191 750 L205 606 L74 663 L33 535 L176 504 L79 396 L187 316 Z " />
<glyph glyph-name="plus" unicode="&#x2b;" horiz-adv-x="548" d="M511 259 L511 382 L339 382 L339 557 L208 557 L208 382 L37 382 L37 259 L208 259 L208 84 L339 84 L339 259 L511 259 Z " />
<glyph glyph-name="comma" unicode="&#x2c;" horiz-adv-x="279" d="M59 -140 L159 -140 L220 10 L220 161 L59 161 L59 -140 Z " />
<glyph glyph-name="hyphen" unicode="&#x2d;" horiz-adv-x="403" d="M59 247 L344 247 L344 370 L59 370 L59 247 Z " />
<glyph glyph-name="period" unicode="&#x2e;" horiz-adv-x="279" d="M59 0 L220 0 L220 161 L59 161 L59 0 Z " />
<glyph glyph-name="slash" unicode="&#x2f;" horiz-adv-x="601" d="M23 -250 L184 -250 L578 819 L417 819 L23 -250 Z " />
<glyph glyph-name="zero" unicode="0" horiz-adv-x="672" d="M336 -15 C512 -15 618 110 618 264 L618 486 C618 641 515 766 336 765 C160 765 54 641 54 486 L54 264 C54 110 157 -15 336 -15 L336 -15 Z M336 126 C255 126 215 188 215 264 L215 486 C215 563 258 624 336 624 C417 624 458 563 458 486 L458 264 C458 188 414 126 336 126 L336 126 Z " />
<glyph glyph-name="one" unicode="1" horiz-adv-x="426" d="M175 0 L341 0 L341 750 L205 750 L15 615 L15 540 L131 540 L175 577 L175 0 Z " />
<glyph glyph-name="two" unicode="2" horiz-adv-x="587" d="M542 0 L542 151 L263 151 L383 280 C482 384 527 446 527 558 C527 685 427 765 288 765 C120 765 56 649 46 599 L46 524 L177 524 C180 548 201 624 277 624 C324 624 362 594 362 537 C362 473 323 414 270 360 L50 136 L50 0 L542 0 Z " />
<glyph glyph-name="three" unicode="3" horiz-adv-x="616" d="M304 -13 C467 -13 573 82 573 219 C573 310 520 375 435 395 C505 422 546 485 546 563 C546 685 443 765 298 765 C133 765 67 654 57 604 L57 529 L185 529 C189 553 211 624 290 624 C344 624 380 591 380 538 C380 484 346 446 278 446 L208 446 L208 320 L290 320 C373 320 407 283 407 227 C407 172 371 129 302 129 C211 129 180 212 173 236 L42 236 L42 161 C54 104 134 -13 304 -13 L304 -13 Z " />
<glyph glyph-name="four" unicode="4" horiz-adv-x="650" d="M615 150 L615 279 L519 279 L519 750 L373 750 L20 267 L20 150 L363 150 L363 -10 L519 -10 L519 150 L615 150 Z M363 279 L186 279 L363 526 L363 279 Z " />
<glyph glyph-name="five" unicode="5" horiz-adv-x="590" d="M281 -13 C449 -13 555 93 555 247 C555 404 452 495 306 495 C265 495 233 483 223 481 L238 609 L507 609 L507 750 L108 750 L71 374 L181 332 C181 332 209 364 276 364 C348 364 389 313 389 247 C389 185 350 129 280 129 C190 129 168 208 165 231 L34 231 L34 156 C46 97 122 -13 281 -13 L281 -13 Z " />
<glyph glyph-name="six" unicode="6" horiz-adv-x="619" d="M316 -13 C488 -13 594 103 594 248 C594 388 499 490 342 495 C323 495 308 490 296 485 C322 515 359 555 399 603 L474 692 L474 760 L337 760 L214 610 C88 454 39 368 39 244 C39 104 140 -13 316 -13 L316 -13 Z M317 128 C240 128 200 179 200 245 C200 311 241 363 316 363 C392 363 433 311 433 245 C433 179 391 128 317 128 L317 128 Z " />
<glyph glyph-name="seven" unicode="7" horiz-adv-x="513" d="M99 -10 L240 -10 C309 173 401 407 489 614 L489 750 L25 750 L25 604 L320 604 C234 405 158 216 99 65 L99 -10 Z " />
<glyph glyph-name="eight" unicode="8" horiz-adv-x="639" d="M319 -15 C495 -15 596 89 596 218 C596 286 564 366 482 402 C531 434 566 489 566 560 C566 673 476 766 319 766 C161 766 71 673 71 560 C71 504 94 442 156 402 C75 364 43 286 43 218 C43 89 145 -15 319 -15 L319 -15 Z M319 460 C260 460 230 501 230 550 C230 596 260 635 319 635 C378 635 408 596 408 550 C408 501 378 460 319 460 L319 460 Z M319 121 C249 121 212 167 212 224 C212 282 249 329 319 329 C390 329 427 282 427 224 C427 167 391 121 319 121 L319 121 Z " />
<glyph glyph-name="nine" unicode="9" horiz-adv-x="618" d="M146 -10 L284 -10 C316 30 416 152 436 178 C536 306 579 391 579 508 C579 648 478 765 302 765 C130 765 25 649 25 508 C25 364 120 262 284 257 C297 257 309 260 319 264 C301 241 276 212 250 182 C231 158 169 87 146 58 L146 -10 Z M302 389 C226 389 185 441 185 507 C185 573 227 624 301 624 C378 624 418 573 418 506 C418 441 377 389 302 389 L302 389 Z " />
<glyph glyph-name="colon" unicode="&#x3a;" horiz-adv-x="279" d="M59 344 L220 344 L220 505 L59 505 L59 344 Z M59 0 L220 0 L220 161 L59 161 L59 0 Z " />
<glyph glyph-name="semicolon" unicode="&#x3b;" horiz-adv-x="279" d="M59 344 L220 344 L220 505 L59 505 L59 344 Z M59 -161 L159 -161 L220 10 L220 161 L59 161 L59 -161 Z " />
<glyph glyph-name="less" unicode="&#x3c;" horiz-adv-x="492" d="M425 60 L425 175 L199 315 L425 454 L425 570 L357 570 L39 368 L39 262 L357 60 L425 60 Z " />
<glyph glyph-name="equal" unicode="&#x3d;" horiz-adv-x="588" d="M62 362 L526 362 L526 485 L62 485 L62 362 Z M62 142 L526 142 L526 265 L62 265 L62 142 Z " />
<glyph glyph-name="greater" unicode="&#x3e;" horiz-adv-x="492" d="M135 60 L453 262 L453 368 L135 570 L67 570 L67 454 L294 315 L67 175 L67 60 L135 60 Z " />
<glyph glyph-name="question" unicode="&#x3f;" horiz-adv-x="537" d="M178 241 L332 241 C329 249 324 263 324 278 C324 366 503 378 503 561 C503 685 403 765 267 765 C103 765 42 649 32 599 L32 524 L163 524 C163 548 181 624 255 624 C305 624 337 591 337 544 C337 419 169 415 169 286 C169 272 172 256 178 241 L178 241 Z M177 0 L338 0 L338 161 L177 161 L177 0 Z " />
<glyph glyph-name="at" unicode="&#x40;" horiz-adv-x="1065" d="M496 -237 C607 -237 666 -219 727 -190 L727 -61 C665 -84 603 -105 492 -105 C322 -105 191 14 191 237 C191 451 324 602 542 602 C774 602 871 461 871 321 C871 202 829 134 729 130 L767 460 L650 460 L639 429 C627 440 592 475 521 475 C384 476 298 375 283 241 C267 96 322 -9 444 -9 C519 -9 559 35 587 74 L592 0 L683 0 C889 0 1022 114 1022 331 C1022 563 829 737 544 737 C228 737 40 513 40 238 C40 -59 228 -237 496 -237 L496 -237 Z M494 104 C443 104 421 148 432 237 C440 305 477 369 536 369 C576 369 598 348 606 344 L593 228 C585 157 552 104 494 104 L494 104 Z " />
<glyph glyph-name="A" unicode="A" horiz-adv-x="706" d="M146 0 L203 159 L489 159 L547 0 L691 0 L691 80 L437 750 L268 750 L13 70 L13 0 L146 0 Z M445 295 L249 295 L347 571 L445 295 Z " />
<glyph glyph-name="B" unicode="B" horiz-adv-x="687" d="M82 0 L385 0 C549 0 646 87 646 224 C646 304 598 368 518 393 C580 417 618 475 618 549 C618 671 527 750 381 750 L82 750 L82 0 Z M241 448 L241 618 L359 618 C420 618 456 584 456 532 C456 480 418 448 355 448 L241 448 Z M241 132 L241 322 L369 322 C446 322 483 283 483 230 C483 176 443 132 368 132 L241 132 Z " />
<glyph glyph-name="C" unicode="C" horiz-adv-x="729" d="M409 -15 C595 -15 683 86 699 146 L699 222 L568 222 C561 193 517 127 411 127 C287 127 208 225 208 376 C208 530 287 624 411 624 C519 624 557 562 563 533 L694 533 L694 609 C682 658 609 765 409 765 C188 765 42 610 42 375 C42 145 179 -15 409 -15 L409 -15 Z " />
<glyph glyph-name="D" unicode="D" horiz-adv-x="760" d="M82 0 L345 0 C576 0 719 170 719 378 C719 583 576 750 345 750 L82 750 L82 0 Z M248 141 L248 609 L342 609 C473 609 548 505 548 378 C548 247 473 141 342 141 L248 141 Z " />
<glyph glyph-name="E" unicode="E" horiz-adv-x="603" d="M82 0 L553 0 L553 141 L248 141 L248 320 L518 320 L518 450 L248 450 L248 609 L553 609 L553 750 L82 750 L82 0 Z " />
<glyph glyph-name="F" unicode="F" horiz-adv-x="582" d="M82 0 L248 0 L248 310 L513 310 L513 440 L248 440 L248 609 L543 609 L543 750 L82 750 L82 0 Z " />
<glyph glyph-name="G" unicode="G" horiz-adv-x="770" d="M428 -15 C590 -15 692 53 714 86 L714 410 L404 410 L404 282 L559 282 L559 152 C528 138 487 127 430 127 C288 127 207 233 207 376 C207 518 287 624 425 624 C530 624 573 559 580 536 L710 536 L710 611 C699 669 612 765 424 765 C189 765 41 601 41 375 C41 146 186 -15 428 -15 L428 -15 Z " />
<glyph glyph-name="H" unicode="H" horiz-adv-x="790" d="M82 0 L248 0 L248 315 L542 315 L542 0 L708 0 L708 750 L542 750 L542 455 L248 455 L248 750 L82 750 L82 0 Z " />
<glyph glyph-name="I" unicode="I" horiz-adv-x="330" d="M82 0 L248 0 L248 750 L82 750 L82 0 Z " />
<glyph glyph-name="J" unicode="J" horiz-adv-x="519" d="M224 -15 C368 -15 443 66 443 229 L443 750 L278 750 L278 223 C278 145 255 126 213 126 C166 126 151 163 151 188 L21 188 L21 113 C28 71 77 -15 224 -15 L224 -15 Z " />
<glyph glyph-name="K" unicode="K" horiz-adv-x="694" d="M248 326 L532 0 L678 0 L678 78 L405 390 L650 675 L650 750 L519 750 L248 428 L248 750 L82 750 L82 0 L248 0 L248 326 Z " />
<glyph glyph-name="L" unicode="L" horiz-adv-x="569" d="M82 0 L548 0 L548 141 L248 141 L248 750 L82 750 L82 0 Z " />
<glyph glyph-name="M" unicode="M" horiz-adv-x="931" d="M405 159 L516 159 L684 512 L684 0 L849 0 L849 750 L646 750 L468 368 L286 750 L82 750 L82 0 L238 0 L238 512 L405 159 Z " />
<glyph glyph-name="N" unicode="N" horiz-adv-x="795" d="M82 0 L238 0 L238 469 L557 0 L713 0 L713 750 L557 750 L557 273 L238 750 L82 750 L82 0 Z " />
<glyph glyph-name="O" unicode="O" horiz-adv-x="826" d="M413 -15 C636 -15 785 147 785 378 C785 606 636 765 413 765 C190 765 41 606 41 378 C41 147 190 -15 413 -15 L413 -15 Z M413 126 C287 126 207 228 207 378 C207 524 287 624 413 624 C539 624 619 524 619 378 C619 228 539 126 413 126 L413 126 Z " />
<glyph glyph-name="P" unicode="P" horiz-adv-x="643" d="M82 0 L248 0 L248 245 L323 245 C515 245 612 371 612 503 C612 654 500 750 323 750 L82 750 L82 0 Z M245 383 L245 612 L322 612 C401 612 446 565 446 502 C446 431 399 383 322 383 L245 383 Z " />
<glyph glyph-name="Q" unicode="Q" horiz-adv-x="826" d="M748 -26 L667 80 C742 150 785 254 785 378 C785 606 636 765 413 765 C190 765 41 606 41 378 C41 147 190 -15 413 -15 C460 -15 504 -8 543 6 L627 -104 L748 -104 L748 -26 Z M207 378 C207 524 287 624 413 624 C539 624 619 524 619 378 C619 309 602 250 571 206 L499 301 L378 301 L378 223 L450 129 C438 127 426 126 413 126 C287 126 207 228 207 378 L207 378 Z " />
<glyph glyph-name="R" unicode="R" horiz-adv-x="682" d="M248 0 L248 264 L315 264 L507 0 L650 0 L650 78 L477 305 C562 345 612 419 612 511 C612 657 502 750 328 750 L82 750 L82 0 L248 0 Z M245 398 L245 609 L327 609 C403 609 446 567 446 509 C446 442 401 398 327 398 L245 398 Z " />
<glyph glyph-name="S" unicode="S" horiz-adv-x="646" d="M324 -15 C491 -15 605 75 605 218 C605 343 522 418 385 446 L313 462 C241 478 213 505 213 546 C213 596 251 629 321 629 C399 629 436 591 449 540 L579 540 L579 616 C558 708 463 765 325 765 C160 765 52 681 52 537 C52 416 128 343 265 316 L334 303 C410 286 444 258 444 209 C444 153 397 121 327 121 C247 121 199 156 179 212 L48 212 L48 137 C80 54 169 -15 324 -15 L324 -15 Z " />
<glyph glyph-name="T" unicode="T" horiz-adv-x="635" d="M234 0 L400 0 L400 609 L615 609 L615 750 L20 750 L20 609 L234 609 L234 0 Z " />
<glyph glyph-name="U" unicode="U" horiz-adv-x="759" d="M383 -15 C565 -15 685 115 685 275 L685 750 L529 750 L529 274 C529 192 476 126 382 126 C292 126 240 192 240 274 L240 750 L74 750 L74 275 C74 115 194 -15 383 -15 L383 -15 Z " />
<glyph glyph-name="V" unicode="V" horiz-adv-x="709" d="M264 0 L445 0 L696 680 L696 750 L550 750 L357 204 L169 750 L16 750 L16 670 L264 0 Z " />
<glyph glyph-name="W" unicode="W" horiz-adv-x="1000" d="M628 0 L797 0 L978 680 L978 750 L832 750 L708 235 L575 750 L434 750 L297 235 L178 750 L24 750 L24 670 L203 0 L372 0 L499 458 L628 0 Z " />
<glyph glyph-name="X" unicode="X" horiz-adv-x="690" d="M27 0 L158 0 L337 264 L518 0 L664 0 L664 78 L445 385 L650 675 L650 750 L519 750 L357 500 L184 750 L38 750 L38 672 L247 380 L27 75 L27 0 Z " />
<glyph glyph-name="Y" unicode="Y" horiz-adv-x="662" d="M249 0 L415 0 L415 299 L651 675 L651 750 L521 750 L343 446 L153 750 L7 750 L7 672 L249 300 L249 0 Z " />
<glyph glyph-name="Z" unicode="Z" horiz-adv-x="643" d="M603 0 L603 141 L237 141 L592 619 L592 750 L51 750 L51 609 L397 609 L41 131 L41 0 L603 0 Z " />
<glyph glyph-name="bracketleft" unicode="&#x5b;" horiz-adv-x="388" d="M78 -230 L359 -230 L359 -104 L234 -104 L234 624 L359 624 L359 750 L78 750 L78 -230 Z " />
<glyph glyph-name="backslash" unicode="&#x5c;" horiz-adv-x="601" d="M417 -250 L578 -250 L184 819 L23 819 L417 -250 Z " />
<glyph glyph-name="bracketright" unicode="&#x5d;" horiz-adv-x="387" d="M29 -230 L309 -230 L309 750 L29 750 L29 624 L154 624 L154 -104 L29 -104 L29 -230 Z " />
<glyph glyph-name="asciicircum" unicode="&#x5e;" horiz-adv-x="538" d="M378 414 L494 414 L494 479 L322 750 L216 750 L44 479 L44 414 L160 414 L269 591 L378 414 Z " />
<glyph glyph-name="underscore" unicode="&#x5f;" horiz-adv-x="530" d="M0 -223 L530 -223 L530 -105 L0 -105 L0 -223 Z " />
<glyph glyph-name="grave" unicode="&#x60;" horiz-adv-x="332" d="M172 600 L295 600 L295 660 L218 750 L75 750 L75 690 L172 600 Z " />
<glyph glyph-name="a" unicode="a" horiz-adv-x="551" d="M197 -15 C277 -15 322 23 347 64 L357 0 L493 0 L493 306 C493 447 416 520 262 520 C102 520 59 416 59 416 L59 349 L173 349 C173 349 194 395 259 395 C316 395 342 366 342 311 L342 289 C342 289 300 299 248 299 C101 299 31 238 31 142 C31 56 86 -15 197 -15 L197 -15 Z M246 101 C205 101 180 117 180 156 C180 188 199 213 258 213 C307 213 342 205 342 205 L342 183 C342 147 311 101 246 101 L246 101 Z " />
<glyph glyph-name="b" unicode="b" horiz-adv-x="642" d="M378 -15 C522 -15 605 107 605 257 C605 403 520 520 380 520 C306 520 249 489 215 437 L215 750 L64 750 L64 0 L205 0 L213 72 C246 19 303 -15 378 -15 L378 -15 Z M334 121 C262 121 215 178 215 253 C215 327 262 384 333 384 C412 384 454 326 454 252 C454 179 412 121 334 121 L334 121 Z " />
<glyph glyph-name="c" unicode="c" horiz-adv-x="545" d="M300 -15 C469 -15 508 103 508 103 L508 170 L395 170 C395 170 383 116 300 116 C223 116 187 176 187 251 C187 327 223 390 300 390 C379 390 394 336 394 336 L507 336 L507 403 C507 403 471 521 300 521 C134 521 36 399 36 251 C36 105 123 -15 300 -15 L300 -15 Z " />
<glyph glyph-name="d" unicode="d" horiz-adv-x="642" d="M262 -15 C336 -15 396 19 429 72 L438 0 L578 0 L578 750 L428 750 L428 437 C392 489 338 520 265 520 C126 520 37 403 37 252 C37 105 120 -15 262 -15 L262 -15 Z M308 121 C230 121 188 179 188 252 C188 326 230 384 308 384 C380 384 428 327 428 253 C428 178 380 121 308 121 L308 121 Z " />
<glyph glyph-name="e" unicode="e" horiz-adv-x="583" d="M308 -15 C488 -15 537 85 537 85 L537 152 L419 152 C419 152 401 106 311 106 C237 106 197 150 188 218 L540 218 C540 218 547 247 547 282 C547 417 473 520 302 520 C132 520 36 399 36 251 C36 101 126 -15 308 -15 L308 -15 Z M191 309 C203 362 235 400 301 400 C369 400 402 357 402 309 L191 309 Z " />
<glyph glyph-name="f" unicode="f" horiz-adv-x="438" d="M111 0 L262 0 L262 382 L423 382 L423 505 L262 505 L262 562 C262 610 280 632 316 632 C353 632 362 609 362 601 L474 601 L474 669 C455 723 404 760 315 760 C187 760 111 683 111 561 L111 505 L26 505 L26 382 L111 382 L111 0 Z " />
<glyph glyph-name="g" unicode="g" horiz-adv-x="642" d="M305 -260 C469 -260 579 -149 579 23 L579 505 L438 505 L430 434 C397 486 339 521 266 521 C125 521 37 402 37 254 C37 112 123 -5 262 -5 C336 -5 394 23 428 73 L428 19 C428 -67 388 -127 301 -127 C207 -127 186 -60 186 -60 L65 -60 L65 -127 C65 -127 111 -260 305 -260 L305 -260 Z M309 125 C231 125 188 183 188 256 C188 328 231 385 308 385 C380 385 428 329 428 256 C428 182 380 125 309 125 L309 125 Z " />
<glyph glyph-name="h" unicode="h" horiz-adv-x="603" d="M64 0 L215 0 L215 284 C215 333 238 385 311 385 C371 385 394 345 394 286 L394 0 L544 0 L544 314 C544 424 497 520 363 520 C288 520 238 479 215 443 L215 750 L64 750 L64 0 Z " />
<glyph glyph-name="i" unicode="i" horiz-adv-x="278" d="M64 0 L214 0 L214 505 L64 505 L64 0 Z M60 600 L216 600 L216 740 L60 740 L60 600 Z " />
<glyph glyph-name="j" unicode="j" horiz-adv-x="276" d="M22 -260 C149 -260 213 -183 213 -64 L213 505 L63 505 L63 -63 C63 -112 53 -132 19 -132 C-14 -132 -22 -106 -22 -96 L-135 -96 L-135 -168 C-117 -220 -67 -260 22 -260 L22 -260 Z M60 600 L216 600 L216 740 L60 740 L60 600 Z " />
<glyph glyph-name="k" unicode="k" horiz-adv-x="555" d="M64 0 L215 0 L215 218 L393 0 L534 0 L534 70 L367 264 L514 438 L514 505 L385 505 L215 300 L215 750 L64 750 L64 0 Z " />
<glyph glyph-name="l" unicode="l" horiz-adv-x="279" d="M64 0 L215 0 L215 750 L64 750 L64 0 Z " />
<glyph glyph-name="m" unicode="m" horiz-adv-x="868" d="M64 0 L214 0 L214 289 C214 336 234 385 292 385 C343 385 364 351 364 299 L364 0 L509 0 L509 297 C509 339 530 385 587 385 C640 385 659 349 659 295 L659 0 L809 0 L809 314 C809 427 761 520 635 520 C556 520 510 475 485 433 C464 483 418 520 344 520 C275 520 233 479 211 441 L204 505 L64 505 L64 0 Z " />
<glyph glyph-name="n" unicode="n" horiz-adv-x="603" d="M64 0 L215 0 L215 284 C215 333 238 385 311 385 C371 385 394 345 394 286 L394 0 L544 0 L544 314 C544 424 497 520 363 520 C284 520 234 476 212 438 L205 505 L64 505 L64 0 Z " />
<glyph glyph-name="o" unicode="o" horiz-adv-x="606" d="M303 -15 C470 -15 570 106 570 254 C570 401 470 520 303 520 C135 520 36 401 36 254 C36 106 135 -15 303 -15 L303 -15 Z M303 116 C224 116 187 178 187 254 C187 328 224 389 303 389 C382 389 419 328 419 254 C419 178 382 116 303 116 L303 116 Z " />
<glyph glyph-name="p" unicode="p" horiz-adv-x="642" d="M64 -250 L215 -250 L215 68 C250 16 307 -15 380 -15 C518 -15 605 103 605 254 C605 401 523 520 380 520 C306 520 245 486 212 433 L205 505 L64 505 L64 -250 Z M334 121 C262 121 215 179 215 254 C215 328 262 384 334 384 C413 384 454 327 454 254 C454 179 413 121 334 121 L334 121 Z " />
<glyph glyph-name="q" unicode="q" horiz-adv-x="641" d="M428 -250 L578 -250 L578 505 L438 505 L429 433 C396 486 338 520 265 520 C124 520 37 401 37 252 C37 105 122 -15 262 -15 C335 -15 392 16 428 68 L428 -250 Z M308 121 C230 121 188 179 188 254 C188 327 230 384 308 384 C380 384 428 328 428 254 C428 179 380 121 308 121 L308 121 Z " />
<glyph glyph-name="r" unicode="r" horiz-adv-x="481" d="M64 0 L215 0 L215 282 C215 344 239 390 293 390 C352 390 358 341 359 341 L474 341 L474 413 C466 476 425 520 347 520 C279 520 234 481 212 439 L205 505 L64 505 L64 0 Z " />
<glyph glyph-name="s" unicode="s" horiz-adv-x="508" d="M258 -15 C394 -15 473 56 473 156 C473 253 406 290 309 304 L245 313 C204 320 181 335 181 362 C181 390 201 410 249 410 C311 410 335 367 337 356 L451 356 L451 424 C429 476 368 520 252 520 C124 520 46 451 46 354 C46 260 106 215 197 203 L261 195 C309 187 338 175 338 143 C338 115 318 95 260 95 C190 95 156 138 152 153 L39 153 L39 85 C51 52 120 -15 258 -15 L258 -15 Z " />
<glyph glyph-name="t" unicode="t" horiz-adv-x="475" d="M292 -15 C387 -15 439 28 460 81 L460 149 L352 149 C352 138 344 110 304 110 C265 110 248 133 248 184 L248 382 L448 382 L448 505 L248 505 L248 633 L107 633 L99 505 L22 505 L22 382 L97 382 L97 179 C97 58 168 -15 292 -15 L292 -15 Z " />
<glyph glyph-name="u" unicode="u" horiz-adv-x="599" d="M241 -15 C317 -15 365 29 387 67 L394 0 L535 0 L535 505 L384 505 L384 221 C384 172 361 120 290 120 C232 120 210 160 210 219 L210 505 L59 505 L59 191 C59 81 107 -15 241 -15 L241 -15 Z " />
<glyph glyph-name="v" unicode="v" horiz-adv-x="550" d="M343 0 L533 438 L533 505 L405 505 L281 198 L155 505 L19 505 L19 435 L207 0 L343 0 Z " />
<glyph glyph-name="w" unicode="w" horiz-adv-x="800" d="M488 0 L624 0 L779 438 L779 505 L651 505 L561 205 L467 505 L343 505 L252 204 L159 505 L23 505 L23 435 L174 0 L310 0 L396 291 L488 0 Z " />
<glyph glyph-name="x" unicode="x" horiz-adv-x="559" d="M31 0 L157 0 L272 151 L390 0 L528 0 L528 70 L369 255 L525 438 L525 505 L399 505 L286 359 L172 505 L34 505 L34 435 L189 257 L31 68 L31 0 Z " />
<glyph glyph-name="y" unicode="y" horiz-adv-x="556" d="M204 -250 L544 438 L544 505 L419 505 L285 209 L156 505 L20 505 L20 435 L202 46 L76 -180 L76 -250 L204 -250 Z " />
<glyph glyph-name="z" unicode="z" horiz-adv-x="503" d="M462 0 L462 123 L221 123 L457 392 L457 505 L46 505 L46 382 L277 382 L41 113 L41 0 L462 0 Z " />
<glyph glyph-name="braceleft" unicode="&#x7b;" horiz-adv-x="412" d="M384 -232 L384 -106 C306 -106 269 -75 269 7 L269 54 C269 193 211 240 166 259 C211 278 269 325 269 464 L269 511 C269 593 306 624 384 624 L384 750 C206 750 113 669 113 511 L113 464 C113 338 79 322 9 322 L9 196 C79 196 113 180 113 54 L113 7 C113 -151 206 -232 384 -232 L384 -232 Z " />
<glyph glyph-name="bar" unicode="&#x7c;" horiz-adv-x="307" d="M152 -250 L234 -178 L234 747 L153 819 L73 747 L73 -178 L152 -250 Z " />
<glyph glyph-name="braceright" unicode="&#x7d;" horiz-adv-x="413" d="M28 -232 C206 -232 299 -151 299 7 L299 54 C299 180 333 196 404 196 L404 322 C333 322 299 338 299 464 L299 511 C299 669 206 750 28 750 L28 624 C107 624 143 593 143 511 L143 464 C143 325 201 278 246 259 C201 240 143 193 143 54 L143 7 C143 -75 107 -106 28 -106 L28 -232 Z " />
<glyph glyph-name="asciitilde" unicode="&#x7e;" horiz-adv-x="579" d="M387 214 C471 214 525 280 523 409 L403 409 C395 369 384 347 361 347 C307 347 285 409 200 409 C119 409 61 342 62 219 L183 219 C187 250 200 277 225 277 C279 277 307 214 387 214 L387 214 Z " />
<glyph glyph-name="uni00A0" unicode="&#xa0;" horiz-adv-x="232" d="" />
<glyph glyph-name="exclamdown" unicode="&#xa1;" horiz-adv-x="310" d="M82 369 L228 369 L238 -140 L72 -140 L82 369 Z M75 610 L236 610 L236 449 L75 449 L75 610 Z " />
<glyph glyph-name="cent" unicode="&#xa2;" horiz-adv-x="564" d="M526 103 L526 170 L418 170 C418 170 408 123 336 113 L351 390 C408 376 417 336 417 336 L525 336 L525 403 C525 403 495 499 357 518 L364 649 L270 649 L263 518 C118 499 34 386 34 251 C34 126 101 19 236 -8 L229 -143 L323 -143 L330 -14 C489 -5 526 103 526 103 L526 103 Z M180 251 C180 310 204 365 256 386 L243 126 C200 150 180 198 180 251 L180 251 Z " />
<glyph glyph-name="sterling" unicode="&#xa3;" horiz-adv-x="615" d="M567 130 L220 130 C272 155 303 214 307 287 L307 299 L472 299 L472 414 L285 414 C272 447 257 479 257 540 C257 597 293 632 351 632 C434 632 446 554 446 554 L567 554 L567 624 C567 624 528 765 341 765 C196 765 101 681 101 547 C101 489 114 449 128 414 L52 414 L52 299 L156 299 L156 287 C151 210 111 155 51 130 L51 0 L567 0 L567 130 Z " />
<glyph glyph-name="yen" unicode="&#xa5;" horiz-adv-x="707" d="M608 94 L608 204 L438 204 L438 264 L608 264 L608 374 L478 374 L675 675 L675 750 L544 750 L367 459 L177 750 L31 750 L31 672 L233 374 L103 374 L103 264 L273 264 L273 204 L103 204 L103 94 L273 94 L273 0 L438 0 L438 94 L608 94 Z " />
<glyph glyph-name="brokenbar" unicode="&#xa6;" horiz-adv-x="305" d="M72 397 L233 397 L233 747 L152 819 L72 747 L72 397 Z M151 -250 L233 -178 L233 184 L72 184 L72 -178 L151 -250 Z " />
<glyph glyph-name="section" unicode="&#xa7;" horiz-adv-x="594" d="M295 -124 C444 -124 538 -46 538 77 C538 137 518 179 486 209 C523 232 543 274 543 323 C543 410 480 465 371 486 L297 500 C232 515 210 528 210 564 C210 602 246 624 300 624 C378 624 401 574 401 559 L532 559 L532 634 C524 677 457 765 300 765 C155 765 56 689 56 563 C56 504 76 462 108 432 C71 409 51 367 51 318 C51 226 114 176 223 155 L297 141 C363 126 384 113 384 77 C384 39 351 17 296 17 C216 17 193 67 193 82 L62 82 L62 7 C71 -36 137 -124 295 -124 L295 -124 Z M330 268 C329 268 292 278 291 278 C223 294 203 310 203 341 C203 357 209 370 225 378 L262 373 L300 364 C370 348 392 331 392 300 C392 284 385 271 370 263 L330 268 Z " />
<glyph glyph-name="dieresis" unicode="&#xa8;" horiz-adv-x="440" d="M55 600 L200 600 L200 740 L55 740 L55 600 Z M260 600 L406 600 L406 740 L260 740 L260 600 Z " />
<glyph glyph-name="copyright" unicode="&#xa9;" horiz-adv-x="1016" d="M508 -209 C777 -209 977 -1 977 254 C977 508 777 716 508 716 C240 716 39 508 39 254 C39 -1 240 -209 508 -209 L508 -209 Z M508 -88 C315 -88 169 66 169 254 C169 441 315 595 508 595 C703 595 848 441 848 254 C848 66 703 -88 508 -88 L508 -88 Z M513 -5 C680 -5 718 105 718 105 L718 171 L607 171 C607 171 595 118 513 118 C437 118 402 177 402 251 C402 326 437 388 513 388 C592 388 606 335 606 335 L717 335 L717 401 C717 401 681 510 513 510 C353 510 259 393 259 251 C259 111 343 -5 513 -5 L513 -5 Z " />
<glyph glyph-name="ordfeminine" unicode="&#xaa;" horiz-adv-x="502" d="M185 300 C254 300 291 333 312 368 L321 313 L441 313 L441 578 C441 699 376 761 241 761 C102 761 64 672 64 672 L64 611 L166 611 C166 611 182 651 238 651 C283 651 307 629 307 581 L307 567 C307 567 274 575 229 575 C100 575 39 517 39 436 C39 361 88 300 185 300 L185 300 Z M227 402 C192 402 171 419 171 446 C171 475 192 494 238 494 C280 494 307 487 307 487 L307 471 C307 439 277 402 227 402 L227 402 Z " />
<glyph glyph-name="guillemotleft" unicode="&#xab;" horiz-adv-x="649" d="M334 50 L334 115 L196 270 L334 425 L334 490 L215 490 L24 270 L215 50 L334 50 Z M599 50 L599 115 L462 270 L599 425 L599 490 L481 490 L290 270 L481 50 L599 50 Z " />
<glyph glyph-name="uni00AD" unicode="&#xad;" horiz-adv-x="403" d="M59 247 L344 247 L344 370 L59 370 L59 247 Z " />
<glyph glyph-name="registered" unicode="&#xae;" horiz-adv-x="706" d="M353 136 C522 136 662 276 662 454 C662 632 522 772 353 772 C184 772 44 632 44 454 C44 276 184 136 353 136 L353 136 Z M353 228 C229 228 139 329 139 454 C139 579 229 680 353 680 C477 680 567 579 567 454 C567 329 477 228 353 228 L353 228 Z M321 412 L339 412 L418 304 L487 304 L487 340 L417 433 C451 451 471 478 471 514 C471 572 424 612 347 612 L238 612 L238 304 L321 304 L321 412 Z M320 475 L320 547 L343 547 C371 547 388 533 388 512 C388 490 371 475 343 475 L320 475 Z " />
<glyph glyph-name="macron" unicode="&#xaf;" horiz-adv-x="444" d="M75 610 L361 610 L361 726 L75 726 L75 610 Z " />
<glyph glyph-name="degree" unicode="&#xb0;" horiz-adv-x="447" d="M224 396 C333 396 414 480 414 581 C414 682 333 766 224 766 C114 766 33 682 33 581 C33 480 114 396 224 396 L224 396 Z M224 511 C184 511 159 543 159 581 C159 619 184 651 224 651 C263 651 288 619 288 581 C288 543 263 511 224 511 L224 511 Z " />
<glyph glyph-name="plusminus" unicode="&#xb1;" horiz-adv-x="593" d="M534 355 L534 478 L362 478 L362 632 L231 632 L231 478 L59 478 L59 355 L231 355 L231 200 L362 200 L362 355 L534 355 Z M64 22 L534 22 L534 145 L64 145 L64 22 Z " />
<glyph glyph-name="acute" unicode="&#xb4;" horiz-adv-x="360" d="M72 600 L195 600 L293 690 L293 750 L149 750 L72 660 L72 600 Z " />
<glyph glyph-name="paragraph" unicode="&#xb6;" horiz-adv-x="712" d="M272 -126 L407 -126 L407 609 L482 609 L482 -126 L618 -126 L618 750 L267 750 C103 750 29 661 29 537 C29 404 120 326 252 326 L272 326 L272 -126 Z " />
<glyph glyph-name="periodcentered" unicode="&#xb7;" horiz-adv-x="273" d="M59 258 L214 258 L214 411 L59 411 L59 258 Z " />
<glyph glyph-name="cedilla" unicode="&#xb8;" horiz-adv-x="500" d="M179 -224 L264 -224 C320 -219 388 -200 388 -123 C388 -77 354 -48 304 -40 L304 0 L183 0 L183 -73 C214 -73 247 -80 247 -108 C247 -137 217 -144 179 -144 L179 -224 Z " />
<glyph glyph-name="ordmasculine" unicode="&#xba;" horiz-adv-x="529" d="M265 302 C409 302 495 406 495 532 C495 658 409 760 265 760 C119 760 34 658 34 532 C34 406 119 302 265 302 L265 302 Z M265 416 C196 416 167 467 167 532 C167 597 196 647 265 647 C333 647 362 597 362 532 C362 467 333 416 265 416 L265 416 Z " />
<glyph glyph-name="guillemotright" unicode="&#xbb;" horiz-adv-x="648" d="M168 50 L359 270 L168 490 L50 490 L50 425 L187 270 L50 115 L50 50 L168 50 Z M433 50 L624 270 L433 490 L315 490 L315 425 L453 270 L315 115 L315 50 L433 50 Z " />
<glyph glyph-name="onequarter" unicode="&#xbc;" horiz-adv-x="1018" d="M185 -40 L336 -40 L805 790 L654 790 L185 -40 Z M283 290 L283 760 L177 760 L29 651 L29 586 L125 586 L147 605 L147 290 L283 290 Z M983 76 L983 173 L920 173 L920 448 L785 448 L573 154 L573 76 L789 76 L789 -22 L920 -22 L920 76 L983 76 Z M789 173 L708 173 L789 292 L789 173 Z " />
<glyph glyph-name="onehalf" unicode="&#xbd;" horiz-adv-x="1031" d="M185 -40 L336 -40 L805 790 L654 790 L185 -40 Z M147 290 L283 290 L283 760 L177 760 L29 651 L29 586 L125 586 L147 605 L147 290 Z M992 0 L992 115 L836 115 L875 152 C943 206 976 253 976 323 C976 406 910 460 804 460 C691 460 648 387 640 349 L640 297 L738 297 C740 308 751 346 795 346 C827 346 845 330 845 299 C845 269 826 245 792 215 L638 96 L638 0 L992 0 Z " />
<glyph glyph-name="threequarters" unicode="&#xbe;" horiz-adv-x="1080" d="M252 -40 L403 -40 L872 790 L721 790 L252 -40 Z M222 285 C337 285 409 344 409 428 C409 484 379 523 324 536 C367 553 392 589 392 638 C392 721 315 763 219 763 C100 763 50 700 44 669 L44 613 L150 613 C152 626 162 661 207 661 C240 661 259 645 259 618 C259 594 243 575 208 575 L160 575 L160 482 L210 482 C260 482 276 462 276 437 C276 409 258 388 218 388 C164 388 148 431 144 444 L37 444 L37 389 C44 353 101 285 222 285 L222 285 Z M1049 76 L1049 173 L987 173 L987 448 L852 448 L640 154 L640 76 L856 76 L856 -22 L987 -22 L987 76 L1049 76 Z M856 173 L775 173 L856 292 L856 173 Z " />
<glyph glyph-name="questiondown" unicode="&#xbf;" horiz-adv-x="536" d="M359 369 L205 369 C208 361 213 347 213 332 C213 244 34 232 34 49 C34 -75 134 -155 270 -155 C434 -155 495 -39 505 11 L505 86 L374 86 C374 62 356 -14 282 -14 C232 -14 200 19 200 66 C200 191 368 195 368 324 C368 338 365 354 359 369 L359 369 Z M360 610 L199 610 L199 449 L360 449 L360 610 Z " />
<glyph glyph-name="Agrave" unicode="&#xc0;" horiz-adv-x="706" d="M146 0 L203 159 L489 159 L547 0 L691 0 L691 80 L437 750 L268 750 L13 70 L13 0 L146 0 Z M445 295 L249 295 L347 571 L445 295 Z M290 805 L426 805 L426 865 L354 945 L198 945 L198 885 L290 805 Z " />
<glyph glyph-name="Aacute" unicode="&#xc1;" horiz-adv-x="706" d="M146 0 L203 159 L489 159 L547 0 L691 0 L691 80 L437 750 L268 750 L13 70 L13 0 L146 0 Z M445 295 L249 295 L347 571 L445 295 Z M279 805 L415 805 L507 885 L507 945 L351 945 L279 865 L279 805 Z " />
<glyph glyph-name="Acircumflex" unicode="&#xc2;" horiz-adv-x="706" d="M146 0 L203 159 L489 159 L547 0 L691 0 L691 80 L437 750 L268 750 L13 70 L13 0 L146 0 Z M445 295 L249 295 L347 571 L445 295 Z M407 800 L523 800 L523 860 L431 940 L271 940 L179 860 L179 800 L295 800 L351 858 L407 800 Z " />
<glyph glyph-name="Atilde" unicode="&#xc3;" horiz-adv-x="706" d="M146 0 L203 159 L489 159 L547 0 L691 0 L691 80 L437 750 L268 750 L13 70 L13 0 L146 0 Z M445 295 L249 295 L347 571 L445 295 Z M425 792 C500 792 530 847 525 929 L425 929 C421 909 406 904 391 904 C354 904 334 934 278 934 C206 934 167 878 172 797 L272 797 C276 813 289 822 307 822 C345 822 370 792 425 792 L425 792 Z " />
<glyph glyph-name="Adieresis" unicode="&#xc4;" horiz-adv-x="706" d="M146 0 L203 159 L489 159 L547 0 L691 0 L691 80 L437 750 L268 750 L13 70 L13 0 L146 0 Z M445 295 L249 295 L347 571 L445 295 Z M175 800 L325 800 L325 935 L175 935 L175 800 Z M380 800 L531 800 L531 935 L380 935 L380 800 Z " />
<glyph glyph-name="Aring" unicode="&#xc5;" horiz-adv-x="706" d="M146 0 L203 159 L489 159 L547 0 L691 0 L691 80 L437 750 L268 750 L13 70 L13 0 L146 0 Z M445 295 L249 295 L347 571 L445 295 Z M350 785 C445 785 489 824 489 878 C489 931 445 971 350 971 C256 971 212 931 212 878 C212 824 256 785 350 785 L350 785 Z M350 851 C329 851 310 861 310 878 C310 895 329 905 350 905 C371 905 390 895 390 878 C390 861 371 851 350 851 L350 851 Z " />
<glyph glyph-name="AE" unicode="&#xc6;" horiz-adv-x="978" d="M7 75 L7 0 L133 0 L219 154 L457 154 L457 0 L928 0 L928 141 L623 141 L623 320 L893 320 L893 450 L623 450 L623 609 L928 609 L928 750 L388 750 L7 75 Z M294 290 L457 586 L457 290 L294 290 Z " />
<glyph glyph-name="Ccedilla" unicode="&#xc7;" horiz-adv-x="729" d="M549 -123 C549 -77 515 -48 465 -40 L465 -12 C613 6 685 92 699 146 L699 222 L568 222 C561 193 517 127 411 127 C287 127 208 225 208 376 C208 530 287 624 411 624 C519 624 557 562 563 533 L694 533 L694 609 C682 658 609 765 409 765 C188 765 42 610 42 375 C42 168 153 17 344 -10 L344 -73 C375 -73 408 -80 408 -108 C408 -137 378 -144 340 -144 L340 -224 L425 -224 C481 -219 549 -200 549 -123 L549 -123 Z " />
<glyph glyph-name="Egrave" unicode="&#xc8;" horiz-adv-x="603" d="M82 0 L553 0 L553 141 L248 141 L248 320 L518 320 L518 450 L248 450 L248 609 L553 609 L553 750 L82 750 L82 0 Z M272 805 L408 805 L408 865 L336 945 L180 945 L180 885 L272 805 Z " />
<glyph glyph-name="Eacute" unicode="&#xc9;" horiz-adv-x="603" d="M82 0 L553 0 L553 141 L248 141 L248 320 L518 320 L518 450 L248 450 L248 609 L553 609 L553 750 L82 750 L82 0 Z M254 805 L390 805 L482 885 L482 945 L326 945 L254 865 L254 805 Z " />
<glyph glyph-name="Ecircumflex" unicode="&#xca;" horiz-adv-x="603" d="M82 0 L553 0 L553 141 L248 141 L248 320 L518 320 L518 450 L248 450 L248 609 L553 609 L553 750 L82 750 L82 0 Z M374 800 L490 800 L490 860 L398 940 L238 940 L146 860 L146 800 L262 800 L318 858 L374 800 Z " />
<glyph glyph-name="Edieresis" unicode="&#xcb;" horiz-adv-x="603" d="M82 0 L553 0 L553 141 L248 141 L248 320 L518 320 L518 450 L248 450 L248 609 L553 609 L553 750 L82 750 L82 0 Z M141 800 L291 800 L291 935 L141 935 L141 800 Z M346 800 L497 800 L497 935 L346 935 L346 800 Z " />
<glyph glyph-name="Igrave" unicode="&#xcc;" horiz-adv-x="330" d="M82 0 L248 0 L248 750 L82 750 L82 0 Z M100 805 L236 805 L236 865 L164 945 L8 945 L8 885 L100 805 Z " />
<glyph glyph-name="Iacute" unicode="&#xcd;" horiz-adv-x="330" d="M82 0 L248 0 L248 750 L82 750 L82 0 Z M96 805 L232 805 L324 885 L324 945 L168 945 L96 865 L96 805 Z " />
<glyph glyph-name="Icircumflex" unicode="&#xce;" horiz-adv-x="330" d="M220 800 L336 800 L336 860 L244 940 L84 940 L-8 860 L-8 800 L108 800 L164 858 L220 800 Z M82 0 L248 0 L248 750 L82 750 L82 0 Z " />
<glyph glyph-name="Idieresis" unicode="&#xcf;" horiz-adv-x="330" d="M-13 800 L137 800 L137 935 L-13 935 L-13 800 Z M192 800 L343 800 L343 935 L192 935 L192 800 Z M82 0 L248 0 L248 750 L82 750 L82 0 Z " />
<glyph glyph-name="Eth" unicode="&#xd0;" horiz-adv-x="773" d="M732 378 C732 583 589 750 358 750 L95 750 L95 441 L15 441 L15 315 L95 315 L95 0 L358 0 C589 0 732 170 732 378 L732 378 Z M261 141 L261 315 L350 315 L350 441 L261 441 L261 609 L355 609 C486 609 561 505 561 378 C561 247 486 141 355 141 L261 141 Z " />
<glyph glyph-name="Ntilde" unicode="&#xd1;" horiz-adv-x="795" d="M82 0 L238 0 L238 469 L557 0 L713 0 L713 750 L557 750 L557 273 L238 750 L82 750 L82 0 Z M490 792 C565 792 595 847 590 929 L490 929 C486 909 471 904 456 904 C419 904 399 934 343 934 C271 934 232 878 237 797 L337 797 C341 813 354 822 372 822 C410 822 435 792 490 792 L490 792 Z " />
<glyph glyph-name="Ograve" unicode="&#xd2;" horiz-adv-x="826" d="M413 -15 C636 -15 785 147 785 378 C785 606 636 765 413 765 C190 765 41 606 41 378 C41 147 190 -15 413 -15 L413 -15 Z M413 126 C287 126 207 228 207 378 C207 524 287 624 413 624 C539 624 619 524 619 378 C619 228 539 126 413 126 L413 126 Z M341 805 L477 805 L477 865 L405 945 L249 945 L249 885 L341 805 Z " />
<glyph glyph-name="Oacute" unicode="&#xd3;" horiz-adv-x="826" d="M413 -15 C636 -15 785 147 785 378 C785 606 636 765 413 765 C190 765 41 606 41 378 C41 147 190 -15 413 -15 L413 -15 Z M413 126 C287 126 207 228 207 378 C207 524 287 624 413 624 C539 624 619 524 619 378 C619 228 539 126 413 126 L413 126 Z M349 805 L485 805 L577 885 L577 945 L421 945 L349 865 L349 805 Z " />
<glyph glyph-name="Ocircumflex" unicode="&#xd4;" horiz-adv-x="826" d="M413 -15 C636 -15 785 147 785 378 C785 606 636 765 413 765 C190 765 41 606 41 378 C41 147 190 -15 413 -15 L413 -15 Z M413 126 C287 126 207 228 207 378 C207 524 287 624 413 624 C539 624 619 524 619 378 C619 228 539 126 413 126 L413 126 Z M469 800 L585 800 L585 860 L493 940 L333 940 L241 860 L241 800 L357 800 L413 858 L469 800 Z " />
<glyph glyph-name="Otilde" unicode="&#xd5;" horiz-adv-x="826" d="M413 -15 C636 -15 785 147 785 378 C785 606 636 765 413 765 C190 765 41 606 41 378 C41 147 190 -15 413 -15 L413 -15 Z M413 126 C287 126 207 228 207 378 C207 524 287 624 413 624 C539 624 619 524 619 378 C619 228 539 126 413 126 L413 126 Z M486 792 C561 792 591 847 586 929 L486 929 C482 909 467 904 452 904 C415 904 395 934 339 934 C267 934 228 878 233 797 L333 797 C337 813 350 822 368 822 C406 822 431 792 486 792 L486 792 Z " />
<glyph glyph-name="Odieresis" unicode="&#xd6;" horiz-adv-x="826" d="M413 -15 C636 -15 785 147 785 378 C785 606 636 765 413 765 C190 765 41 606 41 378 C41 147 190 -15 413 -15 L413 -15 Z M413 126 C287 126 207 228 207 378 C207 524 287 624 413 624 C539 624 619 524 619 378 C619 228 539 126 413 126 L413 126 Z M233 800 L383 800 L383 935 L233 935 L233 800 Z M438 800 L589 800 L589 935 L438 935 L438 800 Z " />
<glyph glyph-name="multiply" unicode="&#xd7;" horiz-adv-x="569" d="M440 63 L527 156 L377 302 L530 451 L442 544 L285 391 L127 544 L40 451 L192 302 L42 156 L129 63 L285 213 L440 63 Z " />
<glyph glyph-name="Oslash" unicode="&#xd8;" horiz-adv-x="826" d="M413 -15 C636 -15 785 147 785 378 C785 492 747 589 681 658 L770 790 L614 790 L575 731 C528 753 473 765 413 765 C190 765 41 606 41 378 C41 262 79 163 145 93 L56 -40 L212 -40 L251 19 C299 -3 353 -15 413 -15 L413 -15 Z M202 378 C202 527 284 629 413 629 C443 629 471 623 495 611 L239 234 C215 273 202 322 202 378 L202 378 Z M413 121 C382 121 355 127 331 138 L589 517 C611 480 624 432 624 378 C624 225 542 121 413 121 L413 121 Z " />
<glyph glyph-name="Ugrave" unicode="&#xd9;" horiz-adv-x="759" d="M383 -15 C565 -15 685 115 685 275 L685 750 L529 750 L529 274 C529 192 476 126 382 126 C292 126 240 192 240 274 L240 750 L74 750 L74 275 C74 115 194 -15 383 -15 L383 -15 Z M319 805 L455 805 L455 865 L383 945 L227 945 L227 885 L319 805 Z " />
<glyph glyph-name="Uacute" unicode="&#xda;" horiz-adv-x="759" d="M383 -15 C565 -15 685 115 685 275 L685 750 L529 750 L529 274 C529 192 476 126 382 126 C292 126 240 192 240 274 L240 750 L74 750 L74 275 C74 115 194 -15 383 -15 L383 -15 Z M312 805 L448 805 L540 885 L540 945 L384 945 L312 865 L312 805 Z " />
<glyph glyph-name="Ucircumflex" unicode="&#xdb;" horiz-adv-x="759" d="M383 -15 C565 -15 685 115 685 275 L685 750 L529 750 L529 274 C529 192 476 126 382 126 C292 126 240 192 240 274 L240 750 L74 750 L74 275 C74 115 194 -15 383 -15 L383 -15 Z M438 800 L554 800 L554 860 L462 940 L302 940 L210 860 L210 800 L326 800 L382 858 L438 800 Z " />
<glyph glyph-name="Udieresis" unicode="&#xdc;" horiz-adv-x="759" d="M383 -15 C565 -15 685 115 685 275 L685 750 L529 750 L529 274 C529 192 476 126 382 126 C292 126 240 192 240 274 L240 750 L74 750 L74 275 C74 115 194 -15 383 -15 L383 -15 Z M205 800 L355 800 L355 935 L205 935 L205 800 Z M410 800 L561 800 L561 935 L410 935 L410 800 Z " />
<glyph glyph-name="Yacute" unicode="&#xdd;" horiz-adv-x="662" d="M249 0 L415 0 L415 299 L651 675 L651 750 L521 750 L343 446 L153 750 L7 750 L7 672 L249 300 L249 0 Z M263 805 L399 805 L491 885 L491 945 L335 945 L263 865 L263 805 Z " />
<glyph glyph-name="Thorn" unicode="&#xde;" horiz-adv-x="646" d="M82 0 L248 0 L248 89 C497 93 618 204 618 376 C618 549 497 661 248 665 L248 750 L82 750 L82 0 Z M243 224 L243 529 C392 525 452 472 452 376 C452 282 392 228 243 224 L243 224 Z " />
<glyph glyph-name="germandbls" unicode="&#xdf;" horiz-adv-x="617" d="M366 -15 C523 -15 582 93 582 200 C582 293 525 364 434 388 C500 421 542 486 542 557 C542 689 445 760 304 760 C154 760 64 673 64 528 L64 0 L215 0 L215 529 C215 593 242 634 300 634 C361 634 386 597 386 550 C386 491 350 442 280 433 L280 313 C380 308 427 271 427 201 C427 150 401 111 340 111 C308 111 284 120 272 123 L272 0 C284 -2 316 -15 366 -15 L366 -15 Z " />
<glyph glyph-name="agrave" unicode="&#xe0;" horiz-adv-x="551" d="M197 -15 C277 -15 322 23 347 64 L357 0 L493 0 L493 306 C493 447 416 520 262 520 C102 520 59 416 59 416 L59 349 L173 349 C173 349 194 395 259 395 C316 395 342 366 342 311 L342 289 C342 289 300 299 248 299 C101 299 31 238 31 142 C31 56 86 -15 197 -15 L197 -15 Z M246 101 C205 101 180 117 180 156 C180 188 199 213 258 213 C307 213 342 205 342 205 L342 183 C342 147 311 101 246 101 L246 101 Z M231 600 L354 600 L354 660 L277 750 L134 750 L134 690 L231 600 Z " />
<glyph glyph-name="aacute" unicode="&#xe1;" horiz-adv-x="551" d="M197 -15 C277 -15 322 23 347 64 L357 0 L493 0 L493 306 C493 447 416 520 262 520 C102 520 59 416 59 416 L59 349 L173 349 C173 349 194 395 259 395 C316 395 342 366 342 311 L342 289 C342 289 300 299 248 299 C101 299 31 238 31 142 C31 56 86 -15 197 -15 L197 -15 Z M246 101 C205 101 180 117 180 156 C180 188 199 213 258 213 C307 213 342 205 342 205 L342 183 C342 147 311 101 246 101 L246 101 Z M216 600 L339 600 L437 690 L437 750 L293 750 L216 660 L216 600 Z " />
<glyph glyph-name="acircumflex" unicode="&#xe2;" horiz-adv-x="551" d="M197 -15 C277 -15 322 23 347 64 L357 0 L493 0 L493 306 C493 447 416 520 262 520 C102 520 59 416 59 416 L59 349 L173 349 C173 349 194 395 259 395 C316 395 342 366 342 311 L342 289 C342 289 300 299 248 299 C101 299 31 238 31 142 C31 56 86 -15 197 -15 L197 -15 Z M246 101 C205 101 180 117 180 156 C180 188 199 213 258 213 C307 213 342 205 342 205 L342 183 C342 147 311 101 246 101 L246 101 Z M341 600 L447 600 L447 660 L355 750 L205 750 L113 660 L113 600 L219 600 L280 673 L341 600 Z " />
<glyph glyph-name="atilde" unicode="&#xe3;" horiz-adv-x="551" d="M197 -15 C277 -15 322 23 347 64 L357 0 L493 0 L493 306 C493 447 416 520 262 520 C102 520 59 416 59 416 L59 349 L173 349 C173 349 194 395 259 395 C316 395 342 366 342 311 L342 289 C342 289 300 299 248 299 C101 299 31 238 31 142 C31 56 86 -15 197 -15 L197 -15 Z M246 101 C205 101 180 117 180 156 C180 188 199 213 258 213 C307 213 342 205 342 205 L342 183 C342 147 311 101 246 101 L246 101 Z M361 599 C436 599 466 655 461 736 L366 736 C362 713 347 707 332 707 C289 707 279 741 214 741 C142 741 103 685 108 604 L203 604 C208 623 220 634 238 634 C282 634 298 599 361 599 L361 599 Z " />
<glyph glyph-name="adieresis" unicode="&#xe4;" horiz-adv-x="551" d="M197 -15 C277 -15 322 23 347 64 L357 0 L493 0 L493 306 C493 447 416 520 262 520 C102 520 59 416 59 416 L59 349 L173 349 C173 349 194 395 259 395 C316 395 342 366 342 311 L342 289 C342 289 300 299 248 299 C101 299 31 238 31 142 C31 56 86 -15 197 -15 L197 -15 Z M246 101 C205 101 180 117 180 156 C180 188 199 213 258 213 C307 213 342 205 342 205 L342 183 C342 147 311 101 246 101 L246 101 Z M105 600 L250 600 L250 740 L105 740 L105 600 Z M310 600 L456 600 L456 740 L310 740 L310 600 Z " />
<glyph glyph-name="aring" unicode="&#xe5;" horiz-adv-x="551" d="M197 -15 C277 -15 322 23 347 64 L357 0 L493 0 L493 306 C493 447 416 520 262 520 C102 520 59 416 59 416 L59 349 L173 349 C173 349 194 395 259 395 C316 395 342 366 342 311 L342 289 C342 289 300 299 248 299 C101 299 31 238 31 142 C31 56 86 -15 197 -15 L197 -15 Z M246 101 C205 101 180 117 180 156 C180 188 199 213 258 213 C307 213 342 205 342 205 L342 183 C342 147 311 101 246 101 L246 101 Z M283 568 C374 568 417 610 417 664 C417 717 374 760 283 760 C192 760 150 717 150 664 C150 610 192 568 283 568 L283 568 Z M283 634 C265 634 248 645 248 664 C248 683 265 694 283 694 C302 694 318 683 318 664 C318 645 302 634 283 634 L283 634 Z " />
<glyph glyph-name="ae" unicode="&#xe6;" horiz-adv-x="897" d="M622 -15 C802 -15 851 85 851 85 L851 152 L733 152 C733 152 714 106 624 106 C551 106 510 150 502 218 L854 218 C854 218 861 247 861 282 C861 417 787 520 619 520 C544 520 484 491 443 447 C405 494 343 520 261 520 C102 520 59 416 59 416 L59 349 L172 349 C172 349 193 395 259 395 C315 395 351 366 351 311 L351 292 C351 292 309 302 255 302 C100 302 30 238 30 142 C30 52 102 -15 226 -15 C309 -15 380 8 426 70 C467 17 533 -15 622 -15 L622 -15 Z M504 309 C517 362 548 400 614 400 C683 400 716 357 716 309 L504 309 Z M250 96 C207 96 179 113 179 150 C179 177 197 205 265 205 C316 205 351 197 351 197 L351 183 C351 139 315 96 250 96 L250 96 Z " />
<glyph glyph-name="ccedilla" unicode="&#xe7;" horiz-adv-x="545" d="M441 -123 C441 -77 407 -48 357 -40 L357 -10 C478 12 508 103 508 103 L508 170 L395 170 C395 170 383 116 300 116 C223 116 187 176 187 251 C187 327 223 390 300 390 C379 390 394 336 394 336 L507 336 L507 403 C507 403 471 521 300 521 C134 521 36 399 36 251 C36 124 102 16 236 -9 L236 -73 C267 -73 300 -80 300 -108 C300 -137 270 -144 232 -144 L232 -224 L317 -224 C373 -219 441 -200 441 -123 L441 -123 Z " />
<glyph glyph-name="egrave" unicode="&#xe8;" horiz-adv-x="583" d="M308 -15 C488 -15 537 85 537 85 L537 152 L419 152 C419 152 401 106 311 106 C237 106 197 150 188 218 L540 218 C540 218 547 247 547 282 C547 417 473 520 302 520 C132 520 36 399 36 251 C36 101 126 -15 308 -15 L308 -15 Z M191 309 C203 362 235 400 301 400 C369 400 402 357 402 309 L191 309 Z M230 600 L353 600 L353 660 L276 750 L133 750 L133 690 L230 600 Z " />
<glyph glyph-name="eacute" unicode="&#xe9;" horiz-adv-x="583" d="M308 -15 C488 -15 537 85 537 85 L537 152 L419 152 C419 152 401 106 311 106 C237 106 197 150 188 218 L540 218 C540 218 547 247 547 282 C547 417 473 520 302 520 C132 520 36 399 36 251 C36 101 126 -15 308 -15 L308 -15 Z M191 309 C203 362 235 400 301 400 C369 400 402 357 402 309 L191 309 Z M233 600 L356 600 L454 690 L454 750 L310 750 L233 660 L233 600 Z " />
<glyph glyph-name="ecircumflex" unicode="&#xea;" horiz-adv-x="583" d="M308 -15 C488 -15 537 85 537 85 L537 152 L419 152 C419 152 401 106 311 106 C237 106 197 150 188 218 L540 218 C540 218 547 247 547 282 C547 417 473 520 302 520 C132 520 36 399 36 251 C36 101 126 -15 308 -15 L308 -15 Z M191 309 C203 362 235 400 301 400 C369 400 402 357 402 309 L191 309 Z M363 600 L469 600 L469 660 L377 750 L227 750 L135 660 L135 600 L241 600 L302 673 L363 600 Z " />
<glyph glyph-name="edieresis" unicode="&#xeb;" horiz-adv-x="583" d="M308 -15 C488 -15 537 85 537 85 L537 152 L419 152 C419 152 401 106 311 106 C237 106 197 150 188 218 L540 218 C540 218 547 247 547 282 C547 417 473 520 302 520 C132 520 36 399 36 251 C36 101 126 -15 308 -15 L308 -15 Z M191 309 C203 362 235 400 301 400 C369 400 402 357 402 309 L191 309 Z M126 600 L271 600 L271 740 L126 740 L126 600 Z M331 600 L477 600 L477 740 L331 740 L331 600 Z " />
<glyph glyph-name="igrave" unicode="&#xec;" horiz-adv-x="277" d="M63 0 L213 0 L213 505 L63 505 L63 0 Z M89 600 L212 600 L212 660 L135 750 L-8 750 L-8 690 L89 600 Z " />
<glyph glyph-name="iacute" unicode="&#xed;" horiz-adv-x="277" d="M64 0 L214 0 L214 505 L64 505 L64 0 Z M64 600 L187 600 L285 690 L285 750 L141 750 L64 660 L64 600 Z " />
<glyph glyph-name="icircumflex" unicode="&#xee;" horiz-adv-x="276" d="M63 0 L213 0 L213 505 L63 505 L63 0 Z M199 600 L305 600 L305 660 L213 750 L63 750 L-29 660 L-29 600 L77 600 L138 673 L199 600 Z " />
<glyph glyph-name="idieresis" unicode="&#xef;" horiz-adv-x="276" d="M63 0 L213 0 L213 505 L63 505 L63 0 Z M-38 600 L107 600 L107 740 L-38 740 L-38 600 Z M167 600 L313 600 L313 740 L167 740 L167 600 Z " />
<glyph glyph-name="eth" unicode="&#xf0;" horiz-adv-x="613" d="M303 -15 C472 -15 569 99 569 298 C569 445 520 551 449 625 L512 652 L512 747 L371 689 C326 718 279 738 232 750 L118 750 L118 682 C161 672 201 656 238 634 L165 604 L165 509 L320 573 C352 541 378 505 396 464 C364 489 325 500 275 500 C127 500 36 388 36 244 C36 99 134 -15 303 -15 L303 -15 Z M303 116 C223 116 187 170 187 244 C187 315 223 369 303 369 C382 369 419 315 419 246 C419 175 382 116 303 116 L303 116 Z " />
<glyph glyph-name="ntilde" unicode="&#xf1;" horiz-adv-x="603" d="M64 0 L215 0 L215 284 C215 333 238 385 311 385 C371 385 394 345 394 286 L394 0 L544 0 L544 314 C544 424 497 520 363 520 C284 520 234 476 212 438 L205 505 L64 505 L64 0 Z M374 599 C449 599 479 655 474 736 L379 736 C375 713 360 707 345 707 C302 707 292 741 227 741 C155 741 116 685 121 604 L216 604 C221 623 233 634 251 634 C295 634 311 599 374 599 L374 599 Z " />
<glyph glyph-name="ograve" unicode="&#xf2;" horiz-adv-x="606" d="M303 -15 C470 -15 570 106 570 254 C570 401 470 520 303 520 C135 520 36 401 36 254 C36 106 135 -15 303 -15 L303 -15 Z M303 116 C224 116 187 178 187 254 C187 328 224 389 303 389 C382 389 419 328 419 254 C419 178 382 116 303 116 L303 116 Z M242 600 L365 600 L365 660 L288 750 L145 750 L145 690 L242 600 Z " />
<glyph glyph-name="oacute" unicode="&#xf3;" horiz-adv-x="606" d="M231 600 L354 600 L452 690 L452 750 L308 750 L231 660 L231 600 Z M303 -15 C470 -15 570 106 570 254 C570 401 470 520 303 520 C135 520 36 401 36 254 C36 106 135 -15 303 -15 L303 -15 Z M303 116 C224 116 187 178 187 254 C187 328 224 389 303 389 C382 389 419 328 419 254 C419 178 382 116 303 116 L303 116 Z " />
<glyph glyph-name="ocircumflex" unicode="&#xf4;" horiz-adv-x="606" d="M358 600 L464 600 L464 660 L372 750 L222 750 L130 660 L130 600 L236 600 L297 673 L358 600 Z M303 -15 C470 -15 570 106 570 254 C570 401 470 520 303 520 C135 520 36 401 36 254 C36 106 135 -15 303 -15 L303 -15 Z M303 116 C224 116 187 178 187 254 C187 328 224 389 303 389 C382 389 419 328 419 254 C419 178 382 116 303 116 L303 116 Z " />
<glyph glyph-name="otilde" unicode="&#xf5;" horiz-adv-x="606" d="M379 599 C454 599 484 655 479 736 L384 736 C380 713 365 707 350 707 C307 707 297 741 232 741 C160 741 121 685 126 604 L221 604 C226 623 238 634 256 634 C300 634 316 599 379 599 L379 599 Z M303 -15 C470 -15 570 106 570 254 C570 401 470 520 303 520 C135 520 36 401 36 254 C36 106 135 -15 303 -15 L303 -15 Z M303 116 C224 116 187 178 187 254 C187 328 224 389 303 389 C382 389 419 328 419 254 C419 178 382 116 303 116 L303 116 Z " />
<glyph glyph-name="odieresis" unicode="&#xf6;" horiz-adv-x="606" d="M129 600 L274 600 L274 740 L129 740 L129 600 Z M334 600 L480 600 L480 740 L334 740 L334 600 Z M303 -15 C470 -15 570 106 570 254 C570 401 470 520 303 520 C135 520 36 401 36 254 C36 106 135 -15 303 -15 L303 -15 Z M303 116 C224 116 187 178 187 254 C187 328 224 389 303 389 C382 389 419 328 419 254 C419 178 382 116 303 116 L303 116 Z " />
<glyph glyph-name="divide" unicode="&#xf7;" horiz-adv-x="577" d="M208 464 L369 464 L369 625 L208 625 L208 464 Z M41 268 L536 268 L536 391 L41 391 L41 268 Z M208 34 L369 34 L369 195 L208 195 L208 34 Z " />
<glyph glyph-name="oslash" unicode="&#xf8;" horiz-adv-x="606" d="M303 -15 C470 -15 570 106 570 254 C570 332 542 401 492 450 L566 560 L456 560 L415 499 C382 513 345 520 303 520 C135 520 36 401 36 254 C36 175 64 105 115 55 L38 -59 L148 -59 L192 6 C225 -8 262 -15 303 -15 L303 -15 Z M181 255 C181 330 222 394 303 394 C317 394 329 392 340 388 L197 178 C184 200 181 226 181 255 L181 255 Z M303 108 C288 108 276 110 265 114 L409 325 C420 306 425 281 425 255 C425 175 383 108 303 108 L303 108 Z " />
<glyph glyph-name="ugrave" unicode="&#xf9;" horiz-adv-x="599" d="M241 -15 C317 -15 365 29 387 67 L394 0 L535 0 L535 505 L384 505 L384 221 C384 172 361 120 290 120 C232 120 210 160 210 219 L210 505 L59 505 L59 191 C59 81 107 -15 241 -15 L241 -15 Z M233 600 L356 600 L356 660 L279 750 L136 750 L136 690 L233 600 Z " />
<glyph glyph-name="uacute" unicode="&#xfa;" horiz-adv-x="599" d="M241 -15 C317 -15 365 29 387 67 L394 0 L535 0 L535 505 L384 505 L384 221 C384 172 361 120 290 120 C232 120 210 160 210 219 L210 505 L59 505 L59 191 C59 81 107 -15 241 -15 L241 -15 Z M232 600 L355 600 L453 690 L453 750 L309 750 L232 660 L232 600 Z " />
<glyph glyph-name="ucircumflex" unicode="&#xfb;" horiz-adv-x="599" d="M356 600 L462 600 L462 660 L370 750 L220 750 L128 660 L128 600 L234 600 L295 673 L356 600 Z M241 -15 C317 -15 365 29 387 67 L394 0 L535 0 L535 505 L384 505 L384 221 C384 172 361 120 290 120 C232 120 210 160 210 219 L210 505 L59 505 L59 191 C59 81 107 -15 241 -15 L241 -15 Z " />
<glyph glyph-name="udieresis" unicode="&#xfc;" horiz-adv-x="599" d="M121 600 L266 600 L266 740 L121 740 L121 600 Z M326 600 L472 600 L472 740 L326 740 L326 600 Z M241 -15 C317 -15 365 29 387 67 L394 0 L535 0 L535 505 L384 505 L384 221 C384 172 361 120 290 120 C232 120 210 160 210 219 L210 505 L59 505 L59 191 C59 81 107 -15 241 -15 L241 -15 Z " />
<glyph glyph-name="yacute" unicode="&#xfd;" horiz-adv-x="556" d="M226 600 L349 600 L447 690 L447 750 L303 750 L226 660 L226 600 Z M204 -250 L544 438 L544 505 L419 505 L285 209 L156 505 L20 505 L20 435 L202 46 L76 -180 L76 -250 L204 -250 Z " />
<glyph glyph-name="thorn" unicode="&#xfe;" horiz-adv-x="642" d="M64 -250 L215 -250 L215 68 C250 16 307 -15 380 -15 C518 -15 605 103 605 254 C605 401 523 520 380 520 C306 520 246 486 213 433 L215 750 L64 750 L64 -250 Z M334 121 C262 121 215 179 215 254 C215 328 262 384 334 384 C413 384 454 327 454 254 C454 179 413 121 334 121 L334 121 Z " />
<glyph glyph-name="ydieresis" unicode="&#xff;" horiz-adv-x="556" d="M110 600 L255 600 L255 740 L110 740 L110 600 Z M315 600 L461 600 L461 740 L315 740 L315 600 Z M204 -250 L544 438 L544 505 L419 505 L285 209 L156 505 L20 505 L20 435 L202 46 L76 -180 L76 -250 L204 -250 Z " />
<glyph glyph-name="Amacron" unicode="&#x100;" horiz-adv-x="706" d="M146 0 L203 159 L489 159 L547 0 L691 0 L691 80 L437 750 L268 750 L13 70 L13 0 L146 0 Z M445 295 L249 295 L347 571 L445 295 Z M199 805 L505 805 L505 915 L199 915 L199 805 Z " />
<glyph glyph-name="amacron" unicode="&#x101;" horiz-adv-x="551" d="M197 -15 C277 -15 322 23 347 64 L357 0 L493 0 L493 306 C493 447 416 520 262 520 C102 520 59 416 59 416 L59 349 L173 349 C173 349 194 395 259 395 C316 395 342 366 342 311 L342 289 C342 289 300 299 248 299 C101 299 31 238 31 142 C31 56 86 -15 197 -15 L197 -15 Z M246 101 C205 101 180 117 180 156 C180 188 199 213 258 213 C307 213 342 205 342 205 L342 183 C342 147 311 101 246 101 L246 101 Z M142 610 L428 610 L428 726 L142 726 L142 610 Z " />
<glyph glyph-name="Abreve" unicode="&#x102;" horiz-adv-x="706" d="M146 0 L203 159 L489 159 L547 0 L691 0 L691 80 L437 750 L268 750 L13 70 L13 0 L146 0 Z M445 295 L249 295 L347 571 L445 295 Z M351 790 C477 790 500 858 500 858 L500 933 L420 933 C420 933 413 891 351 891 C290 891 278 933 278 933 L198 933 L198 858 C198 858 222 790 351 790 L351 790 Z " />
<glyph glyph-name="abreve" unicode="&#x103;" horiz-adv-x="551" d="M197 -15 C277 -15 322 23 347 64 L357 0 L493 0 L493 306 C493 447 416 520 262 520 C102 520 59 416 59 416 L59 349 L173 349 C173 349 194 395 259 395 C316 395 342 366 342 311 L342 289 C342 289 300 299 248 299 C101 299 31 238 31 142 C31 56 86 -15 197 -15 L197 -15 Z M246 101 C205 101 180 117 180 156 C180 188 199 213 258 213 C307 213 342 205 342 205 L342 183 C342 147 311 101 246 101 L246 101 Z M271 588 C392 588 420 660 420 660 L420 735 L340 735 C340 735 328 693 271 693 C215 693 198 735 198 735 L118 735 L118 660 C118 660 148 588 271 588 L271 588 Z " />
<glyph glyph-name="Aogonek" unicode="&#x104;" horiz-adv-x="706" d="M501 -91 C501 -169 575 -188 627 -192 L707 -192 L707 -107 C683 -107 634 -101 634 -54 C634 -15 666 -5 691 0 L691 80 L437 750 L268 750 L13 70 L13 0 L146 0 L203 159 L489 159 L547 0 L585 0 C534 -8 501 -44 501 -91 L501 -91 Z M445 295 L249 295 L347 571 L445 295 Z " />
<glyph glyph-name="aogonek" unicode="&#x105;" horiz-adv-x="551" d="M303 -91 C303 -169 377 -188 429 -192 L509 -192 L509 -107 C485 -107 436 -101 436 -54 C436 -15 468 -5 493 0 L493 306 C493 447 416 520 262 520 C102 520 59 416 59 416 L59 349 L173 349 C173 349 194 395 259 395 C316 395 342 366 342 311 L342 289 C342 289 300 299 248 299 C101 299 31 238 31 142 C31 56 86 -15 197 -15 C277 -15 322 23 347 64 L357 0 L387 0 C336 -8 303 -44 303 -91 L303 -91 Z M246 101 C205 101 180 117 180 156 C180 188 199 213 258 213 C307 213 342 205 342 205 L342 183 C342 147 311 101 246 101 L246 101 Z " />
<glyph glyph-name="Cacute" unicode="&#x106;" horiz-adv-x="729" d="M409 -15 C595 -15 683 86 699 146 L699 222 L568 222 C561 193 517 127 411 127 C287 127 208 225 208 376 C208 530 287 624 411 624 C519 624 557 562 563 533 L694 533 L694 609 C682 658 609 765 409 765 C188 765 42 610 42 375 C42 145 179 -15 409 -15 L409 -15 Z M341 805 L477 805 L569 885 L569 945 L413 945 L341 865 L341 805 Z " />
<glyph glyph-name="cacute" unicode="&#x107;" horiz-adv-x="545" d="M300 -15 C469 -15 508 103 508 103 L508 170 L395 170 C395 170 383 116 300 116 C223 116 187 176 187 251 C187 327 223 390 300 390 C379 390 394 336 394 336 L507 336 L507 403 C507 403 471 521 300 521 C134 521 36 399 36 251 C36 105 123 -15 300 -15 L300 -15 Z M225 600 L348 600 L446 690 L446 750 L302 750 L225 660 L225 600 Z " />
<glyph glyph-name="Ccircumflex" unicode="&#x108;" horiz-adv-x="729" d="M409 -15 C595 -15 683 86 699 146 L699 222 L568 222 C561 193 517 127 411 127 C287 127 208 225 208 376 C208 530 287 624 411 624 C519 624 557 562 563 533 L694 533 L694 609 C682 658 609 765 409 765 C188 765 42 610 42 375 C42 145 179 -15 409 -15 L409 -15 Z M461 800 L577 800 L577 860 L485 940 L325 940 L233 860 L233 800 L349 800 L405 858 L461 800 Z " />
<glyph glyph-name="ccircumflex" unicode="&#x109;" horiz-adv-x="545" d="M300 -15 C469 -15 508 103 508 103 L508 170 L395 170 C395 170 383 116 300 116 C223 116 187 176 187 251 C187 327 223 390 300 390 C379 390 394 336 394 336 L507 336 L507 403 C507 403 471 521 300 521 C134 521 36 399 36 251 C36 105 123 -15 300 -15 L300 -15 Z M355 600 L461 600 L461 660 L369 750 L219 750 L127 660 L127 600 L233 600 L294 673 L355 600 Z " />
<glyph glyph-name="Cdotaccent" unicode="&#x10a;" horiz-adv-x="729" d="M409 -15 C595 -15 683 86 699 146 L699 222 L568 222 C561 193 517 127 411 127 C287 127 208 225 208 376 C208 530 287 624 411 624 C519 624 557 562 563 533 L694 533 L694 609 C682 658 609 765 409 765 C188 765 42 610 42 375 C42 145 179 -15 409 -15 L409 -15 Z M324 810 L490 810 L490 945 L324 945 L324 810 Z " />
<glyph glyph-name="cdotaccent" unicode="&#x10b;" horiz-adv-x="545" d="M300 -15 C469 -15 508 103 508 103 L508 170 L395 170 C395 170 383 116 300 116 C223 116 187 176 187 251 C187 327 223 390 300 390 C379 390 394 336 394 336 L507 336 L507 403 C507 403 471 521 300 521 C134 521 36 399 36 251 C36 105 123 -15 300 -15 L300 -15 Z M214 600 L370 600 L370 740 L214 740 L214 600 Z " />
<glyph glyph-name="Ccaron" unicode="&#x10c;" horiz-adv-x="729" d="M409 -15 C595 -15 683 86 699 146 L699 222 L568 222 C561 193 517 127 411 127 C287 127 208 225 208 376 C208 530 287 624 411 624 C519 624 557 562 563 533 L694 533 L694 609 C682 658 609 765 409 765 C188 765 42 610 42 375 C42 145 179 -15 409 -15 L409 -15 Z M484 800 L574 880 L574 940 L458 940 L404 882 L346 940 L230 940 L230 880 L324 800 L484 800 Z " />
<glyph glyph-name="ccaron" unicode="&#x10d;" horiz-adv-x="545" d="M300 -15 C469 -15 508 103 508 103 L508 170 L395 170 C395 170 383 116 300 116 C223 116 187 176 187 251 C187 327 223 390 300 390 C379 390 394 336 394 336 L507 336 L507 403 C507 403 471 521 300 521 C134 521 36 399 36 251 C36 105 123 -15 300 -15 L300 -15 Z M367 600 L457 690 L457 750 L351 750 L292 677 L229 750 L123 750 L123 690 L217 600 L367 600 Z " />
<glyph glyph-name="Dcaron" unicode="&#x10e;" horiz-adv-x="760" d="M82 0 L345 0 C576 0 719 170 719 378 C719 583 576 750 345 750 L82 750 L82 0 Z M248 141 L248 609 L342 609 C473 609 548 505 548 378 C548 247 473 141 342 141 L248 141 Z M428 800 L518 880 L518 940 L402 940 L348 882 L290 940 L174 940 L174 880 L268 800 L428 800 Z " />
<glyph glyph-name="dcaron" unicode="&#x10f;" horiz-adv-x="653" d="M262 -15 C336 -15 396 19 429 72 L438 0 L578 0 L578 750 L428 750 L428 437 C392 489 338 520 265 520 C126 520 37 403 37 252 C37 105 120 -15 262 -15 L262 -15 Z M308 121 C230 121 188 179 188 252 C188 326 230 384 308 384 C380 384 428 327 428 253 C428 178 380 121 308 121 L308 121 Z M628 559 L724 559 L769 660 L769 750 L623 750 L628 559 Z " />
<glyph glyph-name="Dcroat" unicode="&#x110;" horiz-adv-x="773" d="M732 378 C732 583 589 750 358 750 L95 750 L95 441 L15 441 L15 315 L95 315 L95 0 L358 0 C589 0 732 170 732 378 L732 378 Z M261 141 L261 315 L350 315 L350 441 L261 441 L261 609 L355 609 C486 609 561 505 561 378 C561 247 486 141 355 141 L261 141 Z " />
<glyph glyph-name="dcroat" unicode="&#x111;" horiz-adv-x="641" d="M429 72 L438 0 L578 0 L578 570 L651 570 L651 678 L578 678 L578 750 L428 750 L428 678 L297 678 L297 570 L428 570 L428 437 C392 489 338 520 265 520 C126 520 37 403 37 252 C37 105 120 -15 262 -15 C336 -15 396 19 429 72 L429 72 Z M308 121 C230 121 188 179 188 252 C188 326 230 384 308 384 C380 384 428 327 428 253 C428 178 380 121 308 121 L308 121 Z " />
<glyph glyph-name="Emacron" unicode="&#x112;" horiz-adv-x="603" d="M82 0 L553 0 L553 141 L248 141 L248 320 L518 320 L518 450 L248 450 L248 609 L553 609 L553 750 L82 750 L82 0 Z M168 805 L474 805 L474 915 L168 915 L168 805 Z " />
<glyph glyph-name="emacron" unicode="&#x113;" horiz-adv-x="583" d="M308 -15 C488 -15 537 85 537 85 L537 152 L419 152 C419 152 401 106 311 106 C237 106 197 150 188 218 L540 218 C540 218 547 247 547 282 C547 417 473 520 302 520 C132 520 36 399 36 251 C36 101 126 -15 308 -15 L308 -15 Z M191 309 C203 362 235 400 301 400 C369 400 402 357 402 309 L191 309 Z M157 610 L443 610 L443 726 L157 726 L157 610 Z " />
<glyph glyph-name="Ebreve" unicode="&#x114;" horiz-adv-x="603" d="M82 0 L553 0 L553 141 L248 141 L248 320 L518 320 L518 450 L248 450 L248 609 L553 609 L553 750 L82 750 L82 0 Z M319 790 C445 790 468 858 468 858 L468 933 L388 933 C388 933 381 891 319 891 C258 891 246 933 246 933 L166 933 L166 858 C166 858 190 790 319 790 L319 790 Z " />
<glyph glyph-name="ebreve" unicode="&#x115;" horiz-adv-x="583" d="M308 -15 C488 -15 537 85 537 85 L537 152 L419 152 C419 152 401 106 311 106 C237 106 197 150 188 218 L540 218 C540 218 547 247 547 282 C547 417 473 520 302 520 C132 520 36 399 36 251 C36 101 126 -15 308 -15 L308 -15 Z M191 309 C203 362 235 400 301 400 C369 400 402 357 402 309 L191 309 Z M302 588 C423 588 451 660 451 660 L451 735 L371 735 C371 735 359 693 302 693 C246 693 229 735 229 735 L149 735 L149 660 C149 660 179 588 302 588 L302 588 Z " />
<glyph glyph-name="Edotaccent" unicode="&#x116;" horiz-adv-x="603" d="M82 0 L553 0 L553 141 L248 141 L248 320 L518 320 L518 450 L248 450 L248 609 L553 609 L553 750 L82 750 L82 0 Z M240 800 L406 800 L406 935 L240 935 L240 800 Z " />
<glyph glyph-name="edotaccent" unicode="&#x117;" horiz-adv-x="583" d="M308 -15 C488 -15 537 85 537 85 L537 152 L419 152 C419 152 401 106 311 106 C237 106 197 150 188 218 L540 218 C540 218 547 247 547 282 C547 417 473 520 302 520 C132 520 36 399 36 251 C36 101 126 -15 308 -15 L308 -15 Z M191 309 C203 362 235 400 301 400 C369 400 402 357 402 309 L191 309 Z M223 600 L379 600 L379 740 L223 740 L223 600 Z " />
<glyph glyph-name="Eogonek" unicode="&#x118;" horiz-adv-x="603" d="M364 -91 C364 -169 438 -188 490 -192 L570 -192 L570 -107 C546 -107 497 -101 497 -54 C497 -15 529 -5 554 0 L553 0 L553 141 L248 141 L248 320 L518 320 L518 450 L248 450 L248 609 L553 609 L553 750 L82 750 L82 0 L448 0 C397 -8 364 -44 364 -91 L364 -91 Z " />
<glyph glyph-name="eogonek" unicode="&#x119;" horiz-adv-x="583" d="M518 -117 C494 -117 445 -107 445 -62 C445 -21 466 11 496 40 C526 63 537 85 537 85 L537 152 L419 152 C419 152 401 106 311 106 C237 106 197 150 188 218 L540 218 C540 218 547 247 547 282 C547 417 473 520 302 520 C132 520 36 399 36 251 C36 101 126 -15 308 -15 C327 -15 345 -14 362 -12 C329 -31 312 -58 312 -91 C312 -169 385 -188 438 -192 L518 -192 L518 -117 Z M191 309 C203 362 235 400 301 400 C369 400 402 357 402 309 L191 309 Z " />
<glyph glyph-name="Ecaron" unicode="&#x11a;" horiz-adv-x="603" d="M82 0 L553 0 L553 141 L248 141 L248 320 L518 320 L518 450 L248 450 L248 609 L553 609 L553 750 L82 750 L82 0 Z M406 800 L496 880 L496 940 L380 940 L326 882 L268 940 L152 940 L152 880 L246 800 L406 800 Z " />
<glyph glyph-name="ecaron" unicode="&#x11b;" horiz-adv-x="583" d="M376 600 L466 690 L466 750 L360 750 L301 677 L238 750 L132 750 L132 690 L226 600 L376 600 Z M308 -15 C488 -15 537 85 537 85 L537 152 L419 152 C419 152 401 106 311 106 C237 106 197 150 188 218 L540 218 C540 218 547 247 547 282 C547 417 473 520 302 520 C132 520 36 399 36 251 C36 101 126 -15 308 -15 L308 -15 Z M191 309 C203 362 235 400 301 400 C369 400 402 357 402 309 L191 309 Z " />
<glyph glyph-name="Gcircumflex" unicode="&#x11c;" horiz-adv-x="770" d="M428 -15 C590 -15 692 53 714 86 L714 410 L404 410 L404 282 L559 282 L559 152 C528 138 487 127 430 127 C288 127 207 233 207 376 C207 518 287 624 425 624 C530 624 573 559 580 536 L710 536 L710 611 C699 669 612 765 424 765 C189 765 41 601 41 375 C41 146 186 -15 428 -15 L428 -15 Z M468 800 L584 800 L584 860 L492 940 L332 940 L240 860 L240 800 L356 800 L412 858 L468 800 Z " />
<glyph glyph-name="gcircumflex" unicode="&#x11d;" horiz-adv-x="642" d="M305 -260 C469 -260 579 -149 579 23 L579 505 L438 505 L430 434 C397 486 339 521 266 521 C125 521 37 402 37 254 C37 112 123 -5 262 -5 C336 -5 394 23 428 73 L428 19 C428 -67 388 -127 301 -127 C207 -127 186 -60 186 -60 L65 -60 L65 -127 C65 -127 111 -260 305 -260 L305 -260 Z M309 125 C231 125 188 183 188 256 C188 328 231 385 308 385 C380 385 428 329 428 256 C428 182 380 125 309 125 L309 125 Z M391 600 L497 600 L497 660 L405 750 L255 750 L163 660 L163 600 L269 600 L330 673 L391 600 Z " />
<glyph glyph-name="Gbreve" unicode="&#x11e;" horiz-adv-x="770" d="M428 -15 C590 -15 692 53 714 86 L714 410 L404 410 L404 282 L559 282 L559 152 C528 138 487 127 430 127 C288 127 207 233 207 376 C207 518 287 624 425 624 C530 624 573 559 580 536 L710 536 L710 611 C699 669 612 765 424 765 C189 765 41 601 41 375 C41 146 186 -15 428 -15 L428 -15 Z M419 790 C545 790 568 858 568 858 L568 933 L488 933 C488 933 481 891 419 891 C358 891 346 933 346 933 L266 933 L266 858 C266 858 290 790 419 790 L419 790 Z " />
<glyph glyph-name="gbreve" unicode="&#x11f;" horiz-adv-x="642" d="M305 -260 C469 -260 579 -149 579 23 L579 505 L438 505 L430 434 C397 486 339 521 266 521 C125 521 37 402 37 254 C37 112 123 -5 262 -5 C336 -5 394 23 428 73 L428 19 C428 -67 388 -127 301 -127 C207 -127 186 -60 186 -60 L65 -60 L65 -127 C65 -127 111 -260 305 -260 L305 -260 Z M309 125 C231 125 188 183 188 256 C188 328 231 385 308 385 C380 385 428 329 428 256 C428 182 380 125 309 125 L309 125 Z M326 588 C447 588 475 660 475 660 L475 735 L395 735 C395 735 383 693 326 693 C270 693 253 735 253 735 L173 735 L173 660 C173 660 203 588 326 588 L326 588 Z " />
<glyph glyph-name="Gdotaccent" unicode="&#x120;" horiz-adv-x="770" d="M428 -15 C590 -15 692 53 714 86 L714 410 L404 410 L404 282 L559 282 L559 152 C528 138 487 127 430 127 C288 127 207 233 207 376 C207 518 287 624 425 624 C530 624 573 559 580 536 L710 536 L710 611 C699 669 612 765 424 765 C189 765 41 601 41 375 C41 146 186 -15 428 -15 L428 -15 Z M335 800 L501 800 L501 935 L335 935 L335 800 Z " />
<glyph glyph-name="gdotaccent" unicode="&#x121;" horiz-adv-x="642" d="M305 -260 C469 -260 579 -149 579 23 L579 505 L438 505 L430 434 C397 486 339 521 266 521 C125 521 37 402 37 254 C37 112 123 -5 262 -5 C336 -5 394 23 428 73 L428 19 C428 -67 388 -127 301 -127 C207 -127 186 -60 186 -60 L65 -60 L65 -127 C65 -127 111 -260 305 -260 L305 -260 Z M309 125 C231 125 188 183 188 256 C188 328 231 385 308 385 C380 385 428 329 428 256 C428 182 380 125 309 125 L309 125 Z M255 600 L411 600 L411 740 L255 740 L255 600 Z " />
<glyph glyph-name="Gcommaaccent" unicode="&#x122;" horiz-adv-x="770" d="M428 -15 C590 -15 692 53 714 86 L714 410 L404 410 L404 282 L559 282 L559 152 C528 138 487 127 430 127 C288 127 207 233 207 376 C207 518 287 624 425 624 C530 624 573 559 580 536 L710 536 L710 611 C699 669 612 765 424 765 C189 765 41 601 41 375 C41 146 186 -15 428 -15 L428 -15 Z M361 -205 L457 -205 L512 -124 L512 -52 L356 -52 L361 -205 Z " />
<glyph glyph-name="gcommaaccent" unicode="&#x123;" horiz-adv-x="642" d="M305 -260 C469 -260 579 -149 579 23 L579 505 L438 505 L430 434 C397 486 339 521 266 521 C125 521 37 402 37 254 C37 112 123 -5 262 -5 C336 -5 394 23 428 73 L428 19 C428 -67 388 -127 301 -127 C207 -127 186 -60 186 -60 L65 -60 L65 -127 C65 -127 111 -260 305 -260 L305 -260 Z M309 125 C231 125 188 183 188 256 C188 328 231 385 308 385 C380 385 428 329 428 256 C428 182 380 125 309 125 L309 125 Z M399 763 L303 763 L248 682 L248 610 L404 610 L399 763 Z " />
<glyph glyph-name="Hcircumflex" unicode="&#x124;" horiz-adv-x="790" d="M82 0 L248 0 L248 315 L542 315 L542 0 L708 0 L708 750 L542 750 L542 455 L248 455 L248 750 L82 750 L82 0 Z M451 800 L567 800 L567 860 L475 940 L315 940 L223 860 L223 800 L339 800 L395 858 L451 800 Z " />
<glyph glyph-name="hcircumflex" unicode="&#x125;" horiz-adv-x="603" d="M64 0 L215 0 L215 284 C215 333 238 385 311 385 C371 385 394 345 394 286 L394 0 L544 0 L544 314 C544 424 497 520 363 520 C288 520 238 479 215 443 L215 750 L64 750 L64 0 Z M360 800 L476 800 L476 860 L384 940 L224 940 L132 860 L132 800 L248 800 L304 858 L360 800 Z " />
<glyph glyph-name="Hbar" unicode="&#x126;" horiz-adv-x="817" d="M262 315 L556 315 L556 0 L722 0 L722 542 L801 542 L801 657 L722 657 L722 750 L556 750 L556 657 L262 657 L262 750 L96 750 L96 657 L16 657 L16 542 L96 542 L96 0 L262 0 L262 315 Z M262 455 L262 542 L556 542 L556 455 L262 455 Z " />
<glyph glyph-name="hbar" unicode="&#x127;" horiz-adv-x="602" d="M214 284 C214 333 237 385 310 385 C370 385 393 345 393 286 L393 0 L543 0 L543 314 C543 424 496 520 362 520 C287 520 237 479 214 443 L214 570 L359 570 L359 678 L214 678 L214 750 L63 750 L63 678 L-10 678 L-10 570 L63 570 L63 0 L214 0 L214 284 Z " />
<glyph glyph-name="Itilde" unicode="&#x128;" horiz-adv-x="330" d="M242 792 C317 792 347 847 342 929 L242 929 C238 909 223 904 208 904 C171 904 151 934 95 934 C23 934 -16 878 -11 797 L89 797 C93 813 106 822 124 822 C162 822 187 792 242 792 L242 792 Z M83 0 L249 0 L249 750 L83 750 L83 0 Z " />
<glyph glyph-name="itilde" unicode="&#x129;" horiz-adv-x="276" d="M64 0 L214 0 L214 505 L64 505 L64 0 Z M216 599 C291 599 321 655 316 736 L221 736 C217 713 202 707 187 707 C144 707 134 741 69 741 C-3 741 -42 685 -37 604 L58 604 C63 623 75 634 93 634 C137 634 153 599 216 599 L216 599 Z " />
<glyph glyph-name="Imacron" unicode="&#x12a;" horiz-adv-x="330" d="M12 805 L318 805 L318 915 L12 915 L12 805 Z M82 0 L248 0 L248 750 L82 750 L82 0 Z " />
<glyph glyph-name="imacron" unicode="&#x12b;" horiz-adv-x="276" d="M63 0 L213 0 L213 505 L63 505 L63 0 Z M-5 610 L281 610 L281 726 L-5 726 L-5 610 Z " />
<glyph glyph-name="Ibreve" unicode="&#x12c;" horiz-adv-x="330" d="M166 790 C292 790 315 858 315 858 L315 933 L235 933 C235 933 228 891 166 891 C105 891 93 933 93 933 L13 933 L13 858 C13 858 37 790 166 790 L166 790 Z M82 0 L248 0 L248 750 L82 750 L82 0 Z " />
<glyph glyph-name="ibreve" unicode="&#x12d;" horiz-adv-x="276" d="M63 0 L213 0 L213 505 L63 505 L63 0 Z M140 588 C261 588 289 660 289 660 L289 735 L209 735 C209 735 197 693 140 693 C84 693 67 735 67 735 L-13 735 L-13 660 C-13 660 17 588 140 588 L140 588 Z " />
<glyph glyph-name="Iogonek" unicode="&#x12e;" horiz-adv-x="330" d="M58 -91 C58 -169 132 -188 184 -192 L264 -192 L264 -107 C240 -107 191 -101 191 -54 C191 -15 223 -5 248 0 L248 750 L82 750 L82 0 L142 0 C91 -8 58 -44 58 -91 L58 -91 Z " />
<glyph glyph-name="iogonek" unicode="&#x12f;" horiz-adv-x="278" d="M60 600 L216 600 L216 740 L60 740 L60 600 Z M19 -91 C19 -169 93 -188 145 -192 L225 -192 L225 -107 C201 -107 152 -101 152 -54 C152 -15 184 -5 209 0 L214 0 L214 505 L64 505 L64 0 L103 0 C52 -8 19 -44 19 -91 L19 -91 Z " />
<glyph glyph-name="Idotaccent" unicode="&#x130;" horiz-adv-x="330" d="M82 800 L248 800 L248 935 L82 935 L82 800 Z M82 0 L248 0 L248 750 L82 750 L82 0 Z " />
<glyph glyph-name="dotlessi" unicode="&#x131;" horiz-adv-x="278" d="M64 0 L214 0 L214 505 L64 505 L64 0 Z " />
<glyph glyph-name="IJ" unicode="&#x132;" horiz-adv-x="796" d="M82 0 L248 0 L248 750 L82 750 L82 0 Z M501 -15 C645 -15 720 66 720 229 L720 750 L555 750 L555 223 C555 145 532 126 490 126 C443 126 428 163 428 188 L298 188 L298 113 C305 71 354 -15 501 -15 L501 -15 Z " />
<glyph glyph-name="ij" unicode="&#x133;" horiz-adv-x="542" d="M64 0 L214 0 L214 505 L64 505 L64 0 Z M60 600 L216 600 L216 740 L60 740 L60 600 Z M287 -260 C414 -260 478 -183 478 -64 L478 505 L328 505 L328 -63 C328 -112 318 -132 284 -132 C251 -132 243 -106 243 -96 L130 -96 L130 -168 C148 -220 198 -260 287 -260 L287 -260 Z M325 600 L481 600 L481 740 L325 740 L325 600 Z " />
<glyph glyph-name="Jcircumflex" unicode="&#x134;" horiz-adv-x="519" d="M224 -15 C368 -15 443 66 443 229 L443 750 L278 750 L278 223 C278 145 255 126 213 126 C166 126 151 163 151 188 L21 188 L21 113 C28 71 77 -15 224 -15 L224 -15 Z M415 800 L531 800 L531 860 L439 940 L279 940 L187 860 L187 800 L303 800 L359 858 L415 800 Z " />
<glyph glyph-name="jcircumflex" unicode="&#x135;" horiz-adv-x="276" d="M22 -260 C149 -260 213 -183 213 -64 L213 505 L63 505 L63 -63 C63 -112 53 -132 19 -132 C-14 -132 -22 -106 -22 -96 L-135 -96 L-135 -168 C-117 -220 -67 -260 22 -260 L22 -260 Z M199 600 L305 600 L305 660 L213 750 L63 750 L-29 660 L-29 600 L77 600 L138 673 L199 600 Z " />
<glyph glyph-name="Kcommaaccent" unicode="&#x136;" horiz-adv-x="694" d="M307 -205 L403 -205 L458 -124 L458 -52 L302 -52 L307 -205 Z M248 326 L532 0 L678 0 L678 78 L405 390 L650 675 L650 750 L519 750 L248 428 L248 750 L82 750 L82 0 L248 0 L248 326 Z " />
<glyph glyph-name="kcommaaccent" unicode="&#x137;" horiz-adv-x="555" d="M64 0 L215 0 L215 218 L393 0 L534 0 L534 70 L367 264 L514 438 L514 505 L385 505 L215 300 L215 750 L64 750 L64 0 Z M225 -205 L321 -205 L376 -124 L376 -52 L220 -52 L225 -205 Z " />
<glyph glyph-name="Lacute" unicode="&#x139;" horiz-adv-x="569" d="M82 0 L548 0 L548 141 L248 141 L248 750 L82 750 L82 0 Z M86 805 L222 805 L314 885 L314 945 L158 945 L86 865 L86 805 Z " />
<glyph glyph-name="lacute" unicode="&#x13a;" horiz-adv-x="279" d="M64 0 L215 0 L215 750 L64 750 L64 0 Z M61 805 L191 805 L278 885 L278 945 L129 945 L61 865 L61 805 Z " />
<glyph glyph-name="Lcommaaccent" unicode="&#x13b;" horiz-adv-x="569" d="M82 0 L548 0 L548 141 L248 141 L248 750 L82 750 L82 0 Z M260 -205 L356 -205 L411 -124 L411 -52 L255 -52 L260 -205 Z " />
<glyph glyph-name="lcommaaccent" unicode="&#x13c;" horiz-adv-x="279" d="M64 0 L215 0 L215 750 L64 750 L64 0 Z M66 -205 L158 -205 L211 -124 L211 -52 L61 -52 L66 -205 Z " />
<glyph glyph-name="Lcaron" unicode="&#x13d;" horiz-adv-x="581" d="M82 0 L548 0 L548 141 L248 141 L248 750 L82 750 L82 0 Z M398 559 L494 559 L539 660 L539 750 L393 750 L398 559 Z " />
<glyph glyph-name="lcaron" unicode="&#x13e;" horiz-adv-x="290" d="M64 0 L215 0 L215 750 L64 750 L64 0 Z M259 559 L355 559 L400 660 L400 750 L254 750 L259 559 Z " />
<glyph glyph-name="Ldot" unicode="&#x13f;" horiz-adv-x="578" d="M375 316 L530 316 L530 469 L375 469 L375 316 Z M82 0 L548 0 L548 141 L248 141 L248 750 L82 750 L82 0 Z " />
<glyph glyph-name="ldot" unicode="&#x140;" horiz-adv-x="440" d="M64 0 L215 0 L215 750 L64 750 L64 0 Z M283 258 L438 258 L438 411 L283 411 L283 258 Z " />
<glyph glyph-name="Lslash" unicode="&#x141;" horiz-adv-x="591" d="M570 141 L270 141 L270 320 L375 364 L375 505 L270 461 L270 750 L104 750 L104 392 L24 358 L24 217 L104 251 L104 0 L570 0 L570 141 Z " />
<glyph glyph-name="lslash" unicode="&#x142;" horiz-adv-x="375" d="M335 338 L335 469 L260 433 L260 750 L109 750 L109 360 L34 324 L34 193 L109 229 L109 0 L260 0 L260 302 L335 338 Z " />
<glyph glyph-name="Nacute" unicode="&#x143;" horiz-adv-x="795" d="M82 0 L238 0 L238 469 L557 0 L713 0 L713 750 L557 750 L557 273 L238 750 L82 750 L82 0 Z M325 805 L461 805 L553 885 L553 945 L397 945 L325 865 L325 805 Z " />
<glyph glyph-name="nacute" unicode="&#x144;" horiz-adv-x="603" d="M64 0 L215 0 L215 284 C215 333 238 385 311 385 C371 385 394 345 394 286 L394 0 L544 0 L544 314 C544 424 497 520 363 520 C284 520 234 476 212 438 L205 505 L64 505 L64 0 Z M216 600 L339 600 L437 690 L437 750 L293 750 L216 660 L216 600 Z " />
<glyph glyph-name="Ncommaaccent" unicode="&#x145;" horiz-adv-x="795" d="M82 0 L238 0 L238 469 L557 0 L713 0 L713 750 L557 750 L557 273 L238 750 L82 750 L82 0 Z M317 -205 L413 -205 L468 -124 L468 -52 L312 -52 L317 -205 Z " />
<glyph glyph-name="ncommaaccent" unicode="&#x146;" horiz-adv-x="603" d="M64 0 L215 0 L215 284 C215 333 238 385 311 385 C371 385 394 345 394 286 L394 0 L544 0 L544 314 C544 424 497 520 363 520 C284 520 234 476 212 438 L205 505 L64 505 L64 0 Z M229 -205 L325 -205 L380 -124 L380 -52 L224 -52 L229 -205 Z " />
<glyph glyph-name="Ncaron" unicode="&#x147;" horiz-adv-x="795" d="M82 0 L238 0 L238 469 L557 0 L713 0 L713 750 L557 750 L557 273 L238 750 L82 750 L82 0 Z M475 800 L565 880 L565 940 L449 940 L395 882 L337 940 L221 940 L221 880 L315 800 L475 800 Z " />
<glyph glyph-name="ncaron" unicode="&#x148;" horiz-adv-x="603" d="M64 0 L215 0 L215 284 C215 333 238 385 311 385 C371 385 394 345 394 286 L394 0 L544 0 L544 314 C544 424 497 520 363 520 C284 520 234 476 212 438 L205 505 L64 505 L64 0 Z M362 600 L452 690 L452 750 L346 750 L287 677 L224 750 L118 750 L118 690 L212 600 L362 600 Z " />
<glyph glyph-name="napostrophe" unicode="&#x149;" horiz-adv-x="601" d="M60 559 L156 559 L201 660 L201 750 L55 750 L60 559 Z M63 0 L214 0 L214 284 C214 333 237 385 310 385 C370 385 393 345 393 286 L393 0 L543 0 L543 314 C543 424 496 520 362 520 C283 520 233 476 211 438 L204 505 L63 505 L63 0 Z " />
<glyph glyph-name="Eng" unicode="&#x14a;" horiz-adv-x="795" d="M557 750 L557 273 L238 750 L82 750 L82 0 L238 0 L238 469 L557 0 L557 -64 C557 -102 546 -121 516 -121 C480 -121 468 -91 468 -81 L337 -81 L337 -151 C350 -193 405 -260 517 -260 C650 -260 713 -184 713 -36 L713 750 L557 750 Z " />
<glyph glyph-name="eng" unicode="&#x14b;" horiz-adv-x="603" d="M363 520 C284 520 234 476 212 438 L205 505 L64 505 L64 0 L215 0 L215 284 C215 333 238 385 311 385 C371 385 394 345 394 286 L394 -33 C394 -103 376 -132 315 -132 L315 -260 C480 -260 544 -172 544 -34 L544 314 C544 424 497 520 363 520 L363 520 Z " />
<glyph glyph-name="Omacron" unicode="&#x14c;" horiz-adv-x="826" d="M413 -15 C636 -15 785 147 785 378 C785 606 636 765 413 765 C190 765 41 606 41 378 C41 147 190 -15 413 -15 L413 -15 Z M413 126 C287 126 207 228 207 378 C207 524 287 624 413 624 C539 624 619 524 619 378 C619 228 539 126 413 126 L413 126 Z M257 805 L563 805 L563 915 L257 915 L257 805 Z " />
<glyph glyph-name="omacron" unicode="&#x14d;" horiz-adv-x="606" d="M303 -15 C470 -15 570 106 570 254 C570 401 470 520 303 520 C135 520 36 401 36 254 C36 106 135 -15 303 -15 L303 -15 Z M303 116 C224 116 187 178 187 254 C187 328 224 389 303 389 C382 389 419 328 419 254 C419 178 382 116 303 116 L303 116 Z M163 610 L449 610 L449 726 L163 726 L163 610 Z " />
<glyph glyph-name="Obreve" unicode="&#x14e;" horiz-adv-x="826" d="M413 -15 C636 -15 785 147 785 378 C785 606 636 765 413 765 C190 765 41 606 41 378 C41 147 190 -15 413 -15 L413 -15 Z M413 126 C287 126 207 228 207 378 C207 524 287 624 413 624 C539 624 619 524 619 378 C619 228 539 126 413 126 L413 126 Z M411 790 C537 790 560 858 560 858 L560 933 L480 933 C480 933 473 891 411 891 C350 891 338 933 338 933 L258 933 L258 858 C258 858 282 790 411 790 L411 790 Z " />
<glyph glyph-name="obreve" unicode="&#x14f;" horiz-adv-x="606" d="M303 -15 C470 -15 570 106 570 254 C570 401 470 520 303 520 C135 520 36 401 36 254 C36 106 135 -15 303 -15 L303 -15 Z M303 116 C224 116 187 178 187 254 C187 328 224 389 303 389 C382 389 419 328 419 254 C419 178 382 116 303 116 L303 116 Z M301 588 C422 588 450 660 450 660 L450 735 L370 735 C370 735 358 693 301 693 C245 693 228 735 228 735 L148 735 L148 660 C148 660 178 588 301 588 L301 588 Z " />
<glyph glyph-name="Ohungarumlaut" unicode="&#x150;" horiz-adv-x="826" d="M413 -15 C636 -15 785 147 785 378 C785 606 636 765 413 765 C190 765 41 606 41 378 C41 147 190 -15 413 -15 L413 -15 Z M413 126 C287 126 207 228 207 378 C207 524 287 624 413 624 C539 624 619 524 619 378 C619 228 539 126 413 126 L413 126 Z M247 803 L367 803 L429 883 L443 943 L302 943 L247 863 L247 803 Z M444 803 L565 803 L657 883 L657 943 L516 943 L444 863 L444 803 Z " />
<glyph glyph-name="ohungarumlaut" unicode="&#x151;" horiz-adv-x="606" d="M150 600 L265 600 L328 685 L341 750 L205 750 L150 660 L150 600 Z M342 600 L453 600 L545 690 L545 750 L414 750 L342 660 L342 600 Z M303 -15 C470 -15 570 106 570 254 C570 401 470 520 303 520 C135 520 36 401 36 254 C36 106 135 -15 303 -15 L303 -15 Z M303 116 C224 116 187 178 187 254 C187 328 224 389 303 389 C382 389 419 328 419 254 C419 178 382 116 303 116 L303 116 Z " />
<glyph glyph-name="OE" unicode="&#x152;" horiz-adv-x="1031" d="M981 0 L981 141 L676 141 L676 320 L946 320 L946 450 L676 450 L676 609 L981 609 L981 750 L520 750 C487 758 451 760 413 760 C190 760 41 598 41 376 C41 155 190 -10 413 -10 C451 -10 487 -8 520 0 L981 0 Z M202 376 C202 519 284 619 413 619 C448 619 481 617 510 608 L510 145 C481 134 448 131 413 131 C284 131 202 233 202 376 L202 376 Z " />
<glyph glyph-name="oe" unicode="&#x153;" horiz-adv-x="966" d="M691 -15 C872 -15 921 85 921 85 L921 152 L802 152 C802 152 784 106 694 106 C620 106 580 150 571 218 L923 218 C923 218 930 247 930 282 C930 417 856 520 685 520 C600 520 535 486 492 432 C450 486 385 520 303 520 C135 520 36 401 36 254 C36 106 135 -15 303 -15 C384 -15 448 18 490 71 C532 18 600 -15 691 -15 L691 -15 Z M574 309 C586 362 618 400 684 400 C752 400 785 357 785 309 L574 309 Z M303 116 C224 116 187 178 187 254 C187 328 224 389 303 389 C382 389 419 328 419 254 C419 178 382 116 303 116 L303 116 Z " />
<glyph glyph-name="Racute" unicode="&#x154;" horiz-adv-x="682" d="M248 0 L248 264 L315 264 L507 0 L650 0 L650 78 L477 305 C562 345 612 419 612 511 C612 657 502 750 328 750 L82 750 L82 0 L248 0 Z M245 398 L245 609 L327 609 C403 609 446 567 446 509 C446 442 401 398 327 398 L245 398 Z M238 805 L374 805 L466 885 L466 945 L310 945 L238 865 L238 805 Z " />
<glyph glyph-name="racute" unicode="&#x155;" horiz-adv-x="481" d="M64 0 L215 0 L215 282 C215 344 239 390 293 390 C352 390 358 341 359 341 L474 341 L474 413 C466 476 425 520 347 520 C279 520 234 481 212 439 L205 505 L64 505 L64 0 Z M206 600 L329 600 L427 690 L427 750 L283 750 L206 660 L206 600 Z " />
<glyph glyph-name="Rcommaaccent" unicode="&#x156;" horiz-adv-x="682" d="M248 0 L248 264 L315 264 L507 0 L650 0 L650 78 L477 305 C562 345 612 419 612 511 C612 657 502 750 328 750 L82 750 L82 0 L248 0 Z M245 398 L245 609 L327 609 C403 609 446 567 446 509 C446 442 401 398 327 398 L245 398 Z M303 -205 L399 -205 L454 -124 L454 -52 L298 -52 L303 -205 Z " />
<glyph glyph-name="rcommaaccent" unicode="&#x157;" horiz-adv-x="481" d="M64 0 L215 0 L215 282 C215 344 239 390 293 390 C352 390 358 341 359 341 L474 341 L474 413 C466 476 425 520 347 520 C279 520 234 481 212 439 L205 505 L64 505 L64 0 Z M71 -205 L163 -205 L216 -124 L216 -52 L66 -52 L71 -205 Z " />
<glyph glyph-name="Rcaron" unicode="&#x158;" horiz-adv-x="682" d="M248 0 L248 264 L315 264 L507 0 L650 0 L650 78 L477 305 C562 345 612 419 612 511 C612 657 502 750 328 750 L82 750 L82 0 L248 0 Z M245 398 L245 609 L327 609 C403 609 446 567 446 509 C446 442 401 398 327 398 L245 398 Z M403 800 L493 880 L493 940 L377 940 L323 882 L265 940 L149 940 L149 880 L243 800 L403 800 Z " />
<glyph glyph-name="rcaron" unicode="&#x159;" horiz-adv-x="481" d="M64 0 L215 0 L215 282 C215 344 239 390 293 390 C352 390 358 341 359 341 L474 341 L474 413 C466 476 425 520 347 520 C279 520 234 481 212 439 L205 505 L64 505 L64 0 Z M334 600 L424 690 L424 750 L318 750 L259 677 L196 750 L90 750 L90 690 L184 600 L334 600 Z " />
<glyph glyph-name="Sacute" unicode="&#x15a;" horiz-adv-x="646" d="M324 -15 C491 -15 605 75 605 218 C605 343 522 418 385 446 L313 462 C241 478 213 505 213 546 C213 596 251 629 321 629 C399 629 436 591 449 540 L579 540 L579 616 C558 708 463 765 325 765 C160 765 52 681 52 537 C52 416 128 343 265 316 L334 303 C410 286 444 258 444 209 C444 153 397 121 327 121 C247 121 199 156 179 212 L48 212 L48 137 C80 54 169 -15 324 -15 L324 -15 Z M251 805 L387 805 L479 885 L479 945 L323 945 L251 865 L251 805 Z " />
<glyph glyph-name="sacute" unicode="&#x15b;" horiz-adv-x="508" d="M258 -15 C394 -15 473 56 473 156 C473 253 406 290 309 304 L245 313 C204 320 181 335 181 362 C181 390 201 410 249 410 C311 410 335 367 337 356 L451 356 L451 424 C429 476 368 520 252 520 C124 520 46 451 46 354 C46 260 106 215 197 203 L261 195 C309 187 338 175 338 143 C338 115 318 95 260 95 C190 95 156 138 152 153 L39 153 L39 85 C51 52 120 -15 258 -15 L258 -15 Z M182 600 L305 600 L403 690 L403 750 L259 750 L182 660 L182 600 Z " />
<glyph glyph-name="Scircumflex" unicode="&#x15c;" horiz-adv-x="646" d="M324 -15 C491 -15 605 75 605 218 C605 343 522 418 385 446 L313 462 C241 478 213 505 213 546 C213 596 251 629 321 629 C399 629 436 591 449 540 L579 540 L579 616 C558 708 463 765 325 765 C160 765 52 681 52 537 C52 416 128 343 265 316 L334 303 C410 286 444 258 444 209 C444 153 397 121 327 121 C247 121 199 156 179 212 L48 212 L48 137 C80 54 169 -15 324 -15 L324 -15 Z M379 800 L495 800 L495 860 L403 940 L243 940 L151 860 L151 800 L267 800 L323 858 L379 800 Z " />
<glyph glyph-name="scircumflex" unicode="&#x15d;" horiz-adv-x="508" d="M258 -15 C394 -15 473 56 473 156 C473 253 406 290 309 304 L245 313 C204 320 181 335 181 362 C181 390 201 410 249 410 C311 410 335 367 337 356 L451 356 L451 424 C429 476 368 520 252 520 C124 520 46 451 46 354 C46 260 106 215 197 203 L261 195 C309 187 338 175 338 143 C338 115 318 95 260 95 C190 95 156 138 152 153 L39 153 L39 85 C51 52 120 -15 258 -15 L258 -15 Z M319 600 L425 600 L425 660 L333 750 L183 750 L91 660 L91 600 L197 600 L258 673 L319 600 Z " />
<glyph glyph-name="Scedilla" unicode="&#x15e;" horiz-adv-x="646" d="M462 -123 C462 -77 428 -48 378 -40 L378 -12 C515 6 605 91 605 218 C605 343 522 418 385 446 L313 462 C241 478 213 505 213 546 C213 596 251 629 321 629 C399 629 436 591 449 540 L579 540 L579 616 C558 708 463 765 325 765 C160 765 52 681 52 537 C52 416 128 343 265 316 L334 303 C410 286 444 258 444 209 C444 153 397 121 327 121 C247 121 199 156 179 212 L48 212 L48 137 C75 67 143 7 257 -10 L257 -73 C288 -73 321 -80 321 -108 C321 -137 291 -144 253 -144 L253 -224 L338 -224 C394 -219 462 -200 462 -123 L462 -123 Z " />
<glyph glyph-name="scedilla" unicode="&#x15f;" horiz-adv-x="508" d="M398 -122 C398 -76 364 -47 314 -39 L314 -11 C415 6 473 71 473 156 C473 253 406 290 309 304 L245 313 C204 320 181 335 181 362 C181 390 201 410 249 410 C311 410 335 367 337 356 L451 356 L451 424 C429 476 368 520 252 520 C124 520 46 451 46 354 C46 260 106 215 197 203 L261 195 C309 187 338 175 338 143 C338 115 318 95 260 95 C190 95 156 138 152 153 L39 153 L39 85 C49 58 98 7 193 -10 L193 -72 C224 -72 257 -79 257 -107 C257 -136 227 -143 189 -143 L189 -223 L274 -223 C330 -218 398 -199 398 -122 L398 -122 Z " />
<glyph glyph-name="Scaron" unicode="&#x160;" horiz-adv-x="646" d="M324 -15 C491 -15 605 75 605 218 C605 343 522 418 385 446 L313 462 C241 478 213 505 213 546 C213 596 251 629 321 629 C399 629 436 591 449 540 L579 540 L579 616 C558 708 463 765 325 765 C160 765 52 681 52 537 C52 416 128 343 265 316 L334 303 C410 286 444 258 444 209 C444 153 397 121 327 121 C247 121 199 156 179 212 L48 212 L48 137 C80 54 169 -15 324 -15 L324 -15 Z M408 800 L498 880 L498 940 L382 940 L328 882 L270 940 L154 940 L154 880 L248 800 L408 800 Z " />
<glyph glyph-name="scaron" unicode="&#x161;" horiz-adv-x="508" d="M258 -15 C394 -15 473 56 473 156 C473 253 406 290 309 304 L245 313 C204 320 181 335 181 362 C181 390 201 410 249 410 C311 410 335 367 337 356 L451 356 L451 424 C429 476 368 520 252 520 C124 520 46 451 46 354 C46 260 106 215 197 203 L261 195 C309 187 338 175 338 143 C338 115 318 95 260 95 C190 95 156 138 152 153 L39 153 L39 85 C51 52 120 -15 258 -15 L258 -15 Z M330 600 L420 690 L420 750 L314 750 L255 677 L192 750 L86 750 L86 690 L180 600 L330 600 Z " />
<glyph glyph-name="Tcommaaccent" unicode="&#x162;" horiz-adv-x="635" d="M234 0 L400 0 L400 609 L615 609 L615 750 L20 750 L20 609 L234 609 L234 0 Z M246 -205 L342 -205 L397 -124 L397 -52 L241 -52 L246 -205 Z " />
<glyph glyph-name="tcommaaccent" unicode="&#x163;" horiz-adv-x="475" d="M219 -205 L315 -205 L370 -124 L370 -52 L214 -52 L219 -205 Z M292 -15 C387 -15 439 28 460 81 L460 149 L352 149 C352 138 344 110 304 110 C265 110 248 133 248 184 L248 382 L448 382 L448 505 L248 505 L248 633 L107 633 L99 505 L22 505 L22 382 L97 382 L97 179 C97 58 168 -15 292 -15 L292 -15 Z " />
<glyph glyph-name="Tcaron" unicode="&#x164;" horiz-adv-x="635" d="M234 0 L400 0 L400 609 L615 609 L615 750 L20 750 L20 609 L234 609 L234 0 Z M399 800 L489 880 L489 940 L373 940 L319 882 L261 940 L145 940 L145 880 L239 800 L399 800 Z " />
<glyph glyph-name="tcaron" unicode="&#x165;" horiz-adv-x="475" d="M333 559 L429 559 L474 660 L474 750 L328 750 L333 559 Z M292 -15 C387 -15 439 28 460 81 L460 149 L352 149 C352 138 344 110 304 110 C265 110 248 133 248 184 L248 382 L448 382 L448 505 L248 505 L248 633 L107 633 L99 505 L22 505 L22 382 L97 382 L97 179 C97 58 168 -15 292 -15 L292 -15 Z " />
<glyph glyph-name="Tbar" unicode="&#x166;" horiz-adv-x="655" d="M559 303 L559 429 L410 429 L410 609 L625 609 L625 750 L30 750 L30 609 L244 609 L244 429 L95 429 L95 303 L244 303 L244 0 L410 0 L410 303 L559 303 Z " />
<glyph glyph-name="tbar" unicode="&#x167;" horiz-adv-x="478" d="M462 81 L462 149 L354 149 C354 138 346 110 306 110 C267 110 250 133 250 184 L250 228 L450 228 L450 320 L250 320 L250 382 L450 382 L450 505 L250 505 L250 633 L109 633 L101 505 L24 505 L24 382 L99 382 L99 320 L24 320 L24 228 L99 228 L99 179 C99 58 170 -15 294 -15 C389 -15 441 28 462 81 L462 81 Z " />
<glyph glyph-name="Utilde" unicode="&#x168;" horiz-adv-x="759" d="M383 -15 C565 -15 685 115 685 275 L685 750 L529 750 L529 274 C529 192 476 126 382 126 C292 126 240 192 240 274 L240 750 L74 750 L74 275 C74 115 194 -15 383 -15 L383 -15 Z M460 792 C535 792 565 847 560 929 L460 929 C456 909 441 904 426 904 C389 904 369 934 313 934 C241 934 202 878 207 797 L307 797 C311 813 324 822 342 822 C380 822 405 792 460 792 L460 792 Z " />
<glyph glyph-name="utilde" unicode="&#x169;" horiz-adv-x="599" d="M241 -15 C317 -15 365 29 387 67 L394 0 L535 0 L535 505 L384 505 L384 221 C384 172 361 120 290 120 C232 120 210 160 210 219 L210 505 L59 505 L59 191 C59 81 107 -15 241 -15 L241 -15 Z M377 599 C452 599 482 655 477 736 L382 736 C378 713 363 707 348 707 C305 707 295 741 230 741 C158 741 119 685 124 604 L219 604 C224 623 236 634 254 634 C298 634 314 599 377 599 L377 599 Z " />
<glyph glyph-name="Umacron" unicode="&#x16a;" horiz-adv-x="759" d="M383 -15 C565 -15 685 115 685 275 L685 750 L529 750 L529 274 C529 192 476 126 382 126 C292 126 240 192 240 274 L240 750 L74 750 L74 275 C74 115 194 -15 383 -15 L383 -15 Z M232 805 L538 805 L538 915 L232 915 L232 805 Z " />
<glyph glyph-name="umacron" unicode="&#x16b;" horiz-adv-x="599" d="M241 -15 C317 -15 365 29 387 67 L394 0 L535 0 L535 505 L384 505 L384 221 C384 172 361 120 290 120 C232 120 210 160 210 219 L210 505 L59 505 L59 191 C59 81 107 -15 241 -15 L241 -15 Z M154 610 L440 610 L440 726 L154 726 L154 610 Z " />
<glyph glyph-name="Ubreve" unicode="&#x16c;" horiz-adv-x="759" d="M383 -15 C565 -15 685 115 685 275 L685 750 L529 750 L529 274 C529 192 476 126 382 126 C292 126 240 192 240 274 L240 750 L74 750 L74 275 C74 115 194 -15 383 -15 L383 -15 Z M384 790 C510 790 533 858 533 858 L533 933 L453 933 C453 933 446 891 384 891 C323 891 311 933 311 933 L231 933 L231 858 C231 858 255 790 384 790 L384 790 Z " />
<glyph glyph-name="ubreve" unicode="&#x16d;" horiz-adv-x="599" d="M241 -15 C317 -15 365 29 387 67 L394 0 L535 0 L535 505 L384 505 L384 221 C384 172 361 120 290 120 C232 120 210 160 210 219 L210 505 L59 505 L59 191 C59 81 107 -15 241 -15 L241 -15 Z M296 588 C417 588 445 660 445 660 L445 735 L365 735 C365 735 353 693 296 693 C240 693 223 735 223 735 L143 735 L143 660 C143 660 173 588 296 588 L296 588 Z " />
<glyph glyph-name="Uring" unicode="&#x16e;" horiz-adv-x="759" d="M382 783 C477 783 521 822 521 876 C521 929 477 969 382 969 C288 969 244 929 244 876 C244 822 288 783 382 783 L382 783 Z M382 849 C361 849 342 859 342 876 C342 893 361 903 382 903 C403 903 422 893 422 876 C422 859 403 849 382 849 L382 849 Z M383 -15 C565 -15 685 115 685 275 L685 750 L529 750 L529 274 C529 192 476 126 382 126 C292 126 240 192 240 274 L240 750 L74 750 L74 275 C74 115 194 -15 383 -15 L383 -15 Z " />
<glyph glyph-name="uring" unicode="&#x16f;" horiz-adv-x="599" d="M241 -15 C317 -15 365 29 387 67 L394 0 L535 0 L535 505 L384 505 L384 221 C384 172 361 120 290 120 C232 120 210 160 210 219 L210 505 L59 505 L59 191 C59 81 107 -15 241 -15 L241 -15 Z M295 567 C386 567 429 609 429 663 C429 716 386 759 295 759 C204 759 162 716 162 663 C162 609 204 567 295 567 L295 567 Z M295 633 C277 633 260 644 260 663 C260 682 277 693 295 693 C314 693 330 682 330 663 C330 644 314 633 295 633 L295 633 Z " />
<glyph glyph-name="Uhungarumlaut" unicode="&#x170;" horiz-adv-x="759" d="M383 -15 C565 -15 685 115 685 275 L685 750 L529 750 L529 274 C529 192 476 126 382 126 C292 126 240 192 240 274 L240 750 L74 750 L74 275 C74 115 194 -15 383 -15 L383 -15 Z M215 805 L335 805 L397 885 L411 945 L270 945 L215 865 L215 805 Z M412 805 L533 805 L625 885 L625 945 L484 945 L412 865 L412 805 Z " />
<glyph glyph-name="uhungarumlaut" unicode="&#x171;" horiz-adv-x="599" d="M241 -15 C317 -15 365 29 387 67 L394 0 L535 0 L535 505 L384 505 L384 221 C384 172 361 120 290 120 C232 120 210 160 210 219 L210 505 L59 505 L59 191 C59 81 107 -15 241 -15 L241 -15 Z M147 600 L262 600 L325 685 L338 750 L202 750 L147 660 L147 600 Z M339 600 L450 600 L542 690 L542 750 L411 750 L339 660 L339 600 Z " />
<glyph glyph-name="Uogonek" unicode="&#x172;" horiz-adv-x="759" d="M489 -107 C465 -107 416 -101 416 -58 C416 -30 432 -17 463 -6 C599 26 685 140 685 275 L685 750 L529 750 L529 274 C529 192 476 126 382 126 C292 126 240 192 240 274 L240 750 L74 750 L74 275 C74 128 176 6 339 -13 C304 -26 283 -55 283 -91 C283 -169 357 -188 409 -192 L489 -192 L489 -107 Z " />
<glyph glyph-name="uogonek" unicode="&#x173;" horiz-adv-x="599" d="M345 -91 C345 -169 419 -188 471 -192 L551 -192 L551 -107 C527 -107 478 -101 478 -54 C478 -15 510 -5 535 0 L535 505 L384 505 L384 221 C384 172 361 120 290 120 C232 120 210 160 210 219 L210 505 L59 505 L59 191 C59 81 107 -15 241 -15 C317 -15 365 29 387 67 L394 0 L429 0 C378 -8 345 -44 345 -91 L345 -91 Z " />
<glyph glyph-name="Wcircumflex" unicode="&#x174;" horiz-adv-x="1000" d="M628 0 L797 0 L978 680 L978 750 L832 750 L708 235 L575 750 L434 750 L297 235 L178 750 L24 750 L24 670 L203 0 L372 0 L499 458 L628 0 Z M560 800 L676 800 L676 860 L584 940 L424 940 L332 860 L332 800 L448 800 L504 858 L560 800 Z " />
<glyph glyph-name="wcircumflex" unicode="&#x175;" horiz-adv-x="800" d="M488 0 L624 0 L779 438 L779 505 L651 505 L561 205 L467 505 L343 505 L252 204 L159 505 L23 505 L23 435 L174 0 L310 0 L396 291 L488 0 Z M469 600 L575 600 L575 660 L483 750 L333 750 L241 660 L241 600 L347 600 L408 673 L469 600 Z " />
<glyph glyph-name="Ycircumflex" unicode="&#x176;" horiz-adv-x="662" d="M249 0 L415 0 L415 299 L651 675 L651 750 L521 750 L343 446 L153 750 L7 750 L7 672 L249 300 L249 0 Z M388 800 L504 800 L504 860 L412 940 L252 940 L160 860 L160 800 L276 800 L332 858 L388 800 Z " />
<glyph glyph-name="ycircumflex" unicode="&#x177;" horiz-adv-x="556" d="M204 -250 L544 438 L544 505 L419 505 L285 209 L156 505 L20 505 L20 435 L202 46 L76 -180 L76 -250 L204 -250 Z M349 600 L455 600 L455 660 L363 750 L213 750 L121 660 L121 600 L227 600 L288 673 L349 600 Z " />
<glyph glyph-name="Ydieresis" unicode="&#x178;" horiz-adv-x="662" d="M249 0 L415 0 L415 299 L651 675 L651 750 L521 750 L343 446 L153 750 L7 750 L7 672 L249 300 L249 0 Z M157 800 L307 800 L307 935 L157 935 L157 800 Z M362 800 L513 800 L513 935 L362 935 L362 800 Z " />
<glyph glyph-name="Zacute" unicode="&#x179;" horiz-adv-x="643" d="M603 0 L603 141 L237 141 L592 619 L592 750 L51 750 L51 609 L397 609 L41 131 L41 0 L603 0 Z M247 805 L383 805 L475 885 L475 945 L319 945 L247 865 L247 805 Z " />
<glyph glyph-name="zacute" unicode="&#x17a;" horiz-adv-x="503" d="M462 0 L462 123 L221 123 L457 392 L457 505 L46 505 L46 382 L277 382 L41 113 L41 0 L462 0 Z M186 600 L309 600 L407 690 L407 750 L263 750 L186 660 L186 600 Z " />
<glyph glyph-name="Zdotaccent" unicode="&#x17b;" horiz-adv-x="643" d="M603 0 L603 141 L237 141 L592 619 L592 750 L51 750 L51 609 L397 609 L41 131 L41 0 L603 0 Z M237 800 L403 800 L403 935 L237 935 L237 800 Z " />
<glyph glyph-name="zdotaccent" unicode="&#x17c;" horiz-adv-x="503" d="M462 0 L462 123 L221 123 L457 392 L457 505 L46 505 L46 382 L277 382 L41 113 L41 0 L462 0 Z M180 600 L336 600 L336 740 L180 740 L180 600 Z " />
<glyph glyph-name="Zcaron" unicode="&#x17d;" horiz-adv-x="643" d="M603 0 L603 141 L237 141 L592 619 L592 750 L51 750 L51 609 L397 609 L41 131 L41 0 L603 0 Z M410 800 L500 880 L500 940 L384 940 L330 882 L272 940 L156 940 L156 880 L250 800 L410 800 Z " />
<glyph glyph-name="zcaron" unicode="&#x17e;" horiz-adv-x="503" d="M462 0 L462 123 L221 123 L457 392 L457 505 L46 505 L46 382 L277 382 L41 113 L41 0 L462 0 Z M332 600 L422 690 L422 750 L316 750 L257 677 L194 750 L88 750 L88 690 L182 600 L332 600 Z " />
<glyph glyph-name="florin" unicode="&#x192;" horiz-adv-x="718" d="M145 -185 C279 -184 337 -105 358 13 L415 332 L577 332 L577 455 L437 455 L456 562 C464 607 478 632 520 632 C557 632 566 609 566 601 L678 601 L678 669 C659 723 608 760 519 760 C384 760 327 681 305 561 L286 455 L180 455 L180 332 L264 332 L207 13 C199 -31 185 -57 143 -58 C107 -57 98 -33 98 -27 L-15 -27 L-15 -94 C4 -147 56 -184 145 -185 L145 -185 Z " />
<glyph glyph-name="Aringacute" unicode="&#x1fa;" horiz-adv-x="706" d="M284 1009 L420 1009 L512 1089 L512 1149 L356 1149 L284 1069 L284 1009 Z M146 0 L203 159 L489 159 L547 0 L691 0 L691 80 L437 750 L268 750 L13 70 L13 0 L146 0 Z M445 295 L249 295 L347 571 L445 295 Z M350 785 C445 785 489 824 489 878 C489 931 445 971 350 971 C256 971 212 931 212 878 C212 824 256 785 350 785 L350 785 Z M350 851 C329 851 310 861 310 878 C310 895 329 905 350 905 C371 905 390 895 390 878 C390 861 371 851 350 851 L350 851 Z " />
<glyph glyph-name="aringacute" unicode="&#x1fb;" horiz-adv-x="551" d="M197 -15 C277 -15 322 23 347 64 L357 0 L493 0 L493 306 C493 447 416 520 262 520 C102 520 59 416 59 416 L59 349 L173 349 C173 349 194 395 259 395 C316 395 342 366 342 311 L342 289 C342 289 300 299 248 299 C101 299 31 238 31 142 C31 56 86 -15 197 -15 L197 -15 Z M246 101 C205 101 180 117 180 156 C180 188 199 213 258 213 C307 213 342 205 342 205 L342 183 C342 147 311 101 246 101 L246 101 Z M283 568 C374 568 417 610 417 664 C417 717 374 760 283 760 C192 760 150 717 150 664 C150 610 192 568 283 568 L283 568 Z M283 634 C265 634 248 645 248 664 C248 683 265 694 283 694 C302 694 318 683 318 664 C318 645 302 634 283 634 L283 634 Z M215 809 L351 809 L443 889 L443 949 L287 949 L215 869 L215 809 Z " />
<glyph glyph-name="AEacute" unicode="&#x1fc;" horiz-adv-x="978" d="M7 75 L7 0 L133 0 L219 154 L457 154 L457 0 L928 0 L928 141 L623 141 L623 320 L893 320 L893 450 L623 450 L623 609 L928 609 L928 750 L388 750 L7 75 Z M294 290 L457 586 L457 290 L294 290 Z M593 805 L729 805 L821 885 L821 945 L665 945 L593 865 L593 805 Z " />
<glyph glyph-name="aeacute" unicode="&#x1fd;" horiz-adv-x="897" d="M622 -15 C802 -15 851 85 851 85 L851 152 L733 152 C733 152 714 106 624 106 C551 106 510 150 502 218 L854 218 C854 218 861 247 861 282 C861 417 787 520 619 520 C544 520 484 491 443 447 C405 494 343 520 261 520 C102 520 59 416 59 416 L59 349 L172 349 C172 349 193 395 259 395 C315 395 351 366 351 311 L351 292 C351 292 309 302 255 302 C100 302 30 238 30 142 C30 52 102 -15 226 -15 C309 -15 380 8 426 70 C467 17 533 -15 622 -15 L622 -15 Z M504 309 C517 362 548 400 614 400 C683 400 716 357 716 309 L504 309 Z M250 96 C207 96 179 113 179 150 C179 177 197 205 265 205 C316 205 351 197 351 197 L351 183 C351 139 315 96 250 96 L250 96 Z M394 600 L517 600 L615 690 L615 750 L471 750 L394 660 L394 600 Z " />
<glyph glyph-name="Oslashacute" unicode="&#x1fe;" horiz-adv-x="826" d="M413 -15 C636 -15 785 147 785 378 C785 492 747 589 681 658 L770 790 L614 790 L575 731 C528 753 473 765 413 765 C190 765 41 606 41 378 C41 262 79 163 145 93 L56 -40 L212 -40 L251 19 C299 -3 353 -15 413 -15 L413 -15 Z M202 378 C202 527 284 629 413 629 C443 629 471 623 495 611 L239 234 C215 273 202 322 202 378 L202 378 Z M413 121 C382 121 355 127 331 138 L589 517 C611 480 624 432 624 378 C624 225 542 121 413 121 L413 121 Z M354 805 L490 805 L582 885 L582 945 L426 945 L354 865 L354 805 Z " />
<glyph glyph-name="oslashacute" unicode="&#x1ff;" horiz-adv-x="606" d="M303 -15 C470 -15 570 106 570 254 C570 332 542 401 492 450 L566 560 L456 560 L415 499 C382 513 345 520 303 520 C135 520 36 401 36 254 C36 175 64 105 115 55 L38 -59 L148 -59 L192 6 C225 -8 262 -15 303 -15 L303 -15 Z M181 255 C181 330 222 394 303 394 C317 394 329 392 340 388 L197 178 C184 200 181 226 181 255 L181 255 Z M303 108 C288 108 276 110 265 114 L409 325 C420 306 425 281 425 255 C425 175 383 108 303 108 L303 108 Z M238 600 L361 600 L459 690 L459 750 L315 750 L238 660 L238 600 Z " />
<glyph glyph-name="Scommaaccent" unicode="&#x218;" horiz-adv-x="646" d="M324 -15 C491 -15 605 75 605 218 C605 343 522 418 385 446 L313 462 C241 478 213 505 213 546 C213 596 251 629 321 629 C399 629 436 591 449 540 L579 540 L579 616 C558 708 463 765 325 765 C160 765 52 681 52 537 C52 416 128 343 265 316 L334 303 C410 286 444 258 444 209 C444 153 397 121 327 121 C247 121 199 156 179 212 L48 212 L48 137 C80 54 169 -15 324 -15 L324 -15 Z M260 -205 L356 -205 L411 -124 L411 -52 L255 -52 L260 -205 Z " />
<glyph glyph-name="scommaaccent" unicode="&#x219;" horiz-adv-x="508" d="M258 -15 C394 -15 473 56 473 156 C473 253 406 290 309 304 L245 313 C204 320 181 335 181 362 C181 390 201 410 249 410 C311 410 335 367 337 356 L451 356 L451 424 C429 476 368 520 252 520 C124 520 46 451 46 354 C46 260 106 215 197 203 L261 195 C309 187 338 175 338 143 C338 115 318 95 260 95 C190 95 156 138 152 153 L39 153 L39 85 C51 52 120 -15 258 -15 L258 -15 Z M190 -205 L286 -205 L341 -124 L341 -52 L185 -52 L190 -205 Z " />
<glyph glyph-name="uni0237" unicode="&#x237;" horiz-adv-x="278" d="M23 -260 C150 -260 214 -183 214 -64 L214 505 L64 505 L64 -63 C64 -112 54 -132 20 -132 C-13 -132 -21 -106 -21 -96 L-134 -96 L-134 -168 C-116 -220 -66 -260 23 -260 L23 -260 Z " />
<glyph glyph-name="circumflex" unicode="&#x2c6;" horiz-adv-x="500" d="M275 600 L381 600 L381 660 L289 750 L139 750 L47 660 L47 600 L153 600 L214 673 L275 600 Z " />
<glyph glyph-name="caron" unicode="&#x2c7;" horiz-adv-x="424" d="M291 600 L381 690 L381 750 L275 750 L216 677 L153 750 L47 750 L47 690 L141 600 L291 600 Z " />
<glyph glyph-name="breve" unicode="&#x2d8;" horiz-adv-x="412" d="M218 588 C339 588 367 660 367 660 L367 735 L287 735 C287 735 275 693 218 693 C162 693 145 735 145 735 L65 735 L65 660 C65 660 95 588 218 588 L218 588 Z " />
<glyph glyph-name="dotaccent" unicode="&#x2d9;" horiz-adv-x="260" d="M75 600 L231 600 L231 740 L75 740 L75 600 Z " />
<glyph glyph-name="ring" unicode="&#x2da;" horiz-adv-x="500" d="M226 567 C317 567 360 609 360 663 C360 716 317 759 226 759 C135 759 93 716 93 663 C93 609 135 567 226 567 L226 567 Z M226 633 C208 633 191 644 191 663 C191 682 208 693 226 693 C245 693 261 682 261 663 C261 644 245 633 226 633 L226 633 Z " />
<glyph glyph-name="ogonek" unicode="&#x2db;" horiz-adv-x="295" d="M174 -192 L254 -192 L254 -107 C230 -107 181 -101 181 -54 C181 -15 213 -5 238 0 L132 0 C81 -8 48 -44 48 -91 C48 -169 122 -188 174 -192 L174 -192 Z " />
<glyph glyph-name="tilde" unicode="&#x2dc;" horiz-adv-x="452" d="M323 599 C398 599 428 655 423 736 L328 736 C324 713 309 707 294 707 C251 707 241 741 176 741 C104 741 65 685 70 604 L165 604 C170 623 182 634 200 634 C244 634 260 599 323 599 L323 599 Z " />
<glyph glyph-name="hungarumlaut" unicode="&#x2dd;" horiz-adv-x="484" d="M46 600 L161 600 L224 685 L237 750 L101 750 L46 660 L46 600 Z M238 600 L349 600 L441 690 L441 750 L310 750 L238 660 L238 600 Z " />
<glyph glyph-name="afii10023" unicode="&#x401;" horiz-adv-x="603" d="M82 0 L553 0 L553 141 L248 141 L248 320 L518 320 L518 450 L248 450 L248 609 L553 609 L553 750 L82 750 L82 0 Z M141 800 L291 800 L291 935 L141 935 L141 800 Z M346 800 L497 800 L497 935 L346 935 L346 800 Z " />
<glyph glyph-name="afii10051" unicode="&#x402;" horiz-adv-x="836" d="M582 -10 C721 -10 814 94 814 241 C814 386 724 490 573 490 C491 490 432 459 400 416 L400 609 L615 609 L615 750 L20 750 L20 609 L234 609 L234 0 L400 0 L400 230 C400 295 450 345 534 345 C606 345 648 308 648 237 C648 168 614 128 559 128 C531 128 505 133 492 135 L492 0 C514 -5 544 -10 582 -10 L582 -10 Z " />
<glyph glyph-name="afii10052" unicode="&#x403;" horiz-adv-x="559" d="M252 805 L388 805 L480 885 L480 945 L324 945 L252 865 L252 805 Z M82 0 L248 0 L248 609 L538 609 L538 750 L82 750 L82 0 Z " />
<glyph glyph-name="afii10053" unicode="&#x404;" horiz-adv-x="739" d="M699 146 L699 222 L568 222 C561 195 517 127 411 127 C302 127 226 199 214 315 L520 315 L520 446 L215 446 C230 557 305 624 411 624 C519 624 557 559 563 533 L694 533 L694 609 C684 659 609 765 410 765 C188 765 42 605 42 375 C42 145 174 -15 410 -15 C589 -15 687 90 699 146 L699 146 Z " />
<glyph glyph-name="afii10054" unicode="&#x405;" horiz-adv-x="646" d="M324 -15 C491 -15 605 75 605 218 C605 343 522 418 385 446 L313 462 C241 478 213 505 213 546 C213 596 251 629 321 629 C399 629 436 591 449 540 L579 540 L579 616 C558 708 463 765 325 765 C160 765 52 681 52 537 C52 416 128 343 265 316 L334 303 C410 286 444 258 444 209 C444 153 397 121 327 121 C247 121 199 156 179 212 L48 212 L48 137 C80 54 169 -15 324 -15 L324 -15 Z " />
<glyph glyph-name="afii10055" unicode="&#x406;" horiz-adv-x="330" d="M82 0 L248 0 L248 750 L82 750 L82 0 Z " />
<glyph glyph-name="afii10056" unicode="&#x407;" horiz-adv-x="330" d="M-13 800 L137 800 L137 935 L-13 935 L-13 800 Z M192 800 L343 800 L343 935 L192 935 L192 800 Z M82 0 L248 0 L248 750 L82 750 L82 0 Z " />
<glyph glyph-name="afii10057" unicode="&#x408;" horiz-adv-x="519" d="M224 -15 C368 -15 443 66 443 229 L443 750 L278 750 L278 223 C278 145 255 126 213 126 C166 126 151 163 151 188 L21 188 L21 113 C28 71 77 -15 224 -15 L224 -15 Z " />
<glyph glyph-name="afii10058" unicode="&#x409;" horiz-adv-x="1044" d="M19 0 L70 0 C234 0 286 145 291 391 L295 609 L483 609 L483 0 L730 0 C917 0 1018 117 1018 258 C1018 395 914 505 730 505 L649 505 L649 750 L147 750 L140 396 C136 230 109 152 45 152 L19 152 L19 0 Z M646 138 L646 367 L729 367 C807 367 852 317 852 256 C852 183 805 138 729 138 L646 138 Z " />
<glyph glyph-name="afii10059" unicode="&#x40a;" horiz-adv-x="1081" d="M248 330 L517 330 L517 0 L773 0 C958 0 1057 106 1057 241 C1057 372 955 470 773 470 L683 470 L683 750 L517 750 L517 470 L248 470 L248 750 L82 750 L82 0 L248 0 L248 330 Z M680 138 L680 332 L772 332 C848 332 891 294 891 238 C891 172 846 138 772 138 L680 138 Z " />
<glyph glyph-name="afii10060" unicode="&#x40b;" horiz-adv-x="841" d="M234 0 L400 0 L400 228 C400 294 442 345 520 345 C593 345 634 302 634 222 L634 0 L800 0 L800 236 C800 399 712 490 571 490 C489 490 428 459 400 416 L400 609 L615 609 L615 750 L20 750 L20 609 L234 609 L234 0 Z " />
<glyph glyph-name="afii10061" unicode="&#x40c;" horiz-adv-x="694" d="M305 805 L441 805 L533 885 L533 945 L377 945 L305 865 L305 805 Z M248 326 L532 0 L678 0 L678 78 L405 390 L650 675 L650 750 L519 750 L248 428 L248 750 L82 750 L82 0 L248 0 L248 326 Z " />
<glyph glyph-name="afii10062" unicode="&#x40e;" horiz-adv-x="656" d="M294 0 L649 675 L649 750 L518 750 L343 400 L158 750 L12 750 L12 672 L251 229 L163 75 L163 0 L294 0 Z M343 804 C455 804 506 860 516 882 L516 948 L400 948 C400 935 383 890 343 890 C299 890 285 935 286 948 L170 948 L170 882 C180 860 232 804 343 804 L343 804 Z " />
<glyph glyph-name="afii10145" unicode="&#x40f;" horiz-adv-x="780" d="M314 -150 L465 -150 L465 0 L698 0 L698 750 L532 750 L532 141 L248 141 L248 750 L82 750 L82 0 L314 0 L314 -150 Z " />
<glyph glyph-name="afii10017" unicode="&#x410;" horiz-adv-x="706" d="M146 0 L203 159 L489 159 L547 0 L691 0 L691 80 L437 750 L268 750 L13 70 L13 0 L146 0 Z M445 295 L249 295 L347 571 L445 295 Z " />
<glyph glyph-name="afii10018" unicode="&#x411;" horiz-adv-x="662" d="M82 0 L348 0 C532 0 632 108 632 243 C632 372 530 470 348 470 L248 470 L248 609 L572 609 L572 750 L82 750 L82 0 Z M245 138 L245 342 L347 342 C422 342 466 300 466 243 C466 175 420 138 347 138 L245 138 Z " />
<glyph glyph-name="afii10019" unicode="&#x412;" horiz-adv-x="687" d="M82 0 L385 0 C549 0 646 87 646 224 C646 304 598 368 518 393 C580 417 618 475 618 549 C618 671 527 750 381 750 L82 750 L82 0 Z M241 448 L241 618 L359 618 C420 618 456 584 456 532 C456 480 418 448 355 448 L241 448 Z M241 132 L241 322 L369 322 C446 322 483 283 483 230 C483 176 443 132 368 132 L241 132 Z " />
<glyph glyph-name="afii10020" unicode="&#x413;" horiz-adv-x="559" d="M82 0 L248 0 L248 609 L538 609 L538 750 L82 750 L82 0 Z " />
<glyph glyph-name="afii10021" unicode="&#x414;" horiz-adv-x="816" d="M11 -150 L162 -150 L162 0 L641 0 L641 -150 L792 -150 L792 141 L687 141 L687 750 L165 750 L156 429 C150 247 91 156 72 141 L11 141 L11 -150 Z M239 141 C254 163 299 241 306 421 L312 609 L521 609 L521 141 L239 141 Z " />
<glyph glyph-name="afii10022" unicode="&#x415;" horiz-adv-x="603" d="M82 0 L553 0 L553 141 L248 141 L248 320 L518 320 L518 450 L248 450 L248 609 L553 609 L553 750 L82 750 L82 0 Z " />
<glyph glyph-name="afii10024" unicode="&#x416;" horiz-adv-x="1011" d="M425 326 L425 0 L586 0 L586 326 L845 0 L991 0 L991 78 L742 392 L968 675 L968 750 L837 750 L586 429 L586 750 L425 750 L425 429 L175 750 L40 750 L40 673 L268 385 L23 78 L23 0 L166 0 L425 326 Z " />
<glyph glyph-name="afii10025" unicode="&#x417;" horiz-adv-x="626" d="M311 -15 C485 -15 584 80 584 220 C584 309 534 375 449 397 C516 425 556 486 556 558 C556 689 453 765 303 765 C128 765 60 669 50 618 L50 543 L181 543 C184 575 212 629 295 629 C351 629 396 595 396 542 C396 488 360 446 289 446 L211 446 L211 320 L301 320 C387 320 423 280 423 223 C423 163 382 122 306 122 C208 122 173 187 169 217 L38 217 L38 142 C49 85 130 -15 311 -15 L311 -15 Z " />
<glyph glyph-name="afii10026" unicode="&#x418;" horiz-adv-x="804" d="M82 0 L248 0 L557 494 L557 0 L722 0 L722 750 L557 750 L248 252 L248 750 L82 750 L82 0 Z " />
<glyph glyph-name="afii10027" unicode="&#x419;" horiz-adv-x="804" d="M82 0 L248 0 L557 494 L557 0 L722 0 L722 750 L557 750 L248 252 L248 750 L82 750 L82 0 Z M406 804 C518 804 569 860 579 882 L579 948 L463 948 C463 935 446 890 406 890 C362 890 348 935 349 948 L233 948 L233 882 C243 860 295 804 406 804 L406 804 Z " />
<glyph glyph-name="afii10028" unicode="&#x41a;" horiz-adv-x="694" d="M248 326 L532 0 L678 0 L678 78 L405 390 L650 675 L650 750 L519 750 L248 428 L248 750 L82 750 L82 0 L248 0 L248 326 Z " />
<glyph glyph-name="afii10029" unicode="&#x41b;" horiz-adv-x="736" d="M19 0 L70 0 C234 0 286 145 291 391 L295 609 L488 609 L488 0 L654 0 L654 750 L147 750 L140 396 C136 230 109 152 45 152 L19 152 L19 0 Z " />
<glyph glyph-name="afii10030" unicode="&#x41c;" horiz-adv-x="931" d="M405 159 L516 159 L684 512 L684 0 L849 0 L849 750 L646 750 L468 368 L286 750 L82 750 L82 0 L238 0 L238 512 L405 159 Z " />
<glyph glyph-name="afii10031" unicode="&#x41d;" horiz-adv-x="790" d="M82 0 L248 0 L248 315 L542 315 L542 0 L708 0 L708 750 L542 750 L542 455 L248 455 L248 750 L82 750 L82 0 Z " />
<glyph glyph-name="afii10032" unicode="&#x41e;" horiz-adv-x="826" d="M413 -15 C636 -15 785 147 785 378 C785 606 636 765 413 765 C190 765 41 606 41 378 C41 147 190 -15 413 -15 L413 -15 Z M413 126 C287 126 207 228 207 378 C207 524 287 624 413 624 C539 624 619 524 619 378 C619 228 539 126 413 126 L413 126 Z " />
<glyph glyph-name="afii10033" unicode="&#x41f;" horiz-adv-x="780" d="M82 0 L248 0 L248 609 L532 609 L532 0 L698 0 L698 750 L82 750 L82 0 Z " />
<glyph glyph-name="afii10034" unicode="&#x420;" horiz-adv-x="643" d="M82 0 L248 0 L248 245 L323 245 C515 245 612 371 612 503 C612 654 500 750 323 750 L82 750 L82 0 Z M245 383 L245 612 L322 612 C401 612 446 565 446 502 C446 431 399 383 322 383 L245 383 Z " />
<glyph glyph-name="afii10035" unicode="&#x421;" horiz-adv-x="729" d="M409 -15 C595 -15 683 86 699 146 L699 222 L568 222 C561 193 517 127 411 127 C287 127 208 225 208 376 C208 530 287 624 411 624 C519 624 557 562 563 533 L694 533 L694 609 C682 658 609 765 409 765 C188 765 42 610 42 375 C42 145 179 -15 409 -15 L409 -15 Z " />
<glyph glyph-name="afii10036" unicode="&#x422;" horiz-adv-x="635" d="M234 0 L400 0 L400 609 L615 609 L615 750 L20 750 L20 609 L234 609 L234 0 Z " />
<glyph glyph-name="afii10037" unicode="&#x423;" horiz-adv-x="656" d="M294 0 L649 675 L649 750 L518 750 L343 400 L158 750 L12 750 L12 672 L251 229 L163 75 L163 0 L294 0 Z " />
<glyph glyph-name="afii10038" unicode="&#x424;" horiz-adv-x="892" d="M363 -10 L529 -10 L529 69 C728 73 859 210 859 376 C859 543 728 681 529 685 L529 760 L363 760 L363 685 C164 681 33 544 33 378 C33 211 164 73 363 69 L363 -10 Z M363 203 C255 207 196 284 196 378 C196 471 255 548 363 552 L363 203 Z M529 202 L529 551 C637 547 696 470 696 376 C696 283 637 206 529 202 L529 202 Z " />
<glyph glyph-name="afii10039" unicode="&#x425;" horiz-adv-x="690" d="M27 0 L158 0 L337 264 L518 0 L664 0 L664 78 L445 385 L650 675 L650 750 L519 750 L357 500 L184 750 L38 750 L38 672 L247 380 L27 75 L27 0 Z " />
<glyph glyph-name="afii10040" unicode="&#x426;" horiz-adv-x="829" d="M652 -150 L803 -150 L803 141 L698 141 L698 750 L532 750 L532 141 L248 141 L248 750 L82 750 L82 0 L652 0 L652 -150 Z " />
<glyph glyph-name="afii10041" unicode="&#x427;" horiz-adv-x="715" d="M467 0 L633 0 L633 750 L467 750 L467 412 L352 412 C251 412 208 460 208 563 L208 750 L42 750 L42 563 C42 358 148 274 350 274 L467 274 L467 0 Z " />
<glyph glyph-name="afii10042" unicode="&#x428;" horiz-adv-x="1050" d="M82 0 L968 0 L968 750 L802 750 L802 141 L608 141 L608 750 L442 750 L442 141 L248 141 L248 750 L82 750 L82 0 Z " />
<glyph glyph-name="afii10043" unicode="&#x429;" horiz-adv-x="1099" d="M922 -150 L1073 -150 L1073 141 L968 141 L968 750 L802 750 L802 141 L608 141 L608 750 L442 750 L442 141 L248 141 L248 750 L82 750 L82 0 L922 0 L922 -150 Z " />
<glyph glyph-name="afii10044" unicode="&#x42a;" horiz-adv-x="746" d="M432 0 C619 0 720 117 720 258 C720 395 616 505 432 505 L346 505 L346 750 L20 750 L20 609 L180 609 L180 0 L432 0 Z M343 138 L343 367 L431 367 C509 367 554 317 554 256 C554 183 507 138 431 138 L343 138 Z " />
<glyph glyph-name="afii10045" unicode="&#x42b;" horiz-adv-x="939" d="M82 0 L333 0 C521 0 622 117 622 258 C622 395 518 505 333 505 L248 505 L248 750 L82 750 L82 0 Z M691 0 L857 0 L857 750 L691 750 L691 0 Z M245 138 L245 367 L332 367 C411 367 456 317 456 256 C456 183 409 138 332 138 L245 138 Z " />
<glyph glyph-name="afii10046" unicode="&#x42c;" horiz-adv-x="648" d="M82 0 L333 0 C521 0 622 117 622 258 C622 395 518 505 333 505 L248 505 L248 750 L82 750 L82 0 Z M245 138 L245 367 L332 367 C411 367 456 317 456 256 C456 183 409 138 332 138 L245 138 Z " />
<glyph glyph-name="afii10047" unicode="&#x42d;" horiz-adv-x="737" d="M338 -15 C566 -15 695 146 695 377 C695 605 564 765 340 765 C142 765 57 654 46 609 L46 533 L177 533 C183 557 228 624 340 624 C452 624 513 553 525 446 L232 446 L232 315 L525 315 C513 201 453 127 337 127 C223 127 176 197 169 222 L39 222 L39 146 C58 79 157 -15 338 -15 L338 -15 Z " />
<glyph glyph-name="afii10048" unicode="&#x42e;" horiz-adv-x="1083" d="M684 -15 C902 -15 1041 152 1041 378 C1041 601 902 765 684 765 C493 765 362 637 334 455 L248 455 L248 750 L82 750 L82 0 L248 0 L248 315 L331 315 C355 122 488 -15 684 -15 L684 -15 Z M684 126 C564 126 493 233 493 378 C493 519 564 624 684 624 C804 624 876 519 876 378 C876 233 805 126 684 126 L684 126 Z " />
<glyph glyph-name="afii10049" unicode="&#x42f;" horiz-adv-x="685" d="M437 270 L437 0 L603 0 L603 750 L344 750 C172 750 63 658 63 510 C63 412 122 338 202 308 L35 78 L35 0 L173 0 L360 270 L437 270 Z M345 403 C273 403 229 447 229 509 C229 570 271 612 345 612 L440 612 L440 403 L345 403 Z " />
<glyph glyph-name="afii10065" unicode="&#x430;" horiz-adv-x="551" d="M197 -15 C277 -15 322 23 347 64 L357 0 L493 0 L493 306 C493 447 416 520 262 520 C102 520 59 416 59 416 L59 349 L173 349 C173 349 194 395 259 395 C316 395 342 366 342 311 L342 289 C342 289 300 299 248 299 C101 299 31 238 31 142 C31 56 86 -15 197 -15 L197 -15 Z M246 101 C205 101 180 117 180 156 C180 188 199 213 258 213 C307 213 342 205 342 205 L342 183 C342 147 311 101 246 101 L246 101 Z " />
<glyph glyph-name="afii10066" unicode="&#x431;" horiz-adv-x="627" d="M321 -15 C488 -15 591 105 591 251 C591 403 504 515 353 515 C276 515 214 480 183 422 C188 546 219 595 332 607 L399 614 C502 625 540 651 562 704 L562 771 L454 771 C454 771 443 750 386 744 L331 739 C111 717 51 577 51 370 L51 288 C51 100 150 -15 321 -15 L321 -15 Z M321 116 C241 116 202 176 202 251 C202 324 239 384 321 384 C401 384 441 324 441 251 C441 176 401 116 321 116 L321 116 Z " />
<glyph glyph-name="afii10067" unicode="&#x432;" horiz-adv-x="556" d="M64 0 L331 0 C442 0 519 49 519 152 C519 208 485 251 424 269 C471 288 499 327 499 377 C499 464 426 510 320 510 L64 510 L64 0 Z M209 315 L209 405 L290 405 C326 405 349 393 349 361 C349 330 328 315 290 315 L209 315 Z M209 105 L209 209 L299 209 C344 209 369 192 369 157 C369 121 342 105 299 105 L209 105 Z " />
<glyph glyph-name="afii10068" unicode="&#x433;" horiz-adv-x="443" d="M64 0 L215 0 L215 382 L424 382 L424 505 L64 505 L64 0 Z " />
<glyph glyph-name="afii10069" unicode="&#x434;" horiz-adv-x="637" d="M14 -140 L150 -140 L150 0 L474 0 L474 -140 L610 -140 L610 121 L535 121 L535 505 L123 505 L108 280 C102 192 89 140 63 121 L14 121 L14 -140 Z M204 121 C223 156 233 204 237 264 L246 386 L387 386 L387 121 L204 121 Z " />
<glyph glyph-name="afii10070" unicode="&#x435;" horiz-adv-x="583" d="M308 -15 C488 -15 537 85 537 85 L537 152 L419 152 C419 152 401 106 311 106 C237 106 197 150 188 218 L540 218 C540 218 547 247 547 282 C547 417 473 520 302 520 C132 520 36 399 36 251 C36 101 126 -15 308 -15 L308 -15 Z M191 309 C203 362 235 400 301 400 C369 400 402 357 402 309 L191 309 Z " />
<glyph glyph-name="afii10072" unicode="&#x436;" horiz-adv-x="818" d="M32 0 L169 0 L333 218 L333 0 L484 0 L484 219 L651 0 L790 0 L790 70 L634 263 L780 438 L780 505 L651 505 L484 299 L484 505 L333 505 L333 299 L164 505 L33 505 L33 439 L184 262 L32 70 L32 0 Z " />
<glyph glyph-name="afii10073" unicode="&#x437;" horiz-adv-x="507" d="M248 -15 C391 -15 470 42 470 144 C470 205 437 249 373 268 C428 288 451 328 451 378 C451 469 377 520 253 520 C109 520 58 446 41 421 L41 353 L157 353 C166 373 189 409 242 409 C288 409 309 388 309 357 C309 323 290 302 241 302 L171 302 L171 206 L246 206 C306 206 327 184 327 153 C327 119 303 95 248 95 C187 95 166 131 155 152 L36 152 L36 85 C55 59 105 -15 248 -15 L248 -15 Z " />
<glyph glyph-name="afii10074" unicode="&#x438;" horiz-adv-x="618" d="M64 0 L210 0 L403 300 L403 0 L554 0 L554 505 L408 505 L215 205 L215 505 L64 505 L64 0 Z " />
<glyph glyph-name="afii10075" unicode="&#x439;" horiz-adv-x="618" d="M64 0 L210 0 L403 300 L403 0 L554 0 L554 505 L408 505 L215 205 L215 505 L64 505 L64 0 Z M310 583 C422 583 465 648 473 672 L473 736 L365 736 C365 718 353 675 310 675 C264 675 255 718 256 736 L148 736 L148 672 C156 648 198 583 310 583 L310 583 Z " />
<glyph glyph-name="afii10076" unicode="&#x43a;" horiz-adv-x="559" d="M64 0 L215 0 L215 218 L393 0 L534 0 L534 70 L367 264 L516 438 L516 505 L388 505 L215 300 L215 505 L64 505 L64 0 Z " />
<glyph glyph-name="afii10077" unicode="&#x43b;" horiz-adv-x="577" d="M23 0 L70 0 C202 0 238 100 241 234 L244 384 L363 384 L363 0 L513 0 L513 505 L115 505 L110 252 C108 168 88 131 33 129 L23 129 L23 0 Z " />
<glyph glyph-name="afii10078" unicode="&#x43c;" horiz-adv-x="752" d="M317 88 L426 88 L542 313 L542 0 L688 0 L688 505 L503 505 L378 257 L250 505 L64 505 L64 0 L202 0 L202 311 L317 88 Z " />
<glyph glyph-name="afii10079" unicode="&#x43d;" horiz-adv-x="608" d="M64 0 L215 0 L215 195 L393 195 L393 0 L544 0 L544 505 L393 505 L393 318 L215 318 L215 505 L64 505 L64 0 Z " />
<glyph glyph-name="afii10080" unicode="&#x43e;" horiz-adv-x="606" d="M303 -15 C470 -15 570 106 570 254 C570 401 470 520 303 520 C135 520 36 401 36 254 C36 106 135 -15 303 -15 L303 -15 Z M303 116 C224 116 187 178 187 254 C187 328 224 389 303 389 C382 389 419 328 419 254 C419 178 382 116 303 116 L303 116 Z " />
<glyph glyph-name="afii10081" unicode="&#x43f;" horiz-adv-x="598" d="M64 0 L215 0 L215 382 L383 382 L383 0 L534 0 L534 505 L64 505 L64 0 Z " />
<glyph glyph-name="afii10082" unicode="&#x440;" horiz-adv-x="642" d="M64 -250 L215 -250 L215 68 C250 16 307 -15 380 -15 C518 -15 605 103 605 254 C605 401 523 520 380 520 C306 520 245 486 212 433 L205 505 L64 505 L64 -250 Z M334 121 C262 121 215 179 215 254 C215 328 262 384 334 384 C413 384 454 327 454 254 C454 179 413 121 334 121 L334 121 Z " />
<glyph glyph-name="afii10083" unicode="&#x441;" horiz-adv-x="547" d="M300 -15 C469 -15 508 103 508 103 L508 170 L395 170 C395 170 383 116 300 116 C223 116 187 176 187 251 C187 327 223 390 300 390 C379 390 394 336 394 336 L507 336 L507 403 C507 403 471 521 300 521 C134 521 36 399 36 251 C36 105 123 -15 300 -15 L300 -15 Z " />
<glyph glyph-name="afii10084" unicode="&#x442;" horiz-adv-x="480" d="M164 0 L315 0 L315 382 L460 382 L460 505 L20 505 L20 382 L164 382 L164 0 Z " />
<glyph glyph-name="afii10085" unicode="&#x443;" horiz-adv-x="556" d="M204 -250 L544 438 L544 505 L419 505 L285 209 L156 505 L20 505 L20 435 L202 46 L76 -180 L76 -250 L204 -250 Z " />
<glyph glyph-name="afii10086" unicode="&#x444;" horiz-adv-x="764" d="M307 -250 L457 -250 L457 -13 C623 -8 729 105 729 252 C729 398 623 514 457 519 L457 700 L307 700 L307 519 C140 513 35 400 35 254 C35 107 140 -8 307 -13 L307 -250 Z M307 118 C229 120 186 179 186 254 C186 328 229 386 307 388 L307 118 Z M457 118 L457 388 C534 386 578 327 578 252 C578 178 534 120 457 118 L457 118 Z " />
<glyph glyph-name="afii10087" unicode="&#x445;" horiz-adv-x="559" d="M31 0 L157 0 L272 151 L390 0 L528 0 L528 70 L369 255 L525 438 L525 505 L399 505 L286 359 L172 505 L34 505 L34 435 L189 257 L31 68 L31 0 Z " />
<glyph glyph-name="afii10088" unicode="&#x446;" horiz-adv-x="636" d="M473 -140 L609 -140 L609 121 L534 121 L534 505 L383 505 L383 121 L215 121 L215 505 L64 505 L64 0 L473 0 L473 -140 Z " />
<glyph glyph-name="afii10089" unicode="&#x447;" horiz-adv-x="563" d="M348 0 L499 0 L499 505 L348 505 L348 284 L270 284 C215 284 187 307 187 366 L187 505 L36 505 L36 366 C36 226 109 163 266 163 L348 163 L348 0 Z " />
<glyph glyph-name="afii10090" unicode="&#x448;" horiz-adv-x="819" d="M64 0 L755 0 L755 505 L604 505 L604 121 L485 121 L485 505 L334 505 L334 121 L215 121 L215 505 L64 505 L64 0 Z " />
<glyph glyph-name="afii10091" unicode="&#x449;" horiz-adv-x="857" d="M694 -140 L830 -140 L830 121 L755 121 L755 505 L604 505 L604 121 L485 121 L485 505 L334 505 L334 121 L215 121 L215 505 L64 505 L64 0 L694 0 L694 -140 Z " />
<glyph glyph-name="afii10092" unicode="&#x44a;" horiz-adv-x="619" d="M376 0 C527 0 595 79 595 181 C595 280 526 353 378 353 L301 353 L301 505 L20 505 L20 384 L150 384 L150 0 L376 0 Z M301 113 L301 240 L365 240 C413 240 441 219 441 179 C441 133 411 113 364 113 L301 113 Z " />
<glyph glyph-name="afii10093" unicode="&#x44b;" horiz-adv-x="771" d="M64 0 L290 0 C441 0 509 79 509 181 C509 280 440 353 292 353 L215 353 L215 505 L64 505 L64 0 Z M556 0 L707 0 L707 505 L556 505 L556 0 Z M215 113 L215 240 L279 240 C327 240 355 219 355 179 C355 133 325 113 278 113 L215 113 Z " />
<glyph glyph-name="afii10094" unicode="&#x44c;" horiz-adv-x="533" d="M64 0 L290 0 C441 0 509 79 509 181 C509 280 440 353 292 353 L215 353 L215 505 L64 505 L64 0 Z M215 109 L215 243 L279 243 C329 243 358 221 358 179 C358 130 327 109 278 109 L215 109 Z " />
<glyph glyph-name="afii10095" unicode="&#x44d;" horiz-adv-x="546" d="M247 -15 C423 -15 510 105 510 251 C510 399 417 521 247 521 C85 521 39 408 39 408 L39 341 L153 341 C153 341 172 396 247 396 C310 396 346 360 352 300 L185 300 L185 208 L353 208 C347 146 312 108 247 108 C173 108 152 165 152 165 L38 165 L38 98 C38 98 87 -15 247 -15 L247 -15 Z " />
<glyph glyph-name="afii10096" unicode="&#x44e;" horiz-adv-x="824" d="M526 -15 C690 -15 788 106 788 254 C788 401 690 520 526 520 C388 520 299 434 275 318 L215 318 L215 505 L64 505 L64 0 L215 0 L215 197 L274 197 C295 77 385 -15 526 -15 L526 -15 Z M526 118 C449 118 414 179 414 254 C414 327 449 387 526 387 C603 387 637 327 637 254 C637 179 603 118 526 118 L526 118 Z " />
<glyph glyph-name="afii10097" unicode="&#x44f;" horiz-adv-x="556" d="M341 169 L341 0 L492 0 L492 505 L260 505 C111 505 44 427 44 333 C44 265 82 216 150 191 L41 68 L41 0 L162 0 L296 169 L341 169 Z M272 269 C223 269 195 291 195 332 C195 377 225 398 272 398 L341 398 L341 269 L272 269 Z " />
<glyph glyph-name="afii10071" unicode="&#x451;" horiz-adv-x="583" d="M308 -15 C488 -15 537 85 537 85 L537 152 L419 152 C419 152 401 106 311 106 C237 106 197 150 188 218 L540 218 C540 218 547 247 547 282 C547 417 473 520 302 520 C132 520 36 399 36 251 C36 101 126 -15 308 -15 L308 -15 Z M191 309 C203 362 235 400 301 400 C369 400 402 357 402 309 L191 309 Z M126 600 L271 600 L271 740 L126 740 L126 600 Z M331 600 L477 600 L477 740 L331 740 L331 600 Z " />
<glyph glyph-name="afii10099" unicode="&#x452;" horiz-adv-x="602" d="M299 -132 L299 -260 C459 -260 544 -191 544 -34 L544 114 L543 114 L543 314 C543 424 496 520 362 520 C287 520 237 479 214 443 L214 570 L359 570 L359 678 L214 678 L214 750 L63 750 L63 678 L-10 678 L-10 570 L63 570 L63 0 L214 0 L214 284 C214 333 237 385 310 385 C370 385 393 345 393 286 L393 -33 C393 -106 368 -132 299 -132 L299 -132 Z " />
<glyph glyph-name="afii10100" unicode="&#x453;" horiz-adv-x="443" d="M64 0 L215 0 L215 382 L424 382 L424 505 L64 505 L64 0 Z M176 593 L299 593 L397 683 L397 743 L253 743 L176 653 L176 593 Z " />
<glyph glyph-name="afii10101" unicode="&#x454;" horiz-adv-x="546" d="M508 98 L508 165 L395 165 C395 165 383 110 301 110 C240 110 201 149 194 208 L357 208 L357 303 L195 303 C203 357 240 396 301 396 C379 396 394 341 394 341 L507 341 L507 408 C507 408 471 521 300 521 C134 521 36 399 36 251 C36 105 123 -15 300 -15 C469 -15 508 98 508 98 L508 98 Z " />
<glyph glyph-name="afii10102" unicode="&#x455;" horiz-adv-x="506" d="M257 -15 C393 -15 472 56 472 156 C472 253 405 290 308 304 L244 313 C203 320 180 335 180 362 C180 390 200 410 248 410 C310 410 334 367 336 356 L450 356 L450 424 C428 476 367 520 251 520 C123 520 45 451 45 354 C45 260 105 215 196 203 L260 195 C308 187 337 175 337 143 C337 115 317 95 259 95 C189 95 155 138 151 153 L38 153 L38 85 C50 52 119 -15 257 -15 L257 -15 Z " />
<glyph glyph-name="afii10103" unicode="&#x456;" horiz-adv-x="278" d="M64 0 L214 0 L214 505 L64 505 L64 0 Z M60 600 L216 600 L216 740 L60 740 L60 600 Z " />
<glyph glyph-name="afii10104" unicode="&#x457;" horiz-adv-x="276" d="M-13 600 L120 600 L120 740 L-13 740 L-13 600 Z M164 600 L297 600 L297 740 L164 740 L164 600 Z M63 0 L213 0 L213 505 L63 505 L63 0 Z " />
<glyph glyph-name="afii10105" unicode="&#x458;" horiz-adv-x="278" d="M23 -260 C150 -260 214 -183 214 -64 L214 505 L64 505 L64 -63 C64 -112 54 -132 20 -132 C-13 -132 -21 -106 -21 -96 L-134 -96 L-134 -168 C-116 -220 -66 -260 23 -260 L23 -260 Z M61 600 L217 600 L217 740 L61 740 L61 600 Z " />
<glyph glyph-name="afii10106" unicode="&#x459;" horiz-adv-x="832" d="M241 234 L244 384 L363 384 L363 0 L589 0 C740 0 808 79 808 181 C808 280 739 353 591 353 L513 353 L513 505 L115 505 L110 252 C108 168 88 131 33 129 L23 129 L23 0 L70 0 C202 0 238 100 241 234 L241 234 Z M513 110 L513 243 L578 243 C628 243 657 221 657 179 C657 131 626 110 577 110 L513 110 Z " />
<glyph glyph-name="afii10107" unicode="&#x45a;" horiz-adv-x="850" d="M215 208 L383 208 L383 0 L615 0 C762 0 828 73 828 166 C828 256 761 323 616 323 L534 323 L534 505 L383 505 L383 323 L215 323 L215 505 L64 505 L64 0 L215 0 L215 208 Z M534 105 L534 218 L601 218 C648 218 675 198 675 164 C675 125 646 105 600 105 L534 105 Z " />
<glyph glyph-name="afii10108" unicode="&#x45b;" horiz-adv-x="602" d="M214 284 C214 333 237 385 310 385 C370 385 393 345 393 286 L393 0 L543 0 L543 314 C543 424 496 520 362 520 C287 520 237 479 214 443 L214 570 L359 570 L359 678 L214 678 L214 750 L63 750 L63 678 L-10 678 L-10 570 L63 570 L63 0 L214 0 L214 284 Z " />
<glyph glyph-name="afii10109" unicode="&#x45c;" horiz-adv-x="559" d="M64 0 L215 0 L215 218 L393 0 L534 0 L534 70 L367 264 L516 438 L516 505 L388 505 L215 300 L215 505 L64 505 L64 0 Z M221 593 L344 593 L442 683 L442 743 L298 743 L221 653 L221 593 Z " />
<glyph glyph-name="afii10110" unicode="&#x45e;" horiz-adv-x="556" d="M204 -250 L544 438 L544 505 L419 505 L285 209 L156 505 L20 505 L20 435 L202 46 L76 -180 L76 -250 L204 -250 Z M287 583 C399 583 442 648 450 672 L450 736 L342 736 C342 718 330 675 287 675 C241 675 232 718 233 736 L125 736 L125 672 C133 648 175 583 287 583 L287 583 Z " />
<glyph glyph-name="afii10193" unicode="&#x45f;" horiz-adv-x="598" d="M231 -140 L366 -140 L366 0 L534 0 L534 505 L383 505 L383 121 L215 121 L215 505 L64 505 L64 0 L231 0 L231 -140 Z " />
<glyph glyph-name="afii10050" unicode="&#x490;" horiz-adv-x="559" d="M387 900 L387 750 L82 750 L82 0 L248 0 L248 609 L538 609 L538 900 L387 900 Z " />
<glyph glyph-name="afii10098" unicode="&#x491;" horiz-adv-x="443" d="M288 640 L288 505 L64 505 L64 0 L215 0 L215 382 L424 382 L424 640 L288 640 Z " />
<glyph glyph-name="uni0492" unicode="&#x492;" horiz-adv-x="589" d="M431 315 L431 440 L277 440 L277 609 L567 609 L567 750 L111 750 L111 440 L16 440 L16 315 L111 315 L111 0 L277 0 L277 315 L431 315 Z " />
<glyph glyph-name="uni0493" unicode="&#x493;" horiz-adv-x="466" d="M352 185 L352 293 L238 293 L238 382 L447 382 L447 505 L87 505 L87 293 L22 293 L22 185 L87 185 L87 0 L238 0 L238 185 L352 185 Z " />
<glyph glyph-name="uni0496" unicode="&#x496;" horiz-adv-x="1034" d="M1025 -150 L1025 141 L942 141 L739 392 L960 675 L960 750 L829 750 L583 429 L583 750 L422 750 L422 429 L177 750 L43 750 L43 673 L265 385 L20 78 L20 0 L163 0 L422 326 L422 0 L583 0 L583 326 L842 0 L874 0 L874 -150 L1025 -150 Z " />
<glyph glyph-name="uni0497" unicode="&#x497;" horiz-adv-x="840" d="M826 -140 L826 121 L753 121 L632 263 L773 438 L773 505 L644 505 L482 299 L482 505 L331 505 L331 299 L167 505 L36 505 L36 439 L182 262 L30 70 L30 0 L169 0 L331 218 L331 0 L482 0 L482 219 L647 0 L690 0 L690 -140 L826 -140 Z " />
<glyph glyph-name="uni0498" unicode="&#x498;" horiz-adv-x="626" d="M584 220 C584 309 534 375 449 397 C516 425 556 486 556 558 C556 689 453 765 303 765 C128 765 60 669 50 618 L50 543 L181 543 C184 575 212 629 295 629 C351 629 396 595 396 542 C396 488 360 446 289 446 L211 446 L211 320 L301 320 C387 320 423 280 423 223 C423 163 382 122 306 122 C208 122 173 187 169 217 L38 217 L38 142 C47 93 109 12 242 -10 L242 -150 L392 -150 L392 -7 C515 18 584 103 584 220 L584 220 Z " />
<glyph glyph-name="uni0499" unicode="&#x499;" horiz-adv-x="507" d="M470 144 C470 205 437 249 373 268 C428 288 451 328 451 378 C451 469 377 520 253 520 C109 520 58 446 41 421 L41 353 L157 353 C166 373 189 409 242 409 C288 409 309 388 309 357 C309 323 290 302 241 302 L171 302 L171 206 L246 206 C306 206 327 184 327 153 C327 119 303 95 248 95 C187 95 166 131 155 152 L36 152 L36 85 C52 63 90 7 187 -10 L187 -150 L323 -150 L323 -9 C418 8 470 62 470 144 L470 144 Z " />
<glyph glyph-name="uni049A" unicode="&#x49a;" horiz-adv-x="718" d="M709 -150 L709 141 L627 141 L405 390 L650 675 L650 750 L519 750 L248 428 L248 750 L82 750 L82 0 L248 0 L248 326 L532 0 L558 0 L558 -150 L709 -150 Z " />
<glyph glyph-name="uni049B" unicode="&#x49b;" horiz-adv-x="576" d="M559 -140 L559 121 L496 121 L367 264 L516 438 L516 505 L388 505 L215 300 L215 505 L64 505 L64 0 L215 0 L215 218 L393 0 L423 0 L423 -140 L559 -140 Z " />
<glyph glyph-name="uni049C" unicode="&#x49c;" horiz-adv-x="814" d="M431 428 L431 590 L301 590 L301 165 L431 165 L431 326 L643 0 L791 0 L791 80 L585 392 L763 675 L763 750 L632 750 L431 428 Z M82 0 L248 0 L248 750 L82 750 L82 0 Z " />
<glyph glyph-name="uni049D" unicode="&#x49d;" horiz-adv-x="670" d="M363 300 L363 405 L253 405 L253 95 L363 95 L363 218 L493 0 L634 0 L634 70 L506 264 L617 438 L617 505 L488 505 L363 300 Z M64 0 L215 0 L215 505 L64 505 L64 0 Z " />
<glyph glyph-name="uni04A0" unicode="&#x4a0;" horiz-adv-x="886" d="M440 326 L724 0 L870 0 L870 78 L598 390 L842 675 L842 750 L711 750 L440 428 L440 750 L20 750 L20 610 L274 610 L274 0 L440 0 L440 326 Z " />
<glyph glyph-name="uni04A1" unicode="&#x4a1;" horiz-adv-x="698" d="M203 0 L354 0 L354 218 L532 0 L673 0 L673 70 L506 264 L655 438 L655 505 L527 505 L354 300 L354 505 L19 505 L19 382 L203 382 L203 0 Z " />
<glyph glyph-name="uni04A2" unicode="&#x4a2;" horiz-adv-x="839" d="M813 -150 L813 141 L708 141 L708 750 L542 750 L542 455 L248 455 L248 750 L82 750 L82 0 L248 0 L248 315 L542 315 L542 0 L662 0 L662 -150 L813 -150 Z " />
<glyph glyph-name="uni04A3" unicode="&#x4a3;" horiz-adv-x="646" d="M619 -140 L619 121 L544 121 L544 505 L393 505 L393 318 L215 318 L215 505 L64 505 L64 0 L215 0 L215 195 L393 195 L393 0 L483 0 L483 -140 L619 -140 Z " />
<glyph glyph-name="uni04AA" unicode="&#x4aa;" horiz-adv-x="729" d="M699 146 L699 222 L568 222 C561 193 517 127 411 127 C287 127 208 225 208 376 C208 530 287 624 411 624 C519 624 557 562 563 533 L694 533 L694 609 C682 658 609 765 409 765 C188 765 42 610 42 375 C42 173 148 25 329 -8 L329 -150 L480 -150 L480 -10 C618 12 685 94 699 146 L699 146 Z " />
<glyph glyph-name="uni04AB" unicode="&#x4ab;" horiz-adv-x="547" d="M508 103 L508 170 L395 170 C395 170 383 116 300 116 C223 116 187 176 187 251 C187 327 223 390 300 390 C379 390 394 336 394 336 L507 336 L507 403 C507 403 471 521 300 521 C134 521 36 399 36 251 C36 127 99 22 226 -7 L226 -150 L361 -150 L361 -9 C479 14 508 103 508 103 L508 103 Z " />
<glyph glyph-name="uni04AE" unicode="&#x4ae;" horiz-adv-x="662" d="M249 0 L415 0 L415 299 L651 675 L651 750 L521 750 L343 446 L153 750 L7 750 L7 672 L249 300 L249 0 Z " />
<glyph glyph-name="uni04AF" unicode="&#x4af;" horiz-adv-x="552" d="M351 -250 L351 1 L534 438 L534 505 L405 505 L281 180 L155 505 L19 505 L19 435 L200 2 L200 -250 L351 -250 Z " />
<glyph glyph-name="uni04B0" unicode="&#x4b0;" horiz-adv-x="673" d="M575 189 L575 315 L430 315 L657 675 L657 750 L526 750 L348 446 L159 750 L12 750 L12 672 L245 315 L100 315 L100 189 L254 189 L254 0 L420 0 L420 189 L575 189 Z " />
<glyph glyph-name="uni04B1" unicode="&#x4b1;" horiz-adv-x="551" d="M483 -108 L483 0 L350 0 L534 438 L534 505 L405 505 L281 180 L155 505 L19 505 L19 435 L201 0 L68 0 L68 -108 L200 -108 L200 -250 L351 -250 L351 -108 L483 -108 Z " />
<glyph glyph-name="uni04B2" unicode="&#x4b2;" horiz-adv-x="719" d="M707 -150 L707 141 L621 141 L445 385 L650 675 L650 750 L519 750 L357 500 L184 750 L38 750 L38 672 L247 380 L27 75 L27 0 L158 0 L337 264 L518 0 L556 0 L556 -150 L707 -150 Z " />
<glyph glyph-name="uni04B3" unicode="&#x4b3;" horiz-adv-x="575" d="M555 -140 L555 121 L486 121 L369 255 L525 438 L525 505 L399 505 L286 359 L172 505 L34 505 L34 435 L189 257 L31 68 L31 0 L157 0 L272 151 L390 0 L420 0 L420 -140 L555 -140 Z " />
<glyph glyph-name="uni04B6" unicode="&#x4b6;" horiz-adv-x="764" d="M738 -150 L738 141 L633 141 L633 750 L467 750 L467 412 L352 412 C251 412 208 460 208 563 L208 750 L42 750 L42 563 C42 358 148 274 350 274 L467 274 L467 0 L588 0 L588 -150 L738 -150 Z " />
<glyph glyph-name="uni04B7" unicode="&#x4b7;" horiz-adv-x="601" d="M574 -140 L574 121 L499 121 L499 505 L348 505 L348 284 L270 284 C215 284 187 307 187 366 L187 505 L36 505 L36 366 C36 226 109 163 266 163 L348 163 L348 0 L438 0 L438 -140 L574 -140 Z " />
<glyph glyph-name="uni04B8" unicode="&#x4b8;" horiz-adv-x="745" d="M663 0 L663 750 L497 750 L497 412 L424 412 L424 565 L294 565 L294 418 C234 431 208 474 208 553 L208 750 L42 750 L42 553 C42 370 126 288 294 276 L294 140 L424 140 L424 274 L497 274 L497 0 L663 0 Z " />
<glyph glyph-name="uni04B9" unicode="&#x4b9;" horiz-adv-x="603" d="M539 0 L539 505 L388 505 L388 284 L342 284 L342 385 L232 385 L232 289 C201 298 186 322 186 366 L186 505 L35 505 L35 366 C35 237 97 173 232 164 L232 70 L342 70 L342 163 L388 163 L388 0 L539 0 Z " />
<glyph glyph-name="uni04BA" unicode="&#x4ba;" horiz-adv-x="710" d="M248 750 L82 750 L82 0 L248 0 L248 338 L363 338 C464 338 507 290 507 187 L507 0 L673 0 L673 187 C673 392 567 476 365 476 L248 476 L248 750 Z " />
<glyph glyph-name="uni04BB" unicode="&#x4bb;" horiz-adv-x="603" d="M64 0 L215 0 L215 284 C215 333 238 385 311 385 C371 385 394 345 394 286 L394 0 L544 0 L544 314 C544 424 497 520 363 520 C288 520 238 479 215 443 L215 750 L64 750 L64 0 Z " />
<glyph glyph-name="uni04C0" unicode="&#x4c0;" horiz-adv-x="330" d="M82 0 L248 0 L248 750 L82 750 L82 0 Z " />
<glyph glyph-name="uni04C1" unicode="&#x4c1;" horiz-adv-x="1011" d="M425 326 L425 0 L586 0 L586 326 L845 0 L991 0 L991 78 L742 392 L968 675 L968 750 L837 750 L586 429 L586 750 L425 750 L425 429 L175 750 L40 750 L40 673 L268 385 L23 78 L23 0 L166 0 L425 326 Z M508 804 C620 804 671 860 681 882 L681 948 L565 948 C565 935 548 890 508 890 C464 890 450 935 451 948 L335 948 L335 882 C345 860 397 804 508 804 L508 804 Z " />
<glyph glyph-name="uni04C2" unicode="&#x4c2;" horiz-adv-x="818" d="M32 0 L169 0 L333 218 L333 0 L484 0 L484 219 L651 0 L790 0 L790 70 L634 263 L780 438 L780 505 L651 505 L484 299 L484 505 L333 505 L333 299 L164 505 L33 505 L33 439 L184 262 L32 70 L32 0 Z M405 588 C517 588 560 653 568 677 L568 741 L460 741 C460 723 448 680 405 680 C359 680 350 723 351 741 L243 741 L243 677 C251 653 293 588 405 588 L405 588 Z " />
<glyph glyph-name="uni04CF" unicode="&#x4cf;" horiz-adv-x="330" d="M82 0 L248 0 L248 750 L82 750 L82 0 Z " />
<glyph glyph-name="uni04D0" unicode="&#x4d0;" horiz-adv-x="706" d="M146 0 L203 159 L489 159 L547 0 L691 0 L691 80 L437 750 L268 750 L13 70 L13 0 L146 0 Z M445 295 L249 295 L347 571 L445 295 Z M353 804 C465 804 516 860 526 882 L526 948 L410 948 C410 935 393 890 353 890 C309 890 295 935 296 948 L180 948 L180 882 C190 860 242 804 353 804 L353 804 Z " />
<glyph glyph-name="uni04D1" unicode="&#x4d1;" horiz-adv-x="551" d="M197 -15 C277 -15 322 23 347 64 L357 0 L493 0 L493 306 C493 447 416 520 262 520 C102 520 59 416 59 416 L59 349 L173 349 C173 349 194 395 259 395 C316 395 342 366 342 311 L342 289 C342 289 300 299 248 299 C101 299 31 238 31 142 C31 56 86 -15 197 -15 L197 -15 Z M246 101 C205 101 180 117 180 156 C180 188 199 213 258 213 C307 213 342 205 342 205 L342 183 C342 147 311 101 246 101 L246 101 Z M267 588 C379 588 422 653 430 677 L430 741 L322 741 C322 723 310 680 267 680 C221 680 212 723 213 741 L105 741 L105 677 C113 653 155 588 267 588 L267 588 Z " />
<glyph glyph-name="uni04D6" unicode="&#x4d6;" horiz-adv-x="603" d="M82 0 L553 0 L553 141 L248 141 L248 320 L518 320 L518 450 L248 450 L248 609 L553 609 L553 750 L82 750 L82 0 Z M321 804 C433 804 484 860 494 882 L494 948 L378 948 C378 935 361 890 321 890 C277 890 263 935 264 948 L148 948 L148 882 C158 860 210 804 321 804 L321 804 Z " />
<glyph glyph-name="uni04D7" unicode="&#x4d7;" horiz-adv-x="583" d="M308 -15 C488 -15 537 85 537 85 L537 152 L419 152 C419 152 401 106 311 106 C237 106 197 150 188 218 L540 218 C540 218 547 247 547 282 C547 417 473 520 302 520 C132 520 36 399 36 251 C36 101 126 -15 308 -15 L308 -15 Z M191 309 C203 362 235 400 301 400 C369 400 402 357 402 309 L191 309 Z M304 588 C416 588 459 653 467 677 L467 741 L359 741 C359 723 347 680 304 680 C258 680 249 723 250 741 L142 741 L142 677 C150 653 192 588 304 588 L304 588 Z " />
<glyph glyph-name="uni04D8" unicode="&#x4d8;" horiz-adv-x="776" d="M382 -10 C599 -10 734 156 734 378 C734 605 595 765 365 765 C163 765 83 660 69 614 L69 539 L200 539 C205 560 251 624 355 624 C482 624 554 545 565 418 L45 418 C45 418 34 381 34 319 C34 143 168 -10 382 -10 L382 -10 Z M377 132 C275 132 203 202 194 293 L559 293 C540 195 477 132 377 132 L377 132 Z " />
<glyph glyph-name="uni04D9" unicode="&#x4d9;" horiz-adv-x="583" d="M275 520 C95 520 46 420 46 420 L46 353 L164 353 C164 353 182 399 272 399 C346 399 386 355 395 287 L43 287 C43 287 36 258 36 223 C36 88 110 -15 281 -15 C451 -15 547 106 547 254 C547 404 457 520 275 520 L275 520 Z M392 196 C380 143 348 105 282 105 C214 105 181 148 181 196 L392 196 Z " />
<glyph glyph-name="uni04E2" unicode="&#x4e2;" horiz-adv-x="804" d="M82 0 L248 0 L557 494 L557 0 L722 0 L722 750 L557 750 L248 252 L248 750 L82 750 L82 0 Z M257 805 L563 805 L563 915 L257 915 L257 805 Z " />
<glyph glyph-name="uni04E3" unicode="&#x4e3;" horiz-adv-x="618" d="M64 0 L210 0 L403 300 L403 0 L554 0 L554 505 L408 505 L215 205 L215 505 L64 505 L64 0 Z M167 610 L453 610 L453 726 L167 726 L167 610 Z " />
<glyph glyph-name="uni04E6" unicode="&#x4e6;" horiz-adv-x="826" d="M413 -15 C636 -15 785 147 785 378 C785 606 636 765 413 765 C190 765 41 606 41 378 C41 147 190 -15 413 -15 L413 -15 Z M413 126 C287 126 207 228 207 378 C207 524 287 624 413 624 C539 624 619 524 619 378 C619 228 539 126 413 126 L413 126 Z M230 800 L380 800 L380 935 L230 935 L230 800 Z M435 800 L586 800 L586 935 L435 935 L435 800 Z " />
<glyph glyph-name="uni04E7" unicode="&#x4e7;" horiz-adv-x="606" d="M303 -15 C470 -15 570 106 570 254 C570 401 470 520 303 520 C135 520 36 401 36 254 C36 106 135 -15 303 -15 L303 -15 Z M303 116 C224 116 187 178 187 254 C187 328 224 389 303 389 C382 389 419 328 419 254 C419 178 382 116 303 116 L303 116 Z M126 600 L271 600 L271 740 L126 740 L126 600 Z M331 600 L477 600 L477 740 L331 740 L331 600 Z " />
<glyph glyph-name="uni04E8" unicode="&#x4e8;" horiz-adv-x="826" d="M413 -15 C636 -15 785 147 785 378 C785 606 636 765 413 765 C190 765 41 606 41 378 C41 147 190 -15 413 -15 L413 -15 Z M413 629 C523 629 600 559 618 440 L208 440 C226 559 303 629 413 629 L413 629 Z M413 121 C304 121 228 191 209 310 L617 310 C598 191 522 121 413 121 L413 121 Z " />
<glyph glyph-name="uni04E9" unicode="&#x4e9;" horiz-adv-x="605" d="M303 -15 C470 -15 569 106 569 254 C569 401 470 520 303 520 C135 520 36 401 36 254 C36 106 135 -15 303 -15 L303 -15 Z M303 400 C367 400 408 360 418 301 L188 301 C198 360 238 400 303 400 L303 400 Z M303 105 C240 105 200 143 190 201 L416 201 C406 143 366 105 303 105 L303 105 Z " />
<glyph glyph-name="uni04EE" unicode="&#x4ee;" horiz-adv-x="656" d="M294 0 L649 675 L649 750 L518 750 L343 400 L158 750 L12 750 L12 672 L251 229 L163 75 L163 0 L294 0 Z M190 805 L496 805 L496 915 L190 915 L190 805 Z " />
<glyph glyph-name="uni04EF" unicode="&#x4ef;" horiz-adv-x="556" d="M204 -250 L544 438 L544 505 L419 505 L285 209 L156 505 L20 505 L20 435 L202 46 L76 -180 L76 -250 L204 -250 Z M145 610 L431 610 L431 726 L145 726 L145 610 Z " />
<glyph glyph-name="uni04F2" unicode="&#x4f2;" horiz-adv-x="656" d="M294 0 L649 675 L649 750 L518 750 L343 400 L158 750 L12 750 L12 672 L251 229 L163 75 L163 0 L294 0 Z M171 805 L291 805 L353 885 L367 945 L226 945 L171 865 L171 805 Z M368 805 L489 805 L581 885 L581 945 L440 945 L368 865 L368 805 Z " />
<glyph glyph-name="uni04F3" unicode="&#x4f3;" horiz-adv-x="556" d="M129 600 L244 600 L307 685 L320 750 L184 750 L129 660 L129 600 Z M321 600 L432 600 L524 690 L524 750 L393 750 L321 660 L321 600 Z M204 -250 L544 438 L544 505 L419 505 L285 209 L156 505 L20 505 L20 435 L202 46 L76 -180 L76 -250 L204 -250 Z " />
<glyph glyph-name="Wgrave" unicode="&#x1e80;" horiz-adv-x="1000" d="M628 0 L797 0 L978 680 L978 750 L832 750 L708 235 L575 750 L434 750 L297 235 L178 750 L24 750 L24 670 L203 0 L372 0 L499 458 L628 0 Z M440 805 L576 805 L576 865 L504 945 L348 945 L348 885 L440 805 Z " />
<glyph glyph-name="wgrave" unicode="&#x1e81;" horiz-adv-x="800" d="M488 0 L624 0 L779 438 L779 505 L651 505 L561 205 L467 505 L343 505 L252 204 L159 505 L23 505 L23 435 L174 0 L310 0 L396 291 L488 0 Z M347 600 L470 600 L470 660 L393 750 L250 750 L250 690 L347 600 Z " />
<glyph glyph-name="Wacute" unicode="&#x1e82;" horiz-adv-x="1000" d="M628 0 L797 0 L978 680 L978 750 L832 750 L708 235 L575 750 L434 750 L297 235 L178 750 L24 750 L24 670 L203 0 L372 0 L499 458 L628 0 Z M433 805 L569 805 L661 885 L661 945 L505 945 L433 865 L433 805 Z " />
<glyph glyph-name="wacute" unicode="&#x1e83;" horiz-adv-x="800" d="M488 0 L624 0 L779 438 L779 505 L651 505 L561 205 L467 505 L343 505 L252 204 L159 505 L23 505 L23 435 L174 0 L310 0 L396 291 L488 0 Z M349 600 L472 600 L570 690 L570 750 L426 750 L349 660 L349 600 Z " />
<glyph glyph-name="Wdieresis" unicode="&#x1e84;" horiz-adv-x="1000" d="M628 0 L797 0 L978 680 L978 750 L832 750 L708 235 L575 750 L434 750 L297 235 L178 750 L24 750 L24 670 L203 0 L372 0 L499 458 L628 0 Z M323 800 L473 800 L473 935 L323 935 L323 800 Z M528 800 L679 800 L679 935 L528 935 L528 800 Z " />
<glyph glyph-name="wdieresis" unicode="&#x1e85;" horiz-adv-x="800" d="M488 0 L624 0 L779 438 L779 505 L651 505 L561 205 L467 505 L343 505 L252 204 L159 505 L23 505 L23 435 L174 0 L310 0 L396 291 L488 0 Z M231 600 L376 600 L376 740 L231 740 L231 600 Z M436 600 L582 600 L582 740 L436 740 L436 600 Z " />
<glyph glyph-name="Ygrave" unicode="&#x1ef2;" horiz-adv-x="662" d="M249 0 L415 0 L415 299 L651 675 L651 750 L521 750 L343 446 L153 750 L7 750 L7 672 L249 300 L249 0 Z M266 805 L402 805 L402 865 L330 945 L174 945 L174 885 L266 805 Z " />
<glyph glyph-name="ygrave" unicode="&#x1ef3;" horiz-adv-x="556" d="M204 -250 L544 438 L544 505 L419 505 L285 209 L156 505 L20 505 L20 435 L202 46 L76 -180 L76 -250 L204 -250 Z M224 600 L347 600 L347 660 L270 750 L127 750 L127 690 L224 600 Z " />
<glyph glyph-name="thinspace" unicode="&#x2009;" horiz-adv-x="94" d="" />
<glyph glyph-name="uni2010" unicode="&#x2010;" horiz-adv-x="403" d="M59 247 L344 247 L344 370 L59 370 L59 247 Z " />
<glyph glyph-name="uni2011" unicode="&#x2011;" horiz-adv-x="403" d="M59 247 L344 247 L344 370 L59 370 L59 247 Z " />
<glyph glyph-name="endash" unicode="&#x2013;" horiz-adv-x="583" d="M59 247 L524 247 L524 370 L59 370 L59 247 Z " />
<glyph glyph-name="emdash" unicode="&#x2014;" horiz-adv-x="778" d="M59 247 L719 247 L719 370 L59 370 L59 247 Z " />
<glyph glyph-name="uni2015" unicode="&#x2015;" horiz-adv-x="778" d="M59 247 L719 247 L719 370 L59 370 L59 247 Z " />
<glyph glyph-name="quoteleft" unicode="&#x2018;" horiz-adv-x="273" d="M213 750 L113 750 L52 600 L52 449 L213 449 L213 750 Z " />
<glyph glyph-name="quoteright" unicode="&#x2019;" horiz-adv-x="265" d="M60 449 L160 449 L221 599 L221 750 L60 750 L60 449 Z " />
<glyph glyph-name="quotesinglbase" unicode="&#x201a;" horiz-adv-x="279" d="M59 -140 L159 -140 L220 10 L220 161 L59 161 L59 -140 Z " />
<glyph glyph-name="quotedblleft" unicode="&#x201c;" horiz-adv-x="499" d="M439 750 L339 750 L278 600 L278 449 L439 449 L439 750 Z M213 750 L113 750 L52 600 L52 449 L213 449 L213 750 Z " />
<glyph glyph-name="quotedblright" unicode="&#x201d;" horiz-adv-x="491" d="M60 449 L160 449 L221 599 L221 750 L60 750 L60 449 Z M286 449 L386 449 L447 599 L447 750 L286 750 L286 449 Z " />
<glyph glyph-name="quotedblbase" unicode="&#x201e;" horiz-adv-x="505" d="M59 -140 L159 -140 L220 10 L220 161 L59 161 L59 -140 Z M285 -140 L385 -140 L446 10 L446 161 L285 161 L285 -140 Z " />
<glyph glyph-name="dagger" unicode="&#x2020;" horiz-adv-x="539" d="M235 -87 L308 -87 L371 28 L326 439 L488 421 L488 569 L326 552 L352 750 L187 750 L214 552 L51 569 L51 421 L214 439 L169 28 L235 -87 Z " />
<glyph glyph-name="daggerdbl" unicode="&#x2021;" horiz-adv-x="539" d="M187 -83 L352 -83 L326 100 L488 83 L488 230 L326 212 L364 333 L326 455 L488 437 L488 584 L326 567 L352 750 L187 750 L214 567 L51 584 L51 437 L214 455 L176 333 L214 212 L51 230 L51 83 L214 100 L187 -83 Z " />
<glyph glyph-name="bullet" unicode="&#x2022;" horiz-adv-x="341" d="M170 224 C229 224 265 267 265 320 C265 373 229 416 170 416 C112 416 75 373 75 320 C75 267 112 224 170 224 L170 224 Z " />
<glyph glyph-name="ellipsis" unicode="&#x2026;" horiz-adv-x="829" d="M59 0 L220 0 L220 161 L59 161 L59 0 Z M334 0 L495 0 L495 161 L334 161 L334 0 Z M609 0 L770 0 L770 161 L609 161 L609 0 Z " />
<glyph glyph-name="perthousand" unicode="&#x2030;" horiz-adv-x="1544" d="M246 333 C376 333 462 427 462 549 C462 672 375 765 246 765 C115 765 30 673 30 549 C30 428 114 333 246 333 L246 333 Z M217 -26 L373 -26 L855 762 L699 762 L217 -26 Z M246 457 C194 457 171 499 171 549 C171 600 194 641 246 641 C297 641 320 601 320 549 C320 499 298 457 246 457 L246 457 Z M832 -15 C963 -15 1048 79 1048 201 C1048 324 962 417 832 417 C702 417 616 325 616 201 C616 80 700 -15 832 -15 L832 -15 Z M1297 -15 C1428 -15 1513 79 1513 201 C1513 324 1427 417 1297 417 C1167 417 1082 325 1082 201 C1082 80 1166 -15 1297 -15 L1297 -15 Z M832 109 C780 109 758 151 758 201 C758 251 781 293 832 293 C883 293 906 252 906 201 C906 151 884 109 832 109 L832 109 Z M1297 109 C1246 109 1223 151 1223 201 C1223 251 1246 293 1297 293 C1349 293 1371 252 1371 201 C1371 151 1350 109 1297 109 L1297 109 Z " />
<glyph glyph-name="minute" unicode="&#x2032;" horiz-adv-x="262" d="M52 452 L167 452 L235 750 L75 750 L52 452 Z " />
<glyph glyph-name="second" unicode="&#x2033;" horiz-adv-x="477" d="M52 452 L167 452 L235 750 L75 750 L52 452 Z M267 452 L382 452 L450 750 L290 750 L267 452 Z " />
<glyph glyph-name="guilsinglleft" unicode="&#x2039;" horiz-adv-x="384" d="M215 50 L334 50 L334 115 L196 270 L334 425 L334 490 L215 490 L24 270 L215 50 Z " />
<glyph glyph-name="guilsinglright" unicode="&#x203a;" horiz-adv-x="383" d="M50 50 L168 50 L359 270 L168 490 L50 490 L50 425 L187 270 L50 115 L50 50 Z " />
<glyph glyph-name="fraction" unicode="&#x2044;" horiz-adv-x="603" d="M-9 -40 L142 -40 L611 790 L460 790 L-9 -40 Z " />
<glyph glyph-name="Euro" unicode="&#x20ac;" horiz-adv-x="798" d="M752 126 L752 201 L627 201 C622 184 581 122 473 122 C394 122 329 168 306 239 L506 239 L538 344 L284 344 C283 355 282 365 282 376 C282 385 283 395 283 404 L559 404 L591 509 L303 509 C327 586 392 629 473 629 C580 629 618 569 622 554 L747 554 L747 629 C740 669 666 765 471 765 C303 765 177 672 132 509 L37 509 L37 404 L112 404 C111 395 111 385 111 375 C111 365 111 354 112 344 L37 344 L37 239 L131 239 C174 76 293 -15 471 -15 C651 -15 739 86 752 126 L752 126 Z " />
<glyph glyph-name="uni20B4" unicode="&#x20b4;" horiz-adv-x="721" d="M673 416 L673 516 L599 516 C613 537 620 565 620 594 C620 700 526 765 373 765 C231 765 141 710 113 637 L113 562 L243 562 C256 603 290 634 360 634 C425 634 459 610 459 567 C459 546 451 527 430 516 L46 516 L46 416 L673 416 Z M633 122 L633 197 L503 197 C485 148 437 116 367 116 C307 116 254 142 254 192 C254 214 260 234 278 246 L673 246 L673 346 L46 346 L46 246 L107 246 C99 230 92 203 92 174 C92 63 199 -15 363 -15 C513 -15 604 50 633 122 L633 122 Z " />
<glyph glyph-name="uni20B8" unicode="&#x20b8;" horiz-adv-x="641" d="M31 635 L611 635 L611 750 L31 750 L31 635 Z M240 0 L406 0 L406 454 L611 454 L611 570 L30 570 L30 454 L240 454 L240 0 Z " />
<glyph glyph-name="uni20BD" unicode="&#x20bd;" horiz-adv-x="700" d="M523 110 L523 225 L318 225 L318 290 L394 290 C576 290 668 403 668 523 C668 662 562 750 394 750 L153 750 L153 418 L53 418 L53 290 L153 290 L153 225 L53 225 L53 110 L153 110 L153 0 L318 0 L318 110 L523 110 Z M316 418 L316 612 L393 612 C465 612 502 572 502 519 C502 459 463 418 393 418 L316 418 Z " />
<glyph glyph-name="afii61352" unicode="&#x2116;" horiz-adv-x="1241" d="M85 0 L241 0 L241 469 L560 0 L716 0 L716 750 L560 750 L560 273 L241 750 L85 750 L85 0 Z M984 328 C1115 328 1201 418 1201 535 C1201 653 1114 741 984 741 C852 741 766 653 766 535 C766 419 851 328 984 328 L984 328 Z M984 448 C928 448 904 488 904 535 C904 583 929 622 984 622 C1038 622 1062 584 1062 535 C1062 488 1039 448 984 448 L984 448 Z M791 149 L1177 149 L1177 275 L791 275 L791 149 Z " />
<glyph glyph-name="trademark" unicode="&#x2122;" horiz-adv-x="942" d="M593 430 L671 430 L742 575 L742 390 L873 390 L873 750 L713 750 L635 589 L557 750 L396 750 L396 390 L523 390 L523 573 L593 430 Z M132 390 L270 390 L270 625 L363 625 L363 750 L40 750 L40 625 L132 625 L132 390 Z " />
<glyph glyph-name="uni2139" unicode="&#x2139;" horiz-adv-x="1180" d="M535 610 L645 610 L645 720 L535 720 L535 610 Z M540 0 L640 0 L640 500 L540 500 L540 0 Z " />
<glyph glyph-name="onethird" unicode="&#x2153;" horiz-adv-x="1054" d="M185 -40 L336 -40 L805 790 L654 790 L185 -40 Z M147 290 L283 290 L283 760 L177 760 L29 651 L29 586 L125 586 L147 605 L147 290 Z M830 -18 C945 -18 1017 41 1017 125 C1017 181 987 220 932 233 C975 251 1000 286 1000 336 C1000 419 924 460 827 460 C708 460 658 397 652 366 L652 310 L759 310 C761 323 770 358 815 358 C848 358 868 342 868 315 C868 291 852 272 816 272 L768 272 L768 179 L818 179 C869 179 885 159 885 134 C885 106 867 85 826 85 C772 85 756 128 753 141 L645 141 L645 86 C653 50 709 -18 830 -18 L830 -18 Z " />
<glyph glyph-name="twothirds" unicode="&#x2154;" horiz-adv-x="1136" d="M272 -40 L422 -40 L891 790 L741 790 L272 -40 Z M396 303 L396 418 L240 418 L279 455 C347 509 380 556 380 626 C380 709 314 763 208 763 C95 763 52 690 45 652 L45 600 L142 600 C144 611 155 650 199 650 C231 650 249 633 249 602 C249 572 230 548 196 518 L42 400 L42 303 L396 303 Z M916 -18 C1031 -18 1104 41 1104 125 C1104 181 1073 220 1019 233 C1062 251 1087 286 1087 336 C1087 419 1010 460 914 460 C794 460 744 397 738 366 L738 310 L845 310 C847 323 856 358 902 358 C934 358 954 342 954 315 C954 291 938 272 902 272 L854 272 L854 179 L905 179 C955 179 971 159 971 134 C971 106 953 85 912 85 C859 85 842 128 839 141 L732 141 L732 86 C739 50 796 -18 916 -18 L916 -18 Z " />
<glyph glyph-name="oneeighth" unicode="&#x215b;" horiz-adv-x="1051" d="M185 -40 L336 -40 L805 790 L654 790 L185 -40 Z M283 290 L283 760 L177 760 L29 651 L29 586 L125 586 L147 605 L147 290 L283 290 Z M829 -15 C948 -15 1014 50 1014 130 C1014 171 994 217 940 240 C975 255 997 292 997 335 C997 409 937 468 829 468 C720 468 660 409 660 335 C660 302 673 260 717 240 C663 216 645 171 645 130 C645 50 711 -15 829 -15 L829 -15 Z M829 279 C798 279 780 299 780 325 C780 350 798 369 829 369 C859 369 877 350 877 325 C877 299 859 279 829 279 L829 279 Z M829 87 C794 87 775 109 775 137 C775 167 795 188 829 188 C863 188 883 167 883 138 C883 109 864 87 829 87 L829 87 Z " />
<glyph glyph-name="threeeighths" unicode="&#x215c;" horiz-adv-x="1111" d="M251 -40 L402 -40 L871 790 L720 790 L251 -40 Z M221 285 C336 285 408 344 408 428 C408 484 378 523 323 536 C366 553 391 589 391 638 C391 721 314 763 218 763 C99 763 49 700 43 669 L43 613 L149 613 C151 626 161 661 206 661 C239 661 258 645 258 618 C258 594 242 575 207 575 L159 575 L159 482 L209 482 C259 482 275 462 275 437 C275 409 257 388 217 388 C163 388 147 431 143 444 L36 444 L36 389 C43 353 100 285 221 285 L221 285 Z M895 -15 C1013 -15 1079 50 1079 130 C1079 171 1059 217 1006 240 C1041 255 1062 292 1062 335 C1062 409 1003 468 895 468 C785 468 726 409 726 335 C726 302 739 260 783 240 C729 216 711 171 711 130 C711 50 777 -15 895 -15 L895 -15 Z M895 279 C864 279 846 299 846 325 C846 350 864 369 895 369 C925 369 943 350 943 325 C943 299 925 279 895 279 L895 279 Z M895 87 C860 87 841 109 841 137 C841 167 861 188 895 188 C929 188 949 167 949 138 C949 109 929 87 895 87 L895 87 Z " />
<glyph glyph-name="fiveeighths" unicode="&#x215d;" horiz-adv-x="1087" d="M227 -40 L377 -40 L846 790 L696 790 L227 -40 Z M202 289 C309 289 384 355 384 446 C384 542 313 593 213 593 C195 593 179 590 167 586 L173 645 L356 645 L356 750 L73 750 L50 509 L142 485 C142 485 157 503 194 503 C231 503 251 480 251 448 C251 419 235 393 196 393 C149 393 138 429 136 442 L33 442 L33 387 C40 351 91 289 202 289 L202 289 Z M870 -15 C989 -15 1055 50 1055 130 C1055 171 1035 217 982 240 C1016 255 1038 292 1038 335 C1038 409 978 468 870 468 C761 468 701 409 701 335 C701 302 715 260 758 240 C705 216 686 171 686 130 C686 50 752 -15 870 -15 L870 -15 Z M870 279 C839 279 822 299 822 325 C822 350 840 369 870 369 C900 369 918 350 918 325 C918 299 900 279 870 279 L870 279 Z M870 87 C836 87 816 109 816 137 C816 167 836 188 870 188 C904 188 924 167 924 138 C924 109 905 87 870 87 L870 87 Z " />
<glyph glyph-name="seveneighths" unicode="&#x215e;" horiz-adv-x="1041" d="M179 -40 L330 -40 L799 790 L648 790 L179 -40 Z M206 294 L368 650 L368 750 L31 750 L31 633 L226 633 L91 354 L91 294 L206 294 Z M822 -15 C941 -15 1007 50 1007 130 C1007 171 987 217 934 240 C969 255 990 292 990 335 C990 409 931 468 822 468 C713 468 653 409 653 335 C653 302 667 260 710 240 C657 216 638 171 638 130 C638 50 705 -15 822 -15 L822 -15 Z M822 279 C791 279 774 299 774 325 C774 350 792 369 822 369 C853 369 871 350 871 325 C871 299 853 279 822 279 L822 279 Z M822 87 C788 87 769 109 769 137 C769 167 788 188 822 188 C857 188 877 167 877 138 C877 109 857 87 822 87 L822 87 Z " />
<glyph glyph-name="uni2190" unicode="&#x2190;" horiz-adv-x="1180" d="M614 54 L369 315 L982 315 L982 415 L369 415 L614 676 L614 741 L543 741 L180 365 L543 -11 L614 -11 L614 54 Z " />
<glyph glyph-name="uni2191" unicode="&#x2191;" horiz-adv-x="1180" d="M901 346 L640 591 L640 -22 L540 -22 L540 591 L279 346 L214 346 L214 417 L590 780 L966 417 L966 346 L901 346 Z " />
<glyph glyph-name="uni2192" unicode="&#x2192;" horiz-adv-x="1180" d="M565 49 L810 310 L197 310 L197 410 L810 410 L565 671 L565 736 L636 736 L999 360 L636 -16 L565 -16 L565 49 Z " />
<glyph glyph-name="uni2193" unicode="&#x2193;" horiz-adv-x="1192" d="M278 390 L539 145 L539 758 L639 758 L639 145 L900 390 L965 390 L965 319 L589 -44 L213 319 L213 390 L278 390 Z " />
<glyph glyph-name="uni2194" unicode="&#x2194;" horiz-adv-x="1180" d="M490 180 L363 317 L817 317 L690 180 L690 124 L751 124 L975 360 L751 596 L690 596 L690 540 L818 403 L362 403 L490 540 L490 596 L430 596 L205 360 L430 124 L490 124 L490 180 Z " />
<glyph glyph-name="uni2195" unicode="&#x2195;" horiz-adv-x="1180" d="M591 -25 L827 200 L827 260 L771 260 L634 133 L634 587 L771 460 L827 460 L827 521 L591 745 L355 521 L355 460 L411 460 L548 588 L548 132 L411 260 L355 260 L355 200 L591 -25 Z " />
<glyph glyph-name="uni2196" unicode="&#x2196;" horiz-adv-x="1180" d="M832 51 L897 116 L475 539 L821 543 L868 589 L821 634 L314 634 L314 127 L359 80 L405 127 L409 473 L832 51 Z " />
<glyph glyph-name="uni2197" unicode="&#x2197;" horiz-adv-x="1180" d="M348 51 L283 116 L705 539 L359 543 L312 589 L359 634 L866 634 L866 127 L821 80 L775 127 L771 473 L348 51 Z " />
<glyph glyph-name="uni2198" unicode="&#x2198;" horiz-adv-x="1180" d="M357 659 L292 594 L714 171 L368 167 L321 121 L368 76 L875 76 L875 583 L830 630 L784 583 L780 237 L357 659 Z " />
<glyph glyph-name="uni2199" unicode="&#x2199;" horiz-adv-x="1093" d="M828 666 L893 601 L471 178 L817 174 L864 128 L817 83 L310 83 L310 590 L355 637 L401 590 L405 244 L828 666 Z " />
<glyph glyph-name="uni21B0" unicode="&#x21b0;" horiz-adv-x="1180" d="M858 45 L858 286 C858 422 785 507 640 507 L383 507 L514 648 L514 706 L452 706 L220 463 L452 219 L514 219 L514 277 L382 419 L640 419 C723 419 770 367 770 286 L770 45 L858 45 Z " />
<glyph glyph-name="uni21B1" unicode="&#x21b1;" horiz-adv-x="1180" d="M325 45 L325 286 C325 422 398 507 543 507 L800 507 L669 648 L669 706 L731 706 L963 463 L731 219 L669 219 L669 277 L801 419 L543 419 C460 419 413 367 413 286 L413 45 L325 45 Z " />
<glyph glyph-name="uni21B2" unicode="&#x21b2;" horiz-adv-x="1180" d="M858 675 L858 434 C858 298 785 213 640 213 L383 213 L514 72 L514 14 L452 14 L220 257 L452 501 L514 501 L514 443 L382 301 L640 301 C723 301 770 353 770 434 L770 675 L858 675 Z " />
<glyph glyph-name="uni21B3" unicode="&#x21b3;" horiz-adv-x="1180" d="M316 675 L316 434 C316 298 389 213 534 213 L791 213 L660 72 L660 14 L722 14 L954 257 L722 501 L660 501 L660 443 L792 301 L534 301 C451 301 404 353 404 434 L404 675 L316 675 Z " />
<glyph glyph-name="minus" unicode="&#x2212;" horiz-adv-x="568" d="M62 259 L506 259 L506 382 L62 382 L62 259 Z " />
<glyph glyph-name="approxequal" unicode="&#x2248;" horiz-adv-x="591" d="M399 324 C484 324 537 390 536 518 L415 518 C408 477 397 457 374 457 C315 457 290 519 198 519 C117 519 59 452 60 329 L181 329 C185 359 195 387 223 387 C281 387 312 324 399 324 L399 324 Z M399 94 C484 94 537 160 536 288 L415 288 C408 247 397 227 374 227 C315 227 290 289 198 289 C117 289 59 222 60 99 L181 99 C185 129 195 157 223 157 C281 157 312 94 399 94 L399 94 Z " />
<glyph glyph-name="notequal" unicode="&#x2260;" horiz-adv-x="588" d="M526 142 L526 265 L350 265 L400 362 L526 362 L526 485 L462 485 L522 604 L378 604 L318 485 L62 485 L62 362 L256 362 L206 265 L62 265 L62 142 L144 142 L81 17 L225 17 L288 142 L526 142 Z " />
<glyph glyph-name="lessequal" unicode="&#x2264;" horiz-adv-x="529" d="M460 180 L460 296 L221 410 L460 524 L460 640 L392 640 L53 463 L53 357 L392 180 L460 180 Z M56 22 L460 22 L460 145 L56 145 L56 22 Z " />
<glyph glyph-name="greaterequal" unicode="&#x2265;" horiz-adv-x="529" d="M136 180 L475 357 L475 463 L136 640 L69 640 L69 524 L308 410 L69 296 L69 180 L136 180 Z M69 22 L473 22 L473 145 L69 145 L69 22 Z " />
<glyph glyph-name="Pcircle" unicode="&#x24c5;" horiz-adv-x="859" d="M430 -10 C654 -10 822 165 822 376 C822 587 654 760 430 760 C205 760 37 587 37 376 C37 165 205 -10 430 -10 L430 -10 Z M430 100 C273 100 155 226 155 376 C155 526 273 650 430 650 C588 650 704 526 704 376 C704 226 588 100 430 100 L430 100 Z M306 169 L413 169 L413 290 L444 290 C555 290 611 362 611 439 C611 520 547 574 444 574 L306 574 L306 169 Z M413 373 L413 491 L441 491 C482 491 505 466 505 435 C505 397 481 373 441 373 L413 373 Z " />
<glyph glyph-name="uni2615" unicode="&#x2615;" horiz-adv-x="1180" d="M824 320 L854 500 L356 500 L414 211 L710 211 L728 320 L824 320 Z M784 365 L736 365 L751 455 L799 455 L784 365 Z M336 141 L807 141 L807 186 L336 186 L336 141 Z " />
<glyph glyph-name="uni267F" unicode="&#x267f;" horiz-adv-x="1180" d="M813 64 L887 64 L774 322 L622 322 L614 385 L741 385 L741 422 L712 445 L607 445 L590 551 L539 591 L574 601 L594 662 L562 724 L490 724 L467 676 L487 592 L452 546 L462 434 C363 411 307 318 307 222 C307 112 397 13 523 13 C631 13 729 81 740 213 L813 64 Z M368 222 C368 305 410 359 469 378 L483 235 L680 235 C679 132 612 70 523 70 C428 70 368 140 368 222 L368 222 Z " />
<glyph glyph-name="uni26FD" unicode="&#x26fd;" horiz-adv-x="1180" d="M537 581 L500 581 L306 242 C287 209 275 189 275 150 C275 89 318 55 377 55 C452 55 489 96 489 174 L489 459 L534 530 L534 51 L838 51 L838 675 L537 675 L537 581 Z M793 630 L793 483 L582 483 L582 630 L793 630 Z M323 151 C323 179 336 201 361 245 L444 394 L444 187 C444 127 428 100 380 100 C346 100 323 120 323 151 L323 151 Z " />
<glyph glyph-name="uni2764" unicode="&#x2764;" horiz-adv-x="1180" d="M590 98 L816 325 C846 355 866 397 866 441 C866 485 847 528 816 557 C788 584 750 599 707 599 C666 599 627 584 599 557 L590 548 L581 557 C552 584 514 599 472 599 C430 599 392 584 364 557 C333 528 314 485 314 441 C314 397 333 354 364 325 L590 98 Z " />
<glyph glyph-name="uni2B0E" unicode="&#x2b0e;" horiz-adv-x="1180" d="M265 606 L506 606 C642 606 727 533 727 388 L727 131 L868 262 L926 262 L926 200 L683 -32 L439 200 L439 262 L497 262 L639 130 L639 388 C639 471 587 518 506 518 L265 518 L265 606 Z " />
<glyph glyph-name="uni2B0F" unicode="&#x2b0f;" horiz-adv-x="1180" d="M288 80 L529 80 C665 80 750 153 750 298 L750 555 L891 424 L949 424 L949 486 L706 718 L462 486 L462 424 L520 424 L662 556 L662 298 C662 215 610 168 529 168 L288 168 L288 80 Z " />
<glyph glyph-name="uni2B10" unicode="&#x2b10;" horiz-adv-x="1180" d="M902 608 L661 608 C525 608 440 535 440 390 L440 133 L299 264 L241 264 L241 202 L484 -30 L728 202 L728 264 L670 264 L528 132 L528 390 C528 473 580 520 661 520 L902 520 L902 608 Z " />
<glyph glyph-name="uni2B11" unicode="&#x2b11;" horiz-adv-x="1180" d="M891 66 L650 66 C514 66 429 139 429 284 L429 541 L288 410 L230 410 L230 472 L473 704 L717 472 L717 410 L659 410 L517 542 L517 284 C517 201 569 154 650 154 L891 154 L891 66 Z " />
<glyph glyph-name="fillframe1" unicode="&#xe004;" horiz-adv-x="1180" d="M231 -158 L949 -158 L1105 21 L1105 696 L949 875 L231 875 L75 696 L75 21 L231 -158 Z " />
<glyph glyph-name="uniE006" unicode="&#xe006;" horiz-adv-x="1180" d="M590 -157 C728 -157 851 -106 942 -21 C1044 75 1105 215 1105 360 C1105 505 1044 645 942 741 C851 826 728 877 590 877 C452 877 329 826 238 741 C136 645 75 505 75 360 C75 215 136 75 238 -21 C329 -106 452 -157 590 -157 L590 -157 Z M590 -87 C473 -87 360 -44 279 34 C197 113 145 228 145 360 C145 492 197 607 279 686 C360 764 473 807 590 807 C707 807 820 764 901 686 C983 607 1035 492 1035 360 C1035 228 983 113 901 34 C820 -44 707 -87 590 -87 L590 -87 Z " />
<glyph glyph-name="fillframeround" unicode="&#xe007;" horiz-adv-x="1180" d="M590 -157 C728 -157 851 -106 942 -21 C1044 75 1105 215 1105 360 C1105 505 1044 645 942 741 C851 826 728 877 590 877 C452 877 329 826 238 741 C136 645 75 505 75 360 C75 215 136 75 238 -21 C329 -106 452 -157 590 -157 L590 -157 Z " />
<glyph glyph-name="noframe1" unicode="&#xe008;" horiz-adv-x="1180" d="M231 -158 L949 -158 L1105 21 L1105 696 L949 875 L231 875 L75 696 L75 21 L231 -158 Z M255 805 L925 805 L1035 678 L1035 39 L1003 2 L224 769 L255 805 Z M255 -88 L145 39 L145 678 L179 717 L958 -50 L925 -88 L255 -88 Z " />
<glyph glyph-name="regframe1" unicode="&#xe00c;" horiz-adv-x="1180" d="M231 -158 L949 -158 L1105 21 L1105 696 L949 875 L231 875 L75 696 L75 21 L231 -158 Z M255 -88 L145 39 L145 678 L255 805 L925 805 L1035 678 L1035 39 L925 -88 L255 -88 Z " />
<glyph glyph-name="uniE50C" unicode="&#xe50c;" horiz-adv-x="1180" d="M459 22 L590 47 L721 22 L721 62 L628 114 L644 350 L963 291 L963 342 L648 483 C648 658 625 750 589 750 C553 750 529 658 533 483 L217 342 L217 291 L537 350 L552 114 L459 62 L459 22 Z " />
<glyph glyph-name="uniE519" unicode="&#xe519;" horiz-adv-x="1180" d="M701 -31 L836 61 L836 719 L409 719 L409 535 L454 535 L454 674 L795 674 L705 614 C703 613 701 610 701 608 L701 370 L653 370 L579 516 L605 521 L639 581 L612 644 L547 644 L524 608 L536 530 L407 504 L343 391 L343 364 L373 343 L439 454 L483 460 L366 166 L244 155 L244 104 L414 104 L471 222 L478 222 L553 121 L593 -29 L655 -29 L623 134 L553 262 L588 376 L621 312 L701 312 L701 -31 Z " />
<glyph glyph-name="uniE51F" unicode="&#xe51f;" horiz-adv-x="1180" d="M450 569 L498 569 L498 694 L546 649 L571 649 L571 677 L474 770 L377 677 L377 649 L402 649 L450 694 L450 569 Z M705 559 L802 652 L802 680 L777 680 L729 635 L729 760 L681 760 L681 635 L633 680 L608 680 L608 652 L705 559 Z M314 55 L866 55 L866 535 L314 535 L314 55 Z M359 100 L359 490 L821 490 L821 100 L359 100 Z M709 140 L728 140 L728 216 L737 216 L737 140 L755 140 L761 216 L780 216 L765 286 L787 303 L767 380 L742 401 L759 414 L753 442 L740 457 L723 457 L711 442 L704 414 L722 401 L697 380 L677 303 L700 286 L684 216 L703 216 L709 140 Z M424 140 L451 140 L451 250 L471 250 L471 140 L498 140 L498 262 L518 282 L513 380 L472 403 L480 414 L486 439 L472 457 L450 457 L436 440 L441 414 L450 403 L409 380 L404 281 L424 262 L424 140 Z M560 140 L587 140 L587 250 L607 250 L607 140 L634 140 L634 262 L654 282 L649 380 L608 403 L616 414 L622 439 L608 457 L586 457 L572 440 L577 414 L586 403 L545 380 L540 281 L560 262 L560 140 Z " />
<glyph glyph-name="uniE521" unicode="&#xe521;" horiz-adv-x="1180" d="M283 69 L333 69 L385 234 L396 234 L396 69 L446 69 L446 234 L499 234 L450 419 L472 503 L519 421 L643 421 L643 444 L624 463 L561 463 L503 581 L481 612 L523 619 L542 675 L514 734 L456 734 L431 713 L398 635 L445 623 L382 588 L332 416 L253 234 L333 234 L283 69 Z M686 419 L790 419 L806 441 C811 432 821 419 845 419 C878 419 888 444 888 464 C888 487 873 507 845 507 C816 507 806 485 804 469 L771 552 L735 552 L745 489 L706 489 L610 551 L602 515 L665 459 L686 419 Z M525 69 L575 69 L575 347 L848 347 L848 69 L898 69 L898 397 L525 397 L525 69 Z " />
<glyph glyph-name="uniE524" unicode="&#xe524;" horiz-adv-x="1180" d="M247 515 L293 515 L593 697 L894 515 L940 515 L940 561 L593 773 L247 561 L247 515 Z M245 138 L301 138 L301 198 L885 198 L885 138 L940 138 L940 391 L885 391 L885 253 L300 253 L300 466 L245 466 L245 138 Z M325 278 L860 278 L860 391 L497 455 L464 394 L445 428 L386 455 L330 434 L323 373 L361 350 L444 350 L433 325 L325 325 L325 278 Z " />
<glyph glyph-name="uniE527" unicode="&#xe527;" horiz-adv-x="1180" d="M486 79 L797 394 L907 394 L907 577 L716 577 L613 473 L570 549 L598 605 L571 649 L518 649 L499 605 L523 551 L499 499 L499 357 L408 264 L296 264 L296 79 L486 79 Z M351 134 L351 209 L433 209 L742 522 L851 522 L851 449 L771 449 L461 134 L351 134 Z " />
<glyph glyph-name="uniE52A" unicode="&#xe52a;" horiz-adv-x="1180" d="M287 88 L445 88 L445 211 L567 211 L567 332 L688 332 L688 453 L809 453 L809 574 L908 574 L908 628 L754 628 L754 508 L633 508 L633 387 L511 387 L511 267 L390 267 L390 143 L287 143 L287 88 Z " />
<glyph glyph-name="uniE52E" unicode="&#xe52e;" horiz-adv-x="1180" d="M438 432 L750 432 C768 449 777 471 777 496 C777 547 744 592 686 592 C686 643 643 682 595 682 C545 682 503 644 503 592 C443 592 411 548 411 496 C411 472 419 449 438 432 L438 432 Z M584 0 L607 0 L727 402 L457 402 L584 0 Z " />
<glyph glyph-name="uniE52F" unicode="&#xe52f;" horiz-adv-x="1180" d="M414 159 L812 159 L812 204 L465 204 L504 256 L783 256 L865 533 L417 533 L355 618 L271 618 L271 573 L324 573 L426 429 L469 280 L414 204 L414 159 Z M485 54 C509 54 528 73 528 97 C528 121 509 140 485 140 C462 140 442 120 442 97 C442 74 462 54 485 54 L485 54 Z M729 54 C753 54 773 73 773 97 C773 121 753 140 729 140 C706 140 687 121 687 97 C687 73 706 54 729 54 L729 54 Z " />
<glyph glyph-name="uniE530" unicode="&#xe530;" horiz-adv-x="1180" d="M384 147 L798 147 L896 468 L735 468 L711 581 L468 581 L444 468 L286 468 L384 147 Z M498 468 L509 531 L671 531 L682 468 L498 468 Z " />
<glyph glyph-name="uniE536" unicode="&#xe536;" horiz-adv-x="1180" d="M505 97 L674 97 L674 289 L867 289 L867 458 L674 458 L674 651 L505 651 L505 458 L313 458 L313 289 L505 289 L505 97 Z " />
<glyph glyph-name="uniE542" unicode="&#xe542;" horiz-adv-x="1180" d="M287 464 C377 555 473 588 590 588 C707 588 791 555 893 464 L939 510 C844 611 728 653 590 653 C452 653 322 610 241 510 L287 464 Z M368 383 C440 456 514 475 590 475 C666 475 734 455 812 383 L858 429 C795 497 699 539 590 539 C481 539 382 496 322 429 L368 383 Z M449 302 C495 347 543 360 590 360 C637 360 695 347 731 302 L777 348 C720 406 659 425 590 425 C521 425 460 408 403 348 L449 302 Z M500 86 L536 86 L575 234 L575 249 L546 249 L520 149 L491 249 L453 249 L425 151 L399 249 L363 249 L363 232 L402 86 L438 86 L469 194 L500 86 Z M658 86 L695 86 L695 150 L749 150 L749 182 L695 182 L695 217 L756 217 L756 249 L658 249 L658 86 Z M591 86 L633 86 L633 249 L591 249 L591 86 Z M774 86 L816 86 L816 249 L774 249 L774 86 Z " />
<glyph glyph-name="uniE545" unicode="&#xe545;" horiz-adv-x="1180" d="M458 38 L674 38 L674 454 L595 525 L595 561 L664 561 L792 495 L811 495 L811 670 L792 670 L665 610 L595 610 L595 659 L536 659 L536 610 L471 610 L338 490 L372 452 L494 561 L537 561 L537 525 L458 453 L458 38 Z " />
<glyph glyph-name="uniE547" unicode="&#xe547;" horiz-adv-x="1180" d="M529 206 L629 206 C623 220 621 234 621 247 C621 345 812 347 812 543 C812 662 722 738 594 738 C428 738 390 601 390 601 L390 533 L468 533 C468 533 481 651 591 651 C659 651 706 607 706 543 C706 380 520 379 520 250 C520 236 523 220 529 206 L529 206 Z M527 0 L643 0 L643 117 L527 117 L527 0 Z " />
<glyph glyph-name="uniE549" unicode="&#xe549;" horiz-adv-x="1180" d="M847 84 L803 139 C747 86 669 57 590 57 C511 57 433 86 377 139 C323 192 288 272 288 360 C288 448 323 528 377 581 C433 634 511 663 590 663 C655 663 718 645 770 610 L675 603 L657 572 L679 545 L875 559 L861 747 L831 765 L803 743 L808 671 C747 712 672 732 590 732 C490 732 399 695 333 636 C258 566 216 464 216 360 C216 257 258 154 333 84 C399 25 490 -12 590 -12 C690 -12 781 25 847 84 L847 84 Z M557 283 L475 283 L506 318 C536 352 552 379 552 413 C552 455 521 481 477 481 C412 481 397 435 397 435 L397 403 L435 403 C435 403 438 441 471 441 C489 441 498 429 498 411 C498 388 492 373 470 348 L399 269 L399 235 L557 235 L557 283 Z M755 293 L755 336 L719 336 L719 478 L667 478 L566 330 L566 293 L672 293 L672 232 L719 232 L719 293 L755 293 Z M834 317 C834 338 840 355 865 355 C885 355 893 342 893 317 L893 235 L941 235 L941 332 C941 370 921 400 882 400 C857 400 842 387 834 376 L834 478 L787 478 L787 235 L834 235 L834 317 Z M619 336 L672 413 L672 336 L619 336 Z " />
<glyph glyph-name="uniE54A" unicode="&#xe54a;" horiz-adv-x="1180" d="M430 234 L473 234 L431 85 L508 85 L550 234 L697 234 L728 85 L806 85 L752 438 L865 438 L916 473 L928 530 L764 563 L740 628 L722 628 L662 437 L426 398 L311 425 L267 406 L257 375 L384 341 L311 85 L387 85 L430 234 Z " />
<glyph glyph-name="uniE54B" unicode="&#xe54b;" horiz-adv-x="1180" d="M286 63 L868 63 L868 108 L689 108 L689 220 C710 212 733 208 758 208 C809 208 853 226 887 259 C925 292 948 346 948 400 C948 453 925 504 887 539 C859 565 824 583 784 588 C777 606 766 623 752 636 C730 656 701 669 668 669 C634 669 604 656 583 636 C560 614 545 581 544 547 C512 542 484 529 463 509 C434 481 416 441 416 399 C416 357 434 316 463 289 C489 264 525 249 565 249 C586 249 606 253 624 261 L624 108 L499 108 L499 167 L555 174 L555 220 L378 220 L378 174 L434 167 L434 108 L286 108 L286 63 Z " />
<glyph glyph-name="uniE54C" unicode="&#xe54c;" horiz-adv-x="1180" d="M889 445 L956 445 L956 510 L591 745 L225 510 L225 445 L284 445 L590 631 L889 445 Z M454 -14 L547 -14 L547 139 L608 139 C739 139 805 226 805 319 C805 418 729 483 608 483 L454 483 L454 -14 Z M547 217 L547 404 L607 404 C674 404 712 362 712 315 C712 257 672 217 607 217 L547 217 Z " />
<glyph glyph-name="uniE54D" unicode="&#xe54d;" horiz-adv-x="1180" d="M434 0 L532 0 L532 257 L613 257 C770 257 848 368 848 487 C848 616 757 700 613 700 L434 700 L434 0 Z M532 341 L532 616 L613 616 C701 616 750 554 750 484 C750 398 697 341 613 341 L532 341 Z " />
<glyph glyph-name="uniE565" unicode="&#xe565;" horiz-adv-x="1180" d="M746 449 L791 611 L740 581 L708 636 C700 649 693 652 677 652 L547 652 C556 649 568 634 576 621 L635 520 L577 489 L746 449 Z M506 447 L579 573 L550 622 C542 636 529 647 509 647 C484 647 475 635 467 621 L401 507 L506 447 Z M792 248 L849 248 C879 248 899 265 899 294 C899 300 897 309 891 320 L824 436 L719 375 L792 248 Z M351 167 C352 174 354 181 360 191 L424 302 L477 269 L430 433 L263 395 L318 362 L298 327 C288 310 286 300 286 294 C286 288 286 280 299 257 L351 167 Z M717 42 L717 107 L775 107 C793 107 803 118 810 130 L867 229 C863 227 855 227 853 227 L717 227 L717 290 L597 168 L717 42 Z M417 106 L551 106 L551 226 L404 226 L376 176 C372 169 368 159 368 150 C368 122 389 106 417 106 L417 106 Z " />
<glyph glyph-name="uniE569" unicode="&#xe569;" horiz-adv-x="1180" d="M590 877 C452 877 329 826 238 741 C136 645 75 505 75 360 C75 215 136 75 238 -21 C329 -106 452 -157 590 -157 C728 -157 851 -106 942 -21 C1044 75 1105 215 1105 360 C1105 505 1044 645 942 741 C851 826 728 877 590 877 L590 877 Z M848 487 C848 616 757 700 613 700 L434 700 L434 566 L297 703 C377 770 482 807 590 807 C707 807 820 764 901 686 C983 607 1035 492 1035 360 C1035 246 996 144 932 68 L722 278 C806 316 848 400 848 487 L848 487 Z M590 -87 C473 -87 360 -44 279 34 C197 113 145 228 145 360 C145 475 185 577 249 654 L884 18 C804 -50 699 -87 590 -87 L590 -87 Z M532 616 L613 616 C701 616 750 554 750 484 C750 413 714 362 654 346 L532 468 L532 616 Z M434 391 L434 0 L532 0 L532 257 L568 257 L434 391 Z " />
<glyph glyph-name="uniE56A" unicode="&#xe56a;" horiz-adv-x="1180" d="M590 877 C452 877 329 826 238 741 C136 645 75 505 75 360 C75 215 136 75 238 -21 C329 -106 452 -157 590 -157 C728 -157 851 -106 942 -21 C1044 75 1105 215 1105 360 C1105 505 1044 645 942 741 C851 826 728 877 590 877 L590 877 Z M752 438 L865 438 L916 473 L928 530 L764 563 L740 628 L722 628 L661 435 L578 422 L297 703 C377 770 482 807 590 807 C707 807 820 764 901 686 C983 607 1035 492 1035 360 C1035 246 996 144 932 68 L795 205 L752 438 Z M590 -87 C473 -87 360 -44 279 34 C197 113 145 228 145 360 C145 475 185 577 249 654 L884 18 C804 -50 699 -87 590 -87 L590 -87 Z M430 234 L473 234 L431 85 L508 85 L550 234 L590 234 L426 398 L311 425 L267 406 L257 375 L384 341 L311 85 L387 85 L430 234 Z M639 186 L641 85 L739 85 L639 186 Z " />
<glyph glyph-name="uniE56B" unicode="&#xe56b;" horiz-adv-x="1180" d="M590 877 C452 877 329 826 238 741 C136 645 75 505 75 360 C75 215 136 75 238 -21 C329 -106 452 -157 590 -157 C728 -157 851 -106 942 -21 C1044 75 1105 215 1105 360 C1105 505 1044 645 942 741 C851 826 728 877 590 877 L590 877 Z M727 402 L598 402 L568 432 L750 432 C768 449 777 471 777 496 C777 547 744 592 686 592 C686 643 643 682 595 682 C545 682 503 644 503 592 C474 592 451 581 435 565 L297 703 C377 770 482 807 590 807 C707 807 820 764 901 686 C983 607 1035 492 1035 360 C1035 246 996 144 932 68 L697 303 L727 402 Z M590 -87 C473 -87 360 -44 279 34 C197 113 145 228 145 360 C145 475 185 577 249 654 L884 18 C804 -50 699 -87 590 -87 L590 -87 Z M473 351 L585 0 L607 0 L657 167 L473 351 Z " />
<glyph glyph-name="uniE56C" unicode="&#xe56c;" horiz-adv-x="1180" d="M590 877 C452 877 329 826 238 741 C136 645 75 505 75 360 C75 215 136 75 238 -21 C329 -106 452 -157 590 -157 C728 -157 851 -106 942 -21 C1044 75 1105 215 1105 360 C1105 505 1044 645 942 741 C851 826 728 877 590 877 L590 877 Z M795 523 L775 613 L701 613 L714 750 L658 750 L645 613 L419 613 L413 587 L297 703 C377 770 482 807 590 807 C707 807 820 764 901 686 C983 607 1035 492 1035 360 C1035 246 996 144 932 68 L728 272 L751 523 L795 523 Z M590 -87 C473 -87 360 -44 279 34 C197 113 145 228 145 360 C145 475 185 577 249 654 L884 18 C804 -50 699 -87 590 -87 L590 -87 Z M458 367 L489 39 L705 39 L712 113 L458 367 Z " />
<glyph glyph-name="uniE56D" unicode="&#xe56d;" horiz-adv-x="1180" d="M590 877 C452 877 329 826 238 741 C136 645 75 505 75 360 C75 215 136 75 238 -21 C329 -106 452 -157 590 -157 C728 -157 851 -106 942 -21 C1044 75 1105 215 1105 360 C1105 505 1044 645 942 741 C851 826 728 877 590 877 L590 877 Z M914 149 L914 530 L562 530 L562 628 L372 628 L297 703 C377 770 482 807 590 807 C707 807 820 764 901 686 C983 607 1035 492 1035 360 C1035 246 996 144 932 68 L851 149 L914 149 Z M590 -87 C473 -87 360 -44 279 34 C197 113 145 228 145 360 C145 475 185 577 249 654 L884 18 C804 -50 699 -87 590 -87 L590 -87 Z M695 598 L695 553 L840 553 L840 598 L695 598 Z M514 586 L514 529 L471 529 L414 586 L514 586 Z M624 201 C618 200 607 199 596 199 C519 199 456 263 456 340 C456 348 457 356 459 366 L298 529 L266 529 L266 149 L676 149 L624 201 Z M596 480 C673 480 737 417 737 340 C737 318 732 296 722 278 L534 466 C553 475 573 480 596 480 L596 480 Z " />
<glyph glyph-name="uniE588" unicode="&#xe588;" horiz-adv-x="1180" d="M641 45 C808 45 905 149 905 278 C905 406 808 511 641 511 L405 511 L521 636 L521 694 L458 694 L242 467 L458 239 L521 239 L521 297 L405 422 L649 422 C756 422 816 360 816 278 C816 196 756 134 649 134 L410 134 L410 45 L641 45 Z " />
<glyph glyph-name="uniE589" unicode="&#xe589;" horiz-adv-x="1180" d="M655 658 C822 658 919 554 919 425 C919 297 822 192 655 192 L419 192 L535 67 L535 9 L472 9 L256 236 L472 464 L535 464 L535 406 L419 281 L663 281 C770 281 830 343 830 425 C830 507 770 569 663 569 L424 569 L424 658 L655 658 Z " />
<glyph glyph-name="uniE58A" unicode="&#xe58a;" horiz-adv-x="1180" d="M516 55 C349 55 252 159 252 288 C252 416 349 521 516 521 L752 521 L636 646 L636 704 L699 704 L915 477 L699 249 L636 249 L636 307 L752 432 L508 432 C401 432 341 370 341 288 C341 206 401 144 508 144 L747 144 L747 55 L516 55 Z " />
<glyph glyph-name="uniE58B" unicode="&#xe58b;" horiz-adv-x="1180" d="M519 645 C352 645 255 541 255 412 C255 284 352 179 519 179 L755 179 L639 54 L639 -4 L702 -4 L918 223 L702 451 L639 451 L639 393 L755 268 L511 268 C404 268 344 330 344 412 C344 494 404 556 511 556 L750 556 L750 645 L519 645 Z " />
<glyph glyph-name="uniE58C" unicode="&#xe58c;" horiz-adv-x="1180" d="M889 409 C889 576 785 673 656 673 C528 673 423 576 423 409 L423 173 L298 289 L240 289 L240 226 L467 10 L695 226 L695 289 L637 289 L512 173 L512 417 C512 524 574 584 656 584 C738 584 800 524 800 417 L800 178 L889 178 L889 409 Z " />
<glyph glyph-name="uniE592" unicode="&#xe592;" horiz-adv-x="1180" d="M422 179 C467 179 479 203 531 203 C584 203 595 179 640 179 C685 179 696 203 749 203 C802 203 813 179 858 179 C880 179 892 184 907 191 L907 563 L447 563 L380 347 L198 347 L198 302 L289 202 C297 203 305 203 313 203 C366 203 377 179 422 179 L422 179 Z M428 347 L480 517 L567 517 L567 347 L428 347 Z M612 415 L612 517 L715 517 L715 415 L612 415 Z M760 415 L760 517 L862 517 L862 415 L760 415 Z M422 101 C479 101 485 125 531 125 C577 125 583 101 640 101 C697 101 703 125 749 125 C795 125 801 101 858 101 C881 101 895 105 907 109 L907 161 C892 154 880 149 858 149 C813 149 802 173 749 173 C696 173 685 149 640 149 C595 149 584 173 531 173 C479 173 467 149 422 149 C377 149 366 173 313 173 C294 173 279 171 257 162 L257 111 C278 120 294 125 313 125 C359 125 365 101 422 101 L422 101 Z " />
<glyph glyph-name="uniE596" unicode="&#xe596;" horiz-adv-x="1180" d="M473 150 L489 262 L498 262 L569 142 L606 0 L681 0 L628 183 L559 323 L559 412 L786 0 L842 0 L676 301 L677 302 L690 344 L573 567 L536 592 L575 603 L598 677 L566 739 L494 739 L471 691 L481 607 L401 580 L319 497 L303 328 L325 304 L361 304 L375 459 L432 517 L401 165 L355 0 L430 0 L473 150 Z " />
<glyph glyph-name="uniE599" unicode="&#xe599;" horiz-adv-x="1180" d="M687 79 L376 394 L266 394 L266 577 L457 577 L560 473 L603 549 L575 605 L602 649 L655 649 L674 605 L650 551 L674 499 L674 357 L765 264 L877 264 L877 79 L687 79 Z M822 134 L822 209 L740 209 L431 522 L322 522 L322 449 L402 449 L712 134 L822 134 Z " />
<glyph glyph-name="uniE59C" unicode="&#xe59c;" horiz-adv-x="1180" d="M893 88 L735 88 L735 211 L613 211 L613 332 L492 332 L492 453 L371 453 L371 574 L272 574 L272 628 L426 628 L426 508 L547 508 L547 387 L669 387 L669 267 L790 267 L790 143 L893 143 L893 88 Z " />
<glyph glyph-name="uniE5A0" unicode="&#xe5a0;" horiz-adv-x="1180" d="M285 409 C285 576 389 673 518 673 C646 673 751 576 751 409 L751 173 L876 289 L934 289 L934 226 L707 10 L479 226 L479 289 L537 289 L662 173 L662 417 C662 524 600 584 518 584 C436 584 374 524 374 417 L374 178 L285 178 L285 409 Z " />
<glyph glyph-name="uniE5A1" unicode="&#xe5a1;" horiz-adv-x="1180" d="M895 281 C895 114 791 17 662 17 C534 17 429 114 429 281 L429 517 L304 401 L246 401 L246 464 L473 680 L701 464 L701 401 L643 401 L518 517 L518 273 C518 166 580 106 662 106 C744 106 806 166 806 273 L806 512 L895 512 L895 281 Z " />
<glyph glyph-name="uniE5A2" unicode="&#xe5a2;" horiz-adv-x="1180" d="M289 281 C289 114 393 17 522 17 C650 17 755 114 755 281 L755 517 L880 401 L938 401 L938 464 L711 680 L483 464 L483 401 L541 401 L666 517 L666 273 C666 166 604 106 522 106 C440 106 378 166 378 273 L378 512 L289 512 L289 281 Z " />
<glyph glyph-name="uniE5A3" unicode="&#xe5a3;" horiz-adv-x="1180" d="M492 72 L874 72 L874 650 L492 650 L492 483 L569 483 L569 573 L797 573 L797 149 L569 149 L569 236 L492 236 L492 72 Z M371 192 L426 192 L426 242 L352 322 L673 322 L673 399 L352 399 L426 480 L426 531 L371 531 L206 360 L371 192 Z " />
<glyph glyph-name="uniE5A4" unicode="&#xe5a4;" horiz-adv-x="1180" d="M705 72 L323 72 L323 650 L705 650 L705 483 L628 483 L628 573 L400 573 L400 149 L628 149 L628 236 L705 236 L705 72 Z M826 192 L771 192 L771 242 L845 322 L524 322 L524 399 L845 399 L771 480 L771 531 L826 531 L991 360 L826 192 Z " />
<glyph glyph-name="uniE5A5" unicode="&#xe5a5;" horiz-adv-x="1180" d="M879 468 L879 86 L301 86 L301 468 L468 468 L468 391 L378 391 L378 163 L802 163 L802 391 L715 391 L715 468 L879 468 Z M759 589 L759 534 L709 534 L629 608 L629 287 L552 287 L552 608 L471 534 L420 534 L420 589 L591 754 L759 589 Z " />
<glyph glyph-name="uniE5A6" unicode="&#xe5a6;" horiz-adv-x="1190" d="M879 251 L879 633 L301 633 L301 251 L468 251 L468 328 L378 328 L378 556 L802 556 L802 328 L715 328 L715 251 L879 251 Z M759 130 L759 185 L709 185 L629 111 L629 432 L552 432 L552 111 L471 185 L420 185 L420 130 L591 -35 L759 130 Z " />
<glyph glyph-name="uniF50A" unicode="&#xf50a;" horiz-adv-x="626" d="M454 -123 C454 -77 420 -48 370 -40 L370 -11 C507 8 584 97 584 220 C584 309 534 375 449 397 C516 425 556 486 556 558 C556 689 453 765 303 765 C128 765 60 669 50 618 L50 543 L181 543 C184 575 212 629 295 629 C351 629 396 595 396 542 C396 488 360 446 289 446 L211 446 L211 320 L301 320 C387 320 423 280 423 223 C423 163 382 122 306 122 C208 122 173 187 169 217 L38 217 L38 142 C48 92 111 9 249 -11 L249 -73 C280 -73 313 -80 313 -108 C313 -137 283 -144 245 -144 L245 -224 L330 -224 C386 -219 454 -200 454 -123 L454 -123 Z " />
<glyph glyph-name="uniF50B" unicode="&#xf50b;" horiz-adv-x="507" d="M395 -123 C395 -77 361 -48 311 -40 L311 -11 C414 4 470 58 470 144 C470 205 437 249 373 268 C428 288 451 328 451 378 C451 469 377 520 253 520 C109 520 58 446 41 421 L41 353 L157 353 C166 373 189 409 242 409 C288 409 309 388 309 357 C309 323 290 302 241 302 L171 302 L171 206 L246 206 C306 206 327 184 327 153 C327 119 303 95 248 95 C187 95 166 131 155 152 L36 152 L36 85 C52 63 91 6 190 -10 L190 -73 C221 -73 254 -80 254 -108 C254 -137 224 -144 186 -144 L186 -224 L271 -224 C327 -219 395 -200 395 -123 L395 -123 Z " />
<glyph glyph-name="uniF50E" unicode="&#xf50e;" horiz-adv-x="706" d="M146 0 L203 159 L489 159 L547 0 L691 0 L691 80 L437 750 L268 750 L13 70 L13 0 L146 0 Z M445 295 L249 295 L347 571 L445 295 Z M199 805 L505 805 L505 915 L199 915 L199 805 Z " />
<glyph glyph-name="uniF50F" unicode="&#xf50f;" horiz-adv-x="551" d="M197 -15 C277 -15 322 23 347 64 L357 0 L493 0 L493 306 C493 447 416 520 262 520 C102 520 59 416 59 416 L59 349 L173 349 C173 349 194 395 259 395 C316 395 342 366 342 311 L342 289 C342 289 300 299 248 299 C101 299 31 238 31 142 C31 56 86 -15 197 -15 L197 -15 Z M246 101 C205 101 180 117 180 156 C180 188 199 213 258 213 C307 213 342 205 342 205 L342 183 C342 147 311 101 246 101 L246 101 Z M142 610 L428 610 L428 726 L142 726 L142 610 Z " />
<glyph glyph-name="uniF510" unicode="&#xf510;" horiz-adv-x="603" d="M82 0 L553 0 L553 141 L248 141 L248 320 L518 320 L518 450 L248 450 L248 609 L553 609 L553 750 L82 750 L82 0 Z M168 805 L474 805 L474 915 L168 915 L168 805 Z " />
<glyph glyph-name="uniF511" unicode="&#xf511;" horiz-adv-x="583" d="M308 -15 C488 -15 537 85 537 85 L537 152 L419 152 C419 152 401 106 311 106 C237 106 197 150 188 218 L540 218 C540 218 547 247 547 282 C547 417 473 520 302 520 C132 520 36 399 36 251 C36 101 126 -15 308 -15 L308 -15 Z M191 309 C203 362 235 400 301 400 C369 400 402 357 402 309 L191 309 Z M157 610 L443 610 L443 726 L157 726 L157 610 Z " />
<glyph glyph-name="uniF518" unicode="&#xf518;" horiz-adv-x="826" d="M413 -15 C636 -15 785 147 785 378 C785 606 636 765 413 765 C190 765 41 606 41 378 C41 147 190 -15 413 -15 L413 -15 Z M413 126 C287 126 207 228 207 378 C207 524 287 624 413 624 C539 624 619 524 619 378 C619 228 539 126 413 126 L413 126 Z M257 805 L563 805 L563 915 L257 915 L257 805 Z " />
<glyph glyph-name="uniF519" unicode="&#xf519;" horiz-adv-x="606" d="M303 -15 C470 -15 570 106 570 254 C570 401 470 520 303 520 C135 520 36 401 36 254 C36 106 135 -15 303 -15 L303 -15 Z M303 116 C224 116 187 178 187 254 C187 328 224 389 303 389 C382 389 419 328 419 254 C419 178 382 116 303 116 L303 116 Z M163 610 L449 610 L449 726 L163 726 L163 610 Z " />
<glyph glyph-name="uniF51A" unicode="&#xf51a;" horiz-adv-x="826" d="M413 -15 C636 -15 785 147 785 378 C785 606 636 765 413 765 C190 765 41 606 41 378 C41 147 190 -15 413 -15 L413 -15 Z M413 126 C287 126 207 228 207 378 C207 524 287 624 413 624 C539 624 619 524 619 378 C619 228 539 126 413 126 L413 126 Z M414 804 C526 804 577 860 587 882 L587 948 L471 948 C471 935 454 890 414 890 C370 890 356 935 357 948 L241 948 L241 882 C251 860 303 804 414 804 L414 804 Z " />
<glyph glyph-name="uniF51B" unicode="&#xf51b;" horiz-adv-x="606" d="M303 -15 C470 -15 570 106 570 254 C570 401 470 520 303 520 C135 520 36 401 36 254 C36 106 135 -15 303 -15 L303 -15 Z M303 116 C224 116 187 178 187 254 C187 328 224 389 303 389 C382 389 419 328 419 254 C419 178 382 116 303 116 L303 116 Z M302 588 C414 588 457 653 465 677 L465 741 L357 741 C357 723 345 680 302 680 C256 680 247 723 248 741 L140 741 L140 677 C148 653 190 588 302 588 L302 588 Z " />
<glyph glyph-name="uniF522" unicode="&#xf522;" horiz-adv-x="737" d="M338 -15 C566 -15 695 146 695 377 C695 605 564 765 340 765 C142 765 57 654 46 609 L46 533 L177 533 C183 557 228 624 340 624 C452 624 513 553 525 446 L232 446 L232 315 L525 315 C513 201 453 127 337 127 C223 127 176 197 169 222 L39 222 L39 146 C58 79 157 -15 338 -15 L338 -15 Z M185 805 L491 805 L491 915 L185 915 L185 805 Z " />
<glyph glyph-name="uniF523" unicode="&#xf523;" horiz-adv-x="546" d="M247 -15 C423 -15 510 105 510 251 C510 399 417 521 247 521 C85 521 39 408 39 408 L39 341 L153 341 C153 341 172 396 247 396 C310 396 346 360 352 300 L185 300 L185 208 L353 208 C347 146 312 108 247 108 C173 108 152 165 152 165 L38 165 L38 98 C38 98 87 -15 247 -15 L247 -15 Z M116 611 L402 611 L402 727 L116 727 L116 611 Z " />
<glyph glyph-name="uniF524" unicode="&#xf524;" horiz-adv-x="737" d="M338 -15 C566 -15 695 146 695 377 C695 605 564 765 340 765 C142 765 57 654 46 609 L46 533 L177 533 C183 557 228 624 340 624 C452 624 513 553 525 446 L232 446 L232 315 L525 315 C513 201 453 127 337 127 C223 127 176 197 169 222 L39 222 L39 146 C58 79 157 -15 338 -15 L338 -15 Z M340 804 C452 804 503 860 513 882 L513 948 L397 948 C397 935 380 890 340 890 C296 890 282 935 283 948 L167 948 L167 882 C177 860 229 804 340 804 L340 804 Z " />
<glyph glyph-name="uniF525" unicode="&#xf525;" horiz-adv-x="546" d="M247 -15 C423 -15 510 105 510 251 C510 399 417 521 247 521 C85 521 39 408 39 408 L39 341 L153 341 C153 341 172 396 247 396 C310 396 346 360 352 300 L185 300 L185 208 L353 208 C347 146 312 108 247 108 C173 108 152 165 152 165 L38 165 L38 98 C38 98 87 -15 247 -15 L247 -15 Z M253 588 C365 588 408 653 416 677 L416 741 L308 741 C308 723 296 680 253 680 C207 680 198 723 199 741 L91 741 L91 677 C99 653 141 588 253 588 L253 588 Z " />
<glyph glyph-name="uniF528" unicode="&#xf528;" horiz-adv-x="685" d="M437 270 L437 0 L603 0 L603 750 L344 750 C172 750 63 658 63 510 C63 412 122 338 202 308 L35 78 L35 0 L173 0 L360 270 L437 270 Z M345 403 C273 403 229 447 229 509 C229 570 271 612 345 612 L440 612 L440 403 L345 403 Z M212 805 L518 805 L518 915 L212 915 L212 805 Z " />
<glyph glyph-name="uniF529" unicode="&#xf529;" horiz-adv-x="556" d="M341 169 L341 0 L492 0 L492 505 L260 505 C111 505 44 427 44 333 C44 265 82 216 150 191 L41 68 L41 0 L162 0 L296 169 L341 169 Z M272 269 C223 269 195 291 195 332 C195 377 225 398 272 398 L341 398 L341 269 L272 269 Z M146 610 L432 610 L432 726 L146 726 L146 610 Z " />
<glyph glyph-name="uniF52C" unicode="&#xf52c;" horiz-adv-x="1083" d="M684 -15 C902 -15 1041 152 1041 378 C1041 601 902 765 684 765 C493 765 362 637 334 455 L248 455 L248 750 L82 750 L82 0 L248 0 L248 315 L331 315 C355 122 488 -15 684 -15 L684 -15 Z M684 126 C564 126 493 233 493 378 C493 519 564 624 684 624 C804 624 876 519 876 378 C876 233 805 126 684 126 L684 126 Z M331 805 L637 805 L637 915 L331 915 L331 805 Z " />
<glyph glyph-name="uniF52D" unicode="&#xf52d;" horiz-adv-x="824" d="M526 -15 C690 -15 788 106 788 254 C788 401 690 520 526 520 C388 520 299 434 275 318 L215 318 L215 505 L64 505 L64 0 L215 0 L215 197 L274 197 C295 77 385 -15 526 -15 L526 -15 Z M526 118 C449 118 414 179 414 254 C414 327 449 387 526 387 C603 387 637 327 637 254 C637 179 603 118 526 118 L526 118 Z M226 610 L512 610 L512 726 L226 726 L226 610 Z " />
<glyph glyph-name="uniF536" unicode="&#xf536;" horiz-adv-x="939" d="M82 0 L333 0 C521 0 622 117 622 258 C622 395 518 505 333 505 L248 505 L248 750 L82 750 L82 0 Z M691 0 L857 0 L857 750 L691 750 L691 0 Z M245 138 L245 367 L332 367 C411 367 456 317 456 256 C456 183 409 138 332 138 L245 138 Z M472 804 C584 804 635 860 645 882 L645 948 L529 948 C529 935 512 890 472 890 C428 890 414 935 415 948 L299 948 L299 882 C309 860 361 804 472 804 L472 804 Z " />
<glyph glyph-name="uniF537" unicode="&#xf537;" horiz-adv-x="771" d="M64 0 L290 0 C441 0 509 79 509 181 C509 280 440 353 292 353 L215 353 L215 505 L64 505 L64 0 Z M556 0 L707 0 L707 505 L556 505 L556 0 Z M215 113 L215 240 L279 240 C327 240 355 219 355 179 C355 133 325 113 278 113 L215 113 Z M378 588 C490 588 533 653 541 677 L541 741 L433 741 C433 723 421 680 378 680 C332 680 323 723 324 741 L216 741 L216 677 C224 653 266 588 378 588 L378 588 Z " />
<glyph glyph-name="uniF53C" unicode="&#xf53c;" horiz-adv-x="543" d="M82 0 L248 0 L248 310 L513 310 L513 440 L248 440 L248 609 L543 609 L543 750 L82 750 L82 0 Z " />
<glyph glyph-name="uniF53D" unicode="&#xf53d;" horiz-adv-x="459" d="M398 171 L398 284 L215 284 L215 382 L424 382 L424 505 L64 505 L64 0 L215 0 L215 171 L398 171 Z " />
<glyph glyph-name="uniF53E" unicode="&#xf53e;" horiz-adv-x="729" d="M549 -123 C549 -77 515 -48 465 -40 L465 -12 C613 6 685 92 699 146 L699 222 L568 222 C561 193 517 127 411 127 C287 127 208 225 208 376 C208 530 287 624 411 624 C519 624 557 562 563 533 L694 533 L694 609 C682 658 609 765 409 765 C188 765 42 610 42 375 C42 168 153 17 344 -10 L344 -73 C375 -73 408 -80 408 -108 C408 -137 378 -144 340 -144 L340 -224 L425 -224 C481 -219 549 -200 549 -123 L549 -123 Z " />
<glyph glyph-name="uniF53F" unicode="&#xf53f;" horiz-adv-x="547" d="M441 -123 C441 -77 407 -48 357 -40 L357 -10 C478 12 508 103 508 103 L508 170 L395 170 C395 170 383 116 300 116 C223 116 187 176 187 251 C187 327 223 390 300 390 C379 390 394 336 394 336 L507 336 L507 403 C507 403 471 521 300 521 C134 521 36 399 36 251 C36 124 102 16 236 -9 L236 -73 C267 -73 300 -80 300 -108 C300 -137 270 -144 232 -144 L232 -224 L317 -224 C373 -219 441 -200 441 -123 L441 -123 Z " />
<glyph glyph-name="commaaccent" unicode="&#xf6c3;" horiz-adv-x="274" d="M76 -205 L172 -205 L227 -124 L227 -52 L71 -52 L76 -205 Z " />
<glyph glyph-name="cyrbreve" unicode="&#xf6d4;" horiz-adv-x="456" d="M238 583 C350 583 393 648 401 672 L401 736 L293 736 C293 718 281 675 238 675 C192 675 183 718 184 736 L76 736 L76 672 C84 648 126 583 238 583 L238 583 Z " />
<glyph glyph-name="f_f" unicode="&#xfb00;" horiz-adv-x="738" d="M262 0 L262 382 L412 382 L412 0 L562 0 L562 382 L723 382 L723 505 L562 505 L562 562 C562 610 580 632 617 632 C653 632 662 609 662 601 L774 601 L774 669 C756 723 704 760 615 760 C487 760 412 683 412 561 L412 505 L262 505 L262 540 C262 606 289 628 333 628 C355 628 374 620 381 617 L381 745 C377 747 352 755 311 755 C180 755 111 675 111 547 L111 505 L26 505 L26 382 L111 382 L111 0 L262 0 Z " />
<glyph glyph-name="fi" unicode="&#xfb01;" horiz-adv-x="626" d="M111 0 L262 0 L262 382 L362 382 L362 505 L262 505 L262 537 C262 602 295 632 353 632 C424 632 436 588 436 575 L562 575 L562 642 C541 707 475 760 357 760 C213 760 111 679 111 536 L111 505 L26 505 L26 382 L111 382 L111 0 Z M412 0 L562 0 L562 505 L412 505 L412 0 Z " />
<glyph glyph-name="fl" unicode="&#xfb02;" horiz-adv-x="626" d="M262 382 L362 382 L362 505 L262 505 L262 532 C262 601 291 632 362 632 C387 632 404 627 412 624 L412 0 L562 0 L562 707 C522 737 447 760 362 760 C206 760 111 676 111 531 L111 505 L26 505 L26 382 L111 382 L111 0 L262 0 L262 382 Z " />
<glyph glyph-name="f_f_i" unicode="&#xfb03;" horiz-adv-x="927" d="M262 0 L262 382 L412 382 L412 0 L562 0 L562 382 L662 382 L662 505 L562 505 L562 537 C562 602 595 632 653 632 C724 632 737 588 737 575 L862 575 L862 642 C842 707 775 760 658 760 C513 760 412 679 412 536 L412 505 L262 505 L262 540 C262 606 289 628 333 628 C355 628 374 620 381 617 L381 745 C377 747 352 755 311 755 C180 755 111 675 111 547 L111 505 L26 505 L26 382 L111 382 L111 0 L262 0 Z M712 0 L863 0 L863 505 L712 505 L712 0 Z " />
<glyph glyph-name="f_f_l" unicode="&#xfb04;" horiz-adv-x="927" d="M262 0 L262 382 L412 382 L412 0 L562 0 L562 382 L662 382 L662 505 L562 505 L562 532 C562 601 591 632 663 632 C687 632 704 627 712 624 L712 0 L863 0 L863 707 C823 737 748 760 662 760 C506 760 412 676 412 531 L412 505 L262 505 L262 540 C262 606 288 628 333 628 C355 628 373 620 381 617 L381 745 C377 747 352 755 311 755 C180 755 111 675 111 547 L111 505 L26 505 L26 382 L111 382 L111 0 L262 0 Z " />
<glyph glyph-name="u1F374" unicode="&#x1f374;" horiz-adv-x="1180" d="M639 0 L751 0 L728 332 L750 362 L734 686 L701 686 L646 610 L609 355 L662 332 L639 0 Z M439 0 L547 0 L524 398 L566 438 L566 680 L531 680 L531 522 L511 522 L511 680 L475 680 L475 521 L454 521 L454 680 L418 680 L418 437 L462 398 L439 0 Z " />
<glyph glyph-name="u1F3DB" unicode="&#x1f3db;" horiz-adv-x="1180" d="M298 138 L258 138 L258 93 L923 93 L923 138 L883 138 L883 183 L843 183 L843 228 L813 228 L813 463 L883 463 L883 508 L590 678 L298 508 L298 463 L368 463 L368 228 L338 228 L338 183 L298 183 L298 138 Z M468 228 L413 228 L413 463 L468 463 L468 228 Z M568 228 L513 228 L513 463 L568 463 L568 228 Z M668 228 L613 228 L613 463 L668 463 L668 228 Z M768 228 L713 228 L713 463 L768 463 L768 228 Z " />
<glyph glyph-name="u1F4B1" unicode="&#x1f4b1;" horiz-adv-x="1180" d="M227 190 L953 190 L953 510 L227 510 L227 190 Z M272 235 L272 465 L908 465 L908 235 L272 235 Z M390 268 C439 268 472 306 472 350 C472 395 439 433 390 433 C341 433 307 395 307 350 C307 306 341 268 390 268 L390 268 Z M591 268 C640 268 673 306 673 350 C673 395 641 433 591 433 C541 433 508 396 508 350 C508 305 542 268 591 268 L591 268 Z M791 267 C841 267 873 306 873 350 C873 394 841 433 791 433 C743 433 709 394 709 350 C709 306 743 267 791 267 L791 267 Z M585 288 L585 301 C571 302 562 309 559 316 L559 326 L569 326 C571 320 576 315 585 312 L585 347 C568 352 560 361 560 375 C560 389 569 399 585 402 L585 414 L597 414 L597 403 C610 401 617 394 621 388 L621 378 L610 378 C608 383 604 388 597 389 L597 358 C618 350 624 342 624 327 C624 313 613 303 597 301 L597 288 L585 288 Z M794 300 C769 300 753 314 747 334 L732 334 L738 347 L744 347 L744 355 L732 355 L738 369 L748 369 C754 388 770 402 794 402 C822 402 831 386 831 386 L831 377 L820 377 C820 377 816 390 795 390 C779 390 769 382 764 369 L816 369 L810 355 L760 355 L760 347 L805 347 L800 334 L763 334 C768 322 779 312 795 312 C816 312 821 326 821 326 L831 326 L831 317 C831 317 822 300 794 300 L794 300 Z M368 301 L368 317 L351 317 L351 329 L368 329 L368 337 L351 337 L351 349 L368 349 L368 400 L395 400 C416 400 429 388 429 370 C429 352 418 337 395 337 L383 337 L383 329 L414 329 L414 317 L383 317 L383 301 L368 301 Z M585 363 L585 389 C577 388 574 383 574 376 C574 369 577 366 585 363 L585 363 Z M383 349 L394 349 C407 349 415 357 415 369 C415 379 408 388 394 388 L383 388 L383 349 Z M597 312 C606 315 611 321 611 327 C611 335 606 339 597 342 L597 312 Z " />
<glyph glyph-name="u1F4B3" unicode="&#x1f4b3;" horiz-adv-x="1180" d="M277 140 L903 140 L903 560 L277 560 L277 140 Z M322 515 L858 515 L858 456 L322 456 L322 515 Z M322 185 L322 366 L858 366 L858 185 L322 185 Z M503 268 L503 228 L648 228 L648 268 L503 268 Z M356 268 L356 228 L461 228 L461 268 L356 268 Z " />
</font>
</svg>
