<svg width="133" height="28" viewBox="0 0 133 28" xmlns="http://www.w3.org/2000/svg">
<path d="M28.0964 0H0V28H28.0964V0Z" fill="black"/>
<path d="M27.3498 0.828491H0.832764V27.2545H27.3498V0.828491Z" fill="#FFEE00"/>
<path d="M2.24387 21.8699L5.73513 25.3492L13.7983 17.148L22.194 25.5149L25.6852 22.0356L17.3727 13.7516L18.9521 12.1776V8.86402L19.9496 8.03562V10.7693L21.1964 11.8463L25.0202 8.03562L26.2671 8.94686C27.0152 6.29597 22.7758 0.165797 19.2846 3.56225L15.2114 7.62142L16.0427 8.6155L13.9645 10.6037L12.0527 8.6155L13.1333 7.70426L8.64452 3.39657C5.31951 0.662838 1.82824 4.80485 1.74512 8.94686L2.992 7.95278L6.73264 12.0119L8.06264 10.935V8.44982L8.8939 9.11254V12.3433L10.5564 14.0001L2.24387 21.8699Z" fill="black"/>
<path d="M124.937 11.5148H127.68V8.36686H130.257V11.5148H133V3.72781H130.257V6.46154H127.68V3.72781H124.937V11.5148ZM108.229 5.9645C108.81 5.55029 109.642 5.30177 110.307 5.30177C110.639 5.30177 111.387 5.38461 111.387 6.04734C111.387 6.71006 110.722 6.71006 110.473 6.71006H109.143V8.4497H110.307C110.722 8.4497 111.47 8.4497 111.47 9.11242C111.47 9.36095 111.304 9.85799 110.39 9.85799C109.392 9.85799 108.81 9.60947 107.979 9.11242L107.231 10.9349C108.727 11.7633 110.14 11.8462 110.722 11.8462C113.881 11.8462 114.297 10.0237 114.297 9.44379C114.297 8.61538 113.798 7.78698 112.717 7.53846C113.382 7.2071 113.881 6.54438 113.881 5.71598C113.881 3.89349 111.969 3.47929 110.722 3.47929C109.642 3.47929 108.312 3.81065 107.48 4.22485L108.229 5.9645ZM102.16 2.65089C103.407 2.65089 104.737 2.15385 105.319 0.828402L103.49 0.16568C103.241 1.07692 102.493 1.15976 102.16 1.15976C101.828 1.15976 101.08 1.07692 100.83 0.16568L99.0847 0.828402C99.6666 2.23669 100.997 2.65089 102.16 2.65089ZM97.921 3.72781V11.5976H100.581L103.324 7.28994V11.5976H106.067V3.72781H103.407L100.664 7.95266V3.72781H97.921ZM79.5503 9.85799V5.46745C78.6359 5.46745 77.6384 6.13018 77.6384 7.6213C77.7215 9.19526 78.6359 9.85799 79.5503 9.85799ZM81.9609 5.46745V9.85799C82.8753 9.85799 83.8728 9.19527 83.8728 7.70414C83.8728 6.21302 82.8753 5.46745 81.9609 5.46745ZM79.384 14.9941V11.6805C77.7215 11.6805 75.0615 11.0177 75.0615 7.6213C75.0615 4.22485 77.8047 3.56213 79.384 3.56213V0.16568H82.1272V3.56213C83.7897 3.56213 86.4497 4.22485 86.4497 7.6213C86.4497 11.0177 83.7066 11.6805 82.1272 11.6805V14.9941H79.384ZM67.1646 9.85799V5.46745C66.2502 5.46745 65.2527 6.13018 65.2527 7.6213C65.2527 9.19526 66.1671 9.85799 67.1646 9.85799ZM69.5752 5.46745V9.85799C70.4896 9.85799 71.4871 9.19527 71.4871 7.70414C71.404 6.21302 70.4896 5.46745 69.5752 5.46745ZM66.9984 14.9941V11.6805C65.3359 11.6805 62.6758 11.0177 62.6758 7.6213C62.6758 4.22485 65.3359 3.56213 66.9984 3.56213V0.16568H69.7415V3.56213C71.404 3.56213 74.064 4.22485 74.064 7.6213C74.064 11.0177 71.3209 11.6805 69.7415 11.6805V14.9941H66.9984ZM57.4389 2.65089C58.6858 2.65089 60.0158 2.15385 60.5146 0.828402L58.6858 0.16568C58.4364 1.07692 57.6883 1.15976 57.3558 1.15976C57.0233 1.15976 56.2752 1.07692 56.0258 0.16568L54.2802 0.828402C54.8621 2.23669 56.1921 2.65089 57.4389 2.65089ZM53.1164 3.72781V11.5976H55.7764L58.5196 7.28994V11.5976H61.2627V3.72781H58.6027L55.8596 7.95266V3.72781H53.1164ZM36.242 2.48521V5.13609H37.2395C38.6526 5.13609 38.7357 4.30769 38.7357 3.81065C38.7357 3.23077 38.5695 2.48521 37.2395 2.48521H36.242ZM33.2495 11.5148V0H37.9045C41.0633 0 41.9776 2.23669 41.9776 3.81065C41.9776 5.38461 41.0633 7.6213 37.9876 7.6213H36.3251V11.5148H33.2495ZM96.1753 3.72781V11.5976H93.4322V10.6864C92.9335 11.432 92.0191 11.8462 91.1047 11.8462C88.7772 11.8462 87.1978 9.85799 87.1978 7.6213C87.1978 5.38461 88.7772 3.47929 91.1047 3.47929C92.0191 3.47929 92.9335 3.81065 93.5153 4.47337V3.72781H96.1753ZM91.7697 5.88166C90.606 5.88166 90.0241 6.71006 90.0241 7.6213C90.0241 8.61538 90.6891 9.36095 91.7697 9.36095C92.8503 9.36095 93.5153 8.61538 93.5153 7.6213C93.5153 6.62722 92.8503 5.88166 91.7697 5.88166ZM51.3708 3.72781V11.5976H48.6277V10.6864C48.1289 11.432 47.2145 11.8462 46.3002 11.8462C43.9726 11.8462 42.3933 9.85799 42.3933 7.6213C42.3933 5.38461 43.9726 3.47929 46.3002 3.47929C47.2145 3.47929 48.1289 3.81065 48.7108 4.47337V3.72781H51.3708ZM46.9652 5.88166C45.8014 5.88166 45.2195 6.71006 45.2195 7.6213C45.2195 8.61538 45.8845 9.36095 46.9652 9.36095C48.0458 9.36095 48.7108 8.61538 48.7108 7.6213C48.7108 6.62722 48.0458 5.88166 46.9652 5.88166ZM123.607 7.95266V8.28402H117.788C117.788 9.44379 118.37 10.0237 119.534 10.0237C120.115 10.0237 120.531 9.85799 120.864 9.27811H123.524C123.108 11.1834 121.362 12.0118 119.534 12.0118C116.957 12.0118 115.045 10.5207 115.045 7.86982C115.045 5.21893 116.79 3.64497 119.367 3.64497C122.027 3.56213 123.607 5.30177 123.607 7.95266ZM117.788 6.62722H120.947C120.78 5.88166 120.115 5.38461 119.367 5.38461C118.619 5.38461 117.954 5.79882 117.788 6.62722Z" fill="black"/>
<path d="M36.8235 25.5976H37.3223C37.821 25.5976 38.2367 25.5976 38.5692 25.5147C38.9017 25.4319 39.151 25.349 39.4004 25.1834C39.6498 25.0177 39.816 24.6863 39.8992 24.2721C39.9823 23.8579 39.9823 23.6094 39.816 23.4437C39.6498 23.278 39.4004 23.1124 39.151 23.1124C38.9017 23.1124 38.486 23.0295 37.9042 23.0295H37.4054L36.8235 25.5976ZM43.3904 16.4023L42.8085 18.9703H38.1535L37.821 20.5443H39.5667C40.481 20.5443 41.146 20.71 41.7279 20.9585C42.3098 21.207 42.6423 21.7041 42.8917 22.2011C43.0579 22.781 43.141 23.4437 42.8917 24.2721C42.7254 25.0177 42.3929 25.7632 41.8942 26.2603C41.3954 26.8402 40.8135 27.2544 40.1485 27.5029C39.4835 27.7514 38.6523 27.9171 37.821 27.9171H33.166L35.6598 16.2366H43.3904V16.4023Z" fill="black"/>
<path d="M50.7059 19.9645L48.6278 23.6923H51.1215L50.7059 19.9645ZM47.2978 26.0118L46.0509 28H42.809L49.7915 16.3195H53.1165L55.0284 28H51.7865L51.454 26.0118H47.2978Z" fill="black"/>
<path d="M65.3357 20.8757L66.25 16.4023H69.3257L66.8319 28H63.7563L64.8369 23.2781H60.4313L59.4338 28H56.3581L58.8519 16.4023H61.8444L60.93 20.8757H65.3357Z" fill="black"/>
<path d="M78.387 16.4023H82.2107L76.3919 21.8698L80.1326 28H76.1426L73.3163 22.9467L72.2357 28H69.16L71.6538 16.4023H74.7294L73.6488 21.2071H73.7319L78.387 16.4023Z" fill="black"/>
</svg>
