<svg width="75" height="24" viewBox="0 0 75 24" xmlns="http://www.w3.org/2000/svg">
<path d="M74.2983 23.615C72.4481 23.615 70.5841 23.615 68.7064 23.615C68.5008 22.6282 68.2815 21.6688 68.1034 20.6957C68.0348 20.2982 67.8978 20.1337 67.4592 20.1474C65.2115 20.1749 62.9774 20.1749 60.7297 20.1474C60.3871 20.1474 60.25 20.2571 60.1541 20.5723C59.8388 21.4906 59.5099 22.4089 59.1673 23.3272C59.1261 23.4505 58.9617 23.615 58.852 23.615C56.8373 23.6287 54.8088 23.6287 52.7256 23.6287C53.1093 22.7104 53.4657 21.8469 53.822 20.9698C56.4261 14.7474 59.0302 8.53873 61.648 2.31635C62.2099 0.973188 63.0597 0.411255 64.5125 0.411255C66.1297 0.411255 67.7607 0.411255 69.4191 0.411255C69.5836 1.16507 69.748 1.91888 69.8988 2.65899C71.1871 8.79913 72.4618 14.953 73.7501 21.0931C73.9146 21.8744 74.1064 22.6556 74.2846 23.4505C74.2983 23.5053 74.2983 23.5602 74.2983 23.615ZM66.9795 15.3642C66.3902 12.5134 65.8008 9.69 65.2115 6.86663C65.1841 6.86663 65.1566 6.85293 65.1429 6.85293C64.115 9.6763 63.1008 12.4997 62.0592 15.3642C63.7175 15.3642 65.3211 15.3642 66.9795 15.3642Z" fill="url(#paint0_linear_3_241)"/>
<path d="M49.9432 0C50.6833 0.137057 51.4234 0.246702 52.1498 0.424876C52.8214 0.575639 53.4656 0.79493 54.1783 1.00051C53.8219 2.67261 53.4793 4.30359 53.1366 5.89345C52.2047 5.61933 51.3138 5.3041 50.3955 5.09851C49.1346 4.8244 47.8462 4.71476 46.599 5.0711C46.0919 5.20816 45.5711 5.48227 45.1736 5.82492C44.4884 6.41426 44.4746 7.26401 45.1325 7.88077C45.5848 8.30565 46.1193 8.66199 46.6676 8.97722C47.8874 9.71733 49.1757 10.3478 50.3681 11.1427C51.7661 12.0747 52.794 13.3356 52.9996 15.0625C53.3833 18.1052 52.2595 20.5037 49.6965 22.2032C48.0929 23.2723 46.2701 23.752 44.3787 23.9164C41.7335 24.1631 39.1431 23.8616 36.6076 23.0393C36.4431 22.9844 36.2786 22.9159 36.1142 22.8474C36.0594 22.8337 36.0182 22.7926 35.9497 22.7377C36.3061 21.0656 36.6624 19.3935 37.0325 17.6666C37.4573 17.8585 37.8685 18.0367 38.2797 18.2149C40.2533 19.0098 42.2954 19.3798 44.4061 18.9824C44.9543 18.8727 45.5163 18.6397 45.9823 18.3245C46.9965 17.6529 47.0924 16.3783 46.1742 15.5697C45.5711 15.0488 44.8447 14.6651 44.1457 14.2402C43.063 13.5823 41.9254 13.0204 40.8975 12.294C39.5954 11.3483 38.6497 10.1011 38.4579 8.429C38.1837 5.93456 39.1157 3.90612 41.0345 2.32997C42.7066 0.959398 44.6802 0.342642 46.7909 0.0959396C46.9143 0.082234 47.0239 0.0411171 47.1335 0.0137057C48.0655 5.20788e-08 48.9975 0 49.9432 0Z" fill="url(#paint1_linear_3_241)"/>
<path d="M28.1926 0.424554C27.8774 1.17837 27.5758 1.90477 27.2743 2.61746C24.3961 9.48401 21.5179 16.3506 18.6534 23.2171C18.5164 23.5461 18.3519 23.6283 18.023 23.6283C16.2001 23.6146 14.391 23.6009 12.5681 23.6283C12.1844 23.6283 12.061 23.5049 11.9651 23.1486C10.43 17.1455 8.85387 11.1561 7.33254 5.15302C7.05843 4.05656 6.49649 3.30275 5.44116 2.83676C3.75536 2.09665 2.01474 1.57583 0.232997 1.15096C0.150763 1.13725 0.0822341 1.10984 0 1.09613C0.0137057 0.397143 0.0137059 0.397143 0.671579 0.397143C3.8513 0.397143 7.03102 0.397143 10.2107 0.397143C11.7184 0.397143 12.8011 1.27431 13.0889 2.76823C13.8976 6.98958 14.6788 11.2246 15.4874 15.446C15.5285 15.6242 15.556 15.816 15.6108 16.0764C15.693 15.9257 15.7478 15.8297 15.7889 15.7338C17.7626 10.7449 19.7362 5.74236 21.6961 0.753491C21.8057 0.479377 21.9291 0.383437 22.2306 0.397143C24.0809 0.410848 25.9174 0.410848 27.7677 0.410848C27.9048 0.410848 28.0281 0.424554 28.1926 0.424554Z" fill="url(#paint2_linear_3_241)"/>
<path d="M25.7939 23.6286C27.4523 15.8712 29.097 8.16861 30.7554 0.438599C32.7701 0.438599 34.7575 0.438599 36.7722 0.438599C36.5255 1.61729 36.2788 2.76857 36.0321 3.91984C34.6615 10.3067 33.3047 16.6798 31.9478 23.0667C31.8519 23.5053 31.7011 23.656 31.2351 23.6423C29.5904 23.6149 27.932 23.6286 26.2873 23.6286C26.1366 23.6286 25.9858 23.6286 25.7939 23.6286Z" fill="url(#paint3_linear_3_241)"/>
<defs>
<linearGradient id="paint0_linear_3_241" x1="4.18079" y1="12.4404" x2="73.908" y2="11.9816" gradientUnits="userSpaceOnUse">
<stop stop-color="#262860"/>
<stop offset="1" stop-color="#3D429B"/>
</linearGradient>
<linearGradient id="paint1_linear_3_241" x1="4.1795" y1="12.2654" x2="73.9065" y2="11.8066" gradientUnits="userSpaceOnUse">
<stop stop-color="#262860"/>
<stop offset="1" stop-color="#3D429B"/>
</linearGradient>
<linearGradient id="paint2_linear_3_241" x1="4.17838" y1="12.055" x2="73.9055" y2="11.5963" gradientUnits="userSpaceOnUse">
<stop stop-color="#262860"/>
<stop offset="1" stop-color="#3D429B"/>
</linearGradient>
<linearGradient id="paint3_linear_3_241" x1="4.17924" y1="12.2133" x2="73.9064" y2="11.7546" gradientUnits="userSpaceOnUse">
<stop stop-color="#262860"/>
<stop offset="1" stop-color="#3D429B"/>
</linearGradient>
</defs>
</svg>
